/* XPM */
static char *_0448eee1d9243fadf2ad4aa908d2b68lH21ZeSYq6bDsuIL[] = {
/* columns rows colors chars-per-pixel */
"64 64 67 1 ",
"  c #36022F",
". c #38002C",
"X c #3A0332",
"o c #340835",
"O c #320A38",
"+ c #360B3B",
"@ c #38113C",
"# c #400B3F",
"$ c #3F0D42",
"% c #2E1241",
"& c #2B1747",
"* c #321744",
"= c #3F164E",
"- c #3F1A4E",
"; c #271F50",
": c #262253",
"> c #272354",
", c #232759",
"< c #222A5C",
"1 c #262B5F",
"2 c #272C5C",
"3 c #34225A",
"4 c #31305D",
"5 c #37335D",
"6 c #2E2D66",
"7 c #372660",
"8 c #342F66",
"9 c #273060",
"0 c #2D3866",
"q c #363260",
"w c #323269",
"e c #34336A",
"r c #36336D",
"t c #323969",
"y c #313D69",
"u c #363E6D",
"i c #3F3174",
"p c #3F3D74",
"a c #430E46",
"s c #431B52",
"d c #4C1A59",
"f c #4D296E",
"g c #512165",
"h c #43356A",
"j c #4D2D73",
"k c #5A2C79",
"l c #592F7C",
"z c #48337A",
"x c #49357C",
"c c #4D3A7F",
"v c #5A307D",
"b c #5D307F",
"n c #37446E",
"m c #3E4073",
"M c #434277",
"N c #4B407E",
"B c #563482",
"V c #563886",
"C c #5A3985",
"Z c #593788",
"A c #583B88",
"S c #5A3D89",
"D c #5D3C8C",
"F c #63378C",
"G c #613A8F",
"H c #633B90",
"J c #663B93",
/* pixels */
"................................................................",
".X#aaaaaaaa$+OOOOOOOOOOOOOO+$aaaaaaaaaaaaaa$+OOOOOOOOOOOOOO+$#X.",
".#gkkkkkkkkf3;;;;;;;;;;;;;;3fkkkkkkkkkkkkkkf3;;;;;;;;;;;;;;3fg#.",
".akJJJJJJGZz6<<<<<<<<<<<<16iZJJJJJJJJJJJJGZz6<<<<<<<<<<<<16iZka.",
".akJJJJJJZi61<<<<<<<<<<<<6zZGJJJJJJJJJJJJZi61<<<<<<<<<<<<6zZGka.",
".akJJJJGZz6<<<<<<<<<<<<16iZJJJJJJJJJJJJGZz6<<<<<<<<<<<<16iZJJka.",
".akJJJJZi61<<<<<<<<<<<<6zZGJJJJJJJJJJJJZi61<<<<<<<<<<<<6zZGJJka.",
".akJJGZxw992<<<<<<<<<16iZJJJJJJJJJJJJGZz6<<<<<<<<<<<299rVJJJJka.",
".akJJZiwtyy02<<<<<<<<6zZGJJJJJJJJJJJJZi61<<<<<<<<<<20yypAJJJJka.",
".akGZz69ynny9<<<<<<16iZJJJJJJJJJJJJGZz6<<<<<<<<<<<<9ynnMSJJJJka.",
".akZi619ynny9<<<<<<6zZGJJJJJJJJJJJJZi61<<<<<<<<<<<<9ynnMSJJJJka.",
".$fz6<<245542<<<<16iZJJJJJJJJJJJJGZz6<<<<<<<<<<<<168q55hCJJJJka.",
".+361<<>*@@*><<<<6zZGJJJJJJJJJJJJZi61<<<<<<<<<<<<6zj-@@svJJJJka.",
".O;<<<<:%OO%:<<16iZJJJJJJJJJJJJGZz6<<<<<<<<<<<<16iZbdaadbJJJJka.",
".O;<<<<,:;;:,<<6zZGJJJJJJJJJJJJZi61<<<<<<<<<<<<6zZGFbkkbFJJJJka.",
".O;<<<<<<<<<<16iZJJJJJJJJJJJJGZz6<<<<<<<<<<<<16iZJJJJJJJJJJJJka.",
".O;<<<<<<<<<<6zZGJJJJJJJJJJJJZi61<<<<<<<<<<<<6zZGJJJJJJJJJJJJka.",
".O;<<<<<<<<16iZJJJJJJJJJJJJGZz6<<<<<<<<<<<<16iZJJJJJJJJJJJJGZf$.",
".O;<<<<<<<<6zZGJJJJJJJJJJJJZi61<<<<<<<<<<<<6zZGJJJJJJJJJJJJZi3+.",
".O;<<<<<<16iZJJJJJJJJJJJJGZz6<<<<<<<<<<<<16iZJJJJJJJJJJJJGZz6;O.",
".O;<<<<<<6zZGJJJJJJJJJJJJZi61<<<<<<<<<<<<6zZGJJJJJJJJJJJJZi61;O.",
".O;<<<<16iZJJJJJJJJJJJJGZz6<<<<<<<<<<<<16iZJJJJJJJJJJJJGZz6<<;O.",
".O;<<<<6zZGJJJJJJJJJJJJZi61<<<<<<<<<<<<6zZGJJJJJJJJJJJJZi61<<;O.",
".O;<<16iZJJJJJJJJJJJJGZz6<<<<<<<<<<<<16iZJJJJJJJJJJJJGZz6<<<<;O.",
".O;<<6zZGJJJJJJJJJJJJZi61<<<<<<<<<<<<6zZGJJJJJJJJJJJJZi61<<<<;O.",
".O;16iZJJJJJJJJJJJJGZz6<<<<<<<<<<<<16iZJJJJJJJJJJJJGZz6<<<<<<;O.",
".O;6zZGJJJJJJJJJJJJZi61<<<<<<<<<<<<6zZGJJJJJJJJJJJJZi61<<<<<<;O.",
".+3iZJJJJJJJJJJJJGZz6<<<<<<<<<<<<16iZJJJJJJJJJJJJGZz6<<<<<<<<;O.",
".$fZGJJJJJJJJJJJJZi61<<<<<<<<<<<<6zZGJJJJJJJJJJJJZi61<<<<<<<<;O.",
".akJJJJJJJJJJJJGZz6<<<<<<<<<<<<16iZJJJJJJJJJJJJGZz6<<<<<<<<<<;O.",
".akJJJJJJJJJJJJZi61<<<<<<<<<<<<6zZGJJJJJJJJJJJJZi61<<<<<<<<<<;O.",
".akJJJJJJJJJJGZz6<<<<<<<<<<<<16iZJJJJJJJJJJJJGZz6<<<<<<<<<<<<;O.",
".akJJJJJJJJJJZi61<<<<<<<<<<<<6zZGJJJJJJJJJJJJZi61<<<<<<<<<<<<;O.",
".akJJJJJJJJGZz6<<<<<<<<<<<<16iZJJJJJJJJJJJJGZz6<<<<<<<<<<<<163+.",
".akJJJJJJJJZi61<<<<<<<<<<<<6zZGJJJJJJJJJJJJZi61<<<<<<<<<<<<6zf$.",
".akJJJJJJGZz6<<<<<<<<<<<<16iZJJJJJJJJJJJJGZz6<<<<<<<<<<<<16iZka.",
".akJJJJJJZi61<<<<<<<<<<<<6zZGJJJJJJJJJJJJZi61<<<<<<<<<<<<6zZGka.",
".akJJJJGZz6<<<<<<<<<<<<16iZJJJJJJJJJJJJGZz6<<<<<<<<<<<<16iZJJka.",
".akJJJJZi61<<<<<<<<<<<<6zZGJJJJJJJJJJJJZi61<<<<<<<<<<<<6zZGJJka.",
".akJJGZz6<<<<<<<<<<<<16iZJJJJJJJJJJJJGZz6<<<<<<<<<<<<16iZJJJJka.",
".akJJZi61<<<<<<<<<<<<6zZGJJJJJJJJJJJJZi61<<<<<<<<<<<<6zZGJJJJka.",
".akGZz6<<<<<<<<<<<<16iZJJJJJJJJJJJJGZz6<<<<<<<<<<<<16iZJJJJJJka.",
".akZi61<<<<<<<<<<<<6zZGJJJJJJJJJJJJZi61<<<<<<<<<<<<6zZGJJJJJJka.",
".$fz6<<<<<<<<<<<<16iZJJJJJJJJJJJJGZz6<<<<<<<<<<<<16iZJJJJJJJJka.",
".+361<<<<<<<<<<<<6zZGJJJJJJJJJJJJZi61<<<<<<<<<<<<6zZGJJJJJJJJka.",
".O;<<<<<<<<<<<<16iZJJJJJJJJJJJJGZz6<<<<<<<<<<<<16iZJJJJJJJJJJka.",
".O;<<<<<<<<<<<<6zZGJJJJJJJJJJJJZi61<<<<<<<<<<<<6zZGJJJJJJJJJJka.",
".O;<<<<<<<<<<16iZJJJJJJJJJJJJGZz6<<<<<<<<<<<<16iZJJJJJJJJJJJJka.",
".O;<<<<<<<<<<6zZGJJJJJJJJJJJJZi61<<<<<<<<<<<<6zZGJJJJJJJJJJJJka.",
".O;<<<<<<<<16iZJJJJJJJJJJJJGZz6<<<<<<<<<<<<16iZJJJJJJJJJJJJGZf$.",
".O;<<<<<<<<6zZGJJJJJJJJJJJJZi61<<<<<<<<<<<<6zZGJJJJJJJJJJJJZi3+.",
".O;<<<<<299rVJJJJJJJJJJJJGZz6<<<<<<<<<<<<16iZJJJJJJHDSSDHGZz6;O.",
".O;<<<<20yypAJJJJJJJJJJJJZi61<<<<<<<<<<<<6zZGJJJJJJDNMMNDZi61;O.",
".O;<<<<9ynnMSJJJJJJJJJJGZz6<<<<<<<<<<<<16iZJJJJJJJJSMnnmcz6<<;O.",
".O;<<<<9ynnMSJJJJJJJJJJZi61<<<<<<<<<<<<6zZGJJJJJJJJSMnnue61<<;O.",
".O;<<168q55hCJJJJJJJJGZz6<<<<<<<<<<<<16iZJJJJJJJJJJCh5542<<<<;O.",
".O;<<6zj-@@svJJJJJJJJZi61<<<<<<<<<<<<6zZGJJJJJJJJJJvs@@*><<<<;O.",
".O;16iZbdaadbJJJJJJGZz6<<<<<<<<<<<<16iZJJJJJJJJJJJJl=OO%:<<<<;O.",
".O;6zZGFbkkbFJJJJJJZi61<<<<<<<<<<<<6zZGJJJJJJJJJJJJB7;;:,<<<<;O.",
".+3iZJJJJJJJJJJJJGZz6<<<<<<<<<<<<16iZJJJJJJJJJJJJGZz6<<<<<<<<;O.",
".$fZGJJJJJJJJJJJJZi61<<<<<<<<<<<<6zZGJJJJJJJJJJJJZi61<<<<<<<<;O.",
".#gkkkkkkkkkkkkkkf3;;;;;;;;;;;;;;3fkkkkkkkkkkkkkkf3;;;;;;;;;;&o.",
".X#aaaaaaaaaaaaaa$+OOOOOOOOOOOOOO+$aaaaaaaaaaaaaa$+OOOOOOOOOOo .",
"................................................................"
};
