/* XPM */
static char *a70923afdf2a4cacd24698b9d2752eb8iIh7QewTGcZ22nU1[] = {
/* columns rows colors chars-per-pixel */
"64 64 140 2 ",
"   c None",
".  c #0C1B26",
"X  c #0C1D29",
"o  c #0D202E",
"O  c #0F2434",
"+  c #0B263B",
"@  c #0B293E",
"#  c #0B2B42",
"$  c #0F2F48",
"%  c #0E314C",
"&  c #0D3753",
"*  c #0E3956",
"=  c #0E3A59",
"-  c #0E4163",
";  c #114367",
":  c #11466B",
">  c #12486E",
",  c #164F77",
"<  c #17537D",
"1  c #18547E",
"2  c #175682",
"3  c #185581",
"4  c #175986",
"5  c #195986",
"6  c #175A88",
"7  c #195B8A",
"8  c #1A5F90",
"9  c #1A6193",
"0  c #1E6CA5",
"q  c #1F6EA9",
"w  c #1F71AC",
"e  c #1F74B1",
"r  c #206DA6",
"t  c #206FA9",
"y  c #2173AF",
"u  c #2072AE",
"i  c #2071AC",
"p  c #2071AC",
"a  c #2173B0",
"s  c #2174B0",
"d  c #2074B1",
"f  c #2076B3",
"g  c #2276B4",
"h  c #2174B1",
"j  c #2378B6",
"k  c #2682C4",
"l  c #2585C9",
"z  c #2785C8",
"x  c #2787CA",
"c  c #2787CD",
"v  c #2786CA",
"b  c #2887CB",
"n  c #2887CB",
"m  c #2788CB",
"M  c #2788CD",
"N  c #2789CE",
"B  c #2789CE",
"V  c #2988CB",
"C  c #2888CD",
"Z  c #2888CE",
"A  c #2889CE",
"S  c #2989CE",
"D  c #2889CF",
"F  c #2A89CE",
"G  c #288ACF",
"H  c #2888CD",
"J  c #278BD1",
"K  c #288AD0",
"L  c #298AD0",
"P  c #288AD1",
"I  c #298AD1",
"U  c #2A8BD0",
"Y  c #288AD2",
"T  c #288BD2",
"R  c #298BD2",
"E  c #288BD3",
"W  c #298BD3",
"Q  c #298CD1",
"!  c #288CD3",
"~  c #298CD3",
"^  c #2A8CD3",
"/  c #298DD5",
"(  c #2A8DD4",
")  c #2A8DD5",
"_  c #2A8ED4",
"`  c #2A8ED5",
"'  c #2A8DD6",
"]  c #288ED6",
"[  c #298ED6",
"{  c #288FD6",
"}  c #2A8ED6",
"|  c #2B8ED6",
" . c #2A8FD6",
".. c #2A8ED7",
"X. c #2B8ED7",
"o. c #2A8FD7",
"O. c #298CD3",
"+. c #298FD8",
"@. c #2A8FD8",
"#. c #2A8FD8",
"$. c #2B90D7",
"%. c #2A90D8",
"&. c #2B90D9",
"*. c #2A90DA",
"=. c #2A91DA",
"-. c #2B91DB",
";. c #2B92DB",
":. c #2C90D9",
">. c #2C91DB",
",. c #2B91DC",
"<. c #2A92DC",
"1. c #2A92DD",
"2. c #2A90DA",
"3. c #2B96E3",
"4. c #2E95E1",
"5. c #2D97E3",
"6. c #2E97E3",
"7. c #2C97E4",
"8. c #2D97E4",
"9. c #2E96E4",
"0. c #2D96E3",
"q. c #2D98E6",
"w. c #2D99E6",
"e. c #2E99E6",
"r. c #2E99E7",
"t. c #2D9AE6",
"y. c #2E99E7",
"u. c #2D99E9",
"i. c #2E99E8",
"p. c #2E9AE8",
"a. c #2D9BEA",
"s. c #2E9AEA",
"d. c #2E9BEA",
"f. c #2F9BEA",
"g. c #2E9BEB",
"h. c #2D9CEB",
"j. c #2E9CEB",
"k. c #2E9CEC",
"l. c #2E9AEA",
"z. c #2F9FF0",
/* pixels */
"                                                                                                                                ",
"                                                                V                                                               ",
"                                                                  D                                                             ",
"                                                                  P ~                                                           ",
"                                                                    P -.D                                                       ",
"                                                                      ~ N                                                       ",
"                                                          0 r r r r     D D                                                     ",
"                                                        0 p w p p w 0   P @.z                                                   ",
"                                                    0 0 w w w p p p p 0 s [ P                                                   ",
"                                                  0 p p w w q p w w p w p [ @.z                                                 ",
"                                                0 p p w q 0 6 r q q q t p P @.[                                                 ",
"                                              0 p p w 0 5 3 1 3 3 3 3 t p e [ @.[                                               ",
"                                              p p p p 6 < < 3 1 1 1 3 0 p w P @.:.                                              ",
"                                            p w a P @.D 6 2 2 1 1 1 1 3 q p s [ :.                                              ",
"                                            s P [ @.u.u.u.-.2 1 3 3 2 1 3 6 P u.[ a                                             ",
"                                            [ u.u.j.j.<.u.~ 3 < 1 1 1 3 3 < 9 r.<.~                                             ",
"                                          4.u.k.<.7.-.N 7 5 < > : : > < 3 < 5 3.u.:.                                            ",
"                                        D -.-.[ P 7 5 6 < > > : : : : > < 3 1 8 u.[ t                                           ",
"                                      c [ [ P 7 4 < < 1 < : : : : : : ; = < < 5 r.[ a                                           ",
"                                      D g m p 2 < 2 3 2 > : : : : : = * * = < 6 r.[ p                                           ",
"                                    b [ p t 4 1 3 3 3 < : : : : : = * * * = , 6 r.[ p                                           ",
"                                    P ~ p q 2 1 1 3 < > : : : : = * * * * * * 2 r.[ p q                                         ",
"                                  [ [ p p q 2 1 1 3 < > : : : : * * * * * * & - 7.-.p q                                         ",
"                                  P D   p q 3 1 1 3 < > : : : : * * * & # @ @ = 4.@.p p 0                                       ",
"                                  P [ t t 0 2 1 1 3 < > : : : = * * & # @ @ + % 4.[ 6 0 0                                       ",
"                                z @.D p t 4 < 1 1 1 < > : : : * * * & # @ @ + $ 4.[ 5 0 0                                       ",
"                                P ~   q t 1 1 2 3 1 > : : : = * * * # @ @ + . O 7.[ 6 t 0                                       ",
"                                P [   q t 3 1 3 3 < > : : : * & * & # @ @ X . O 7.-.p p 0                                       ",
"                                P D   q q 2 3 3 3 1 > : : : * * * # @ @ + X . O k P p p 0     k                                 ",
"                                k     0 t 3 1 3 3 1 > > : : * * * @ @ @ X . . . O < 6 t 0     n                                 ",
"                                    r p t 3 < 3 3 1 > : : : * * * @ @ @ X . . . o < 0 p 0     b                                 ",
"                                    q p q 3 2 3 3 1 > : : : * * * @ @ @ X . . X < 3 2 t q   [ P                                 ",
"                                    t p 0 5 b 5 < 1 > > : : * * * @ @ @ X . . o 1 3 3 t q   [ ~                                 ",
"                                    0 p 0 6 4.7 < 1 > : : : * * & @ @ @ X . . o < 3 3 t q   [ D                                 ",
"                                      q 0 5 r.c 5 < > : : : * * * @ @ @ + X . X < 3 5 q p N N                                   ",
"                                k     0 0 5 4.9 1 1 > : : : * * * & # @ @ X . o < 2 0 p s [ P                                   ",
"                                z     0 q 7 r.D 5 < > > : : = * * & # @ @ @ + # < 3 q p P -.P                                   ",
"                                z     0 p P j.[ 5 < > > : : = * * & # @ @ @ @ # < 3 0 a [ -.P                                   ",
"                                k     0 s [ k.[ 5 < > : : : = * * * & # @ + # < 3 3 0 a ~ -.P                                   ",
"                                      0 p e u.u.6 < > : : : ; * * * * * # @ # 1 2 2 0 p [ -.P                                   ",
"                                      0 p w -.u.6 < > : : : : * * * * * * & * < 1 3 q a [ P                                     ",
"                                        q w @.r.6 < < > : : : = * * * * * * = < 3 0 p P -.D                                     ",
"                                        0 w @.r.6 < < > : : : : * * * * * = < 1 3 q p [ P                                       ",
"                                        t w -.u.6 < 1 > : : : : = * * * * = 1 1 3 q J -.P                                       ",
"                                        0 p -.u.6 < 3 < > : : : ; * * * * = < 5 0 s r.<.z                                       ",
"                                          p ~ r.6 < 3 3 < > : : : = * * * = 3 0 s 7.j.z                                         ",
"                                          p s 7.8 < 3 3 3 < : : : : : ; = = < 8 [ j.$.                                          ",
"                                          a p u.~ 5 1 3 3 < > : : : : > < 5 7 4.k.-.[                                           ",
"                                          D s u.-.5 1 3 1 3 < : : : > < 7 4.u.k.u.[ P                                           ",
"                                            s u.u.6 < 3 1 1 < > > < 2 6 4.z.u.-.@.:.                                            ",
"                                            p [ r.7 < 3 1 1 2 1 < 4 1.u.k.u.-.[ -.                                              ",
"                                              s [ D 6 < 1 1 3 1 2 -.u.-.P j D s                                                 ",
"                                              D [ [ 0   3 1 1 < 4 D 9 q a w p w 0                                               ",
"                                                P [ e 0 0 4 3 3 0 p 0 t p w p 0                                                 ",
"                                                ~ @.P p p t 0 t p p p p p p 0                                                   ",
"                                                D [ [ p p p p p p p p p p 0                                                     ",
"                                                  P u.s 0 p p p p w p p 0                                                       ",
"                                                  D u.4.  0 p p t q t 0                                                         ",
"                                                    P u.u.  r p                                                                 ",
"                                                      P j.r.                                                                    ",
"                                                        [ u.r.r.                                                                ",
"                                                            -.j.~ P z                                                           ",
"                                                              ~ ~ P                                                             ",
"                                                                                                                                "
};
