/* XPM */
static char *f1895745e2bf41789499d14bc525996cbqeFCwoErobvKEyd[] = {
/* columns rows colors chars-per-pixel */
"64 64 16 1 ",
"  c None",
". c black",
"X c #291D2B",
"o c #3B2027",
"O c #3D2936",
"+ c #52333F",
"@ c #7D3833",
"# c #AB5130",
"$ c #8F4D57",
"% c #BD6A62",
"& c #FFAE70",
"* c #686F99",
"= c #FFEE83",
"- c #FFC2A1",
"; c #A3A7C2",
": c #DFE0E8",
/* pixels */
"                             .::.                               ",
"                             .::.                               ",
"                             .::.                               ",
"                            .:;:.                               ",
"                            .:;:.                               ",
"                            .:;:.                               ",
"                           .:;.;.                               ",
"                           .:;.;.                               ",
"                           .;.*;.                               ",
"                          .:;.*;.                               ",
"                          .;.**;.                               ",
"                           .***.                                ",
"                            .*.                                 ",
"                            .*.                                 ",
"                            .*.                                 ",
"                           .*.                                  ",
"                           .*.                                  ",
"                           .*.                                  ",
"                           .*........                           ",
"                          ..*.&###&&&..                         ",
"                         ..+...&######&.                        ",
"                        .@.+.@@.&###@@#&.                       ",
"                        .@.+.##@.@oo..@#&.                      ",
"                       .@@.+.##@@...--.@#.                      ",
"                       .@@.+.#@o.------.@.                      ",
"                       .@.+.#@@o.--...--.                       ",
"                       .@.+.#@@.--.o@#.-.                       ",
"                       .@.+.@o.---....--.                       ",
"                       .o.+.@.----%%%%--.                       ",
"                       .o.+.@.---%-..-%-.                       ",
"                     ...o.+.@.--%--------.....                  ",
"                    .===.+.@@@.-------.%%.OOOO..                ",
"                   .=&&&.+.@@o.--%%......OOOOOOO..              ",
"                   .&&&%.+...o@.%..@@@@@@.OOOOOOOO.             ",
"                  .=&%&%.+.&&.o..#@@#####@.XXOOOOOO.            ",
"                  .&&$%$.+.&%&.o@@@#######.XX..XOOO.            ",
"                  .%%$%.+.&%&&.@@@#####..#.X.oo.XOOO.           ",
"                   ...$.+.%$&&&.@o####@###.X.oo.XOOO.           ",
"                   .%$..+.$$%&&.@o@#######.X.oo.XXOOO.          ",
"                   .%$$.+..$%%&$.o@@##@##@..oo.XXXOOO.          ",
"                  .%$$$.+.$..%&$&..@o#@#@@..oo.XXXOOO.          ",
"                  .%$$.+.$$$$.%$&&&.o@@@o.X.oo.XXXXOO.          ",
"                  .%$$.+.$$$$$.$&&&&...........XXXXOOO.         ",
"                 .%$...+.$$$$$$.$%&&&&%&&=.@@@@.XXXOOO.         ",
"                 .%.###..$$$$$$.$%%&%&%&&%.@@@@.XXXOOO.         ",
"                  .@@@@##.$$$$$$.$%%%&%&&%.....XXXXXOO.         ",
"                   .@@@@@..........$%%$%$.X.oo.XXXXXOO.         ",
"                    .@@@@.@@@@@@@oo......XX.oo.XXXXXO.          ",
"                     ....@@@@@ooooooo.XXXXX.oo.XXXXXO.          ",
"                     .+...............XXXXXX.oo.XXXXO.          ",
"                     .+.XXOOOOO+.XOO+.XXXXXX.oo.XXXOO.          ",
"                     .+..XOOOOOO+.XO+.XXXXXX.oo.XXXO.           ",
"                    .+. .XXXOOOOO+.+.XXXXXXXX..XXXXO.           ",
"                    .+.  .XXXOOOOO+.XXXXXXXXXXXXXXO.            ",
"                    .+.   ..XXXOOO+.XXXXXXXXXXXXXXO.            ",
"                    .+.   .X.XXXOO.@.XXXXXXXXXXXXO.             ",
"                    .+.   .XO..X..@@...XXXXXXXXX..              ",
"                    .+.   ..XOO.o@@@.  ..XXXXX..                ",
"                   .+.    .o..O.o@@.     .....                  ",
"                   .+.    .oo@. .o@.                            ",
"                   .+.    .o@@. .o@.                            ",
"                   .+.    .o@.   ..                             ",
"                   ...    .o@.                                  ",
"                           ...                                  "
};
