/* XPM */
static char *_288dfbaa6344b2988f4cefebc498cf1apcWqYkaHOtLnthI[] = {
/* columns rows colors chars-per-pixel */
"64 64 94 2 ",
"   c None",
".  c #9F7100",
"X  c #A37500",
"o  c #AA7200",
"O  c #A67800",
"+  c #AB7C00",
"@  c #AF8100",
"#  c #B28300",
"$  c #B78800",
"%  c #BA8B00",
"&  c #BF9000",
"*  c #BB8F12",
"=  c #C29300",
"-  c #C79800",
";  c #CA9B00",
":  c #C2A200",
">  c #CFA000",
",  c #CAA900",
"<  c #D3A300",
"1  c #D4AA00",
"2  c #DCAC00",
"3  c #CDB100",
"4  c #D5B300",
"5  c #DCB300",
"6  c #D3BB00",
"7  c #DDBC00",
"8  c #E3B300",
"9  c #E4BA00",
"0  c #EBBB00",
"q  c #ECBD0B",
"w  c #F0BF00",
"e  c #DFC800",
"r  c #E3C300",
"t  c #ECC400",
"y  c #E3CD00",
"u  c #EBCB00",
"i  c #F4C400",
"p  c #F4CB00",
"a  c #FECD00",
"s  c #F0CF0D",
"d  c #ECD200",
"f  c #F4D401",
"g  c #FED300",
"h  c #FDDC00",
"j  c #FFDE0E",
"k  c #F7E600",
"l  c #FDE401",
"z  c #FEEB00",
"x  c #FDE40B",
"c  c #FEE809",
"v  c #FEF300",
"b  c #FEFC00",
"n  c #EEE114",
"m  c #FFE912",
"M  c #FEFD12",
"N  c #E4C939",
"B  c #EEC83A",
"V  c #FED83B",
"C  c #FEE22E",
"Z  c #FEEF29",
"A  c #FEEB2F",
"S  c #FEF521",
"D  c #FEF229",
"F  c #FEE332",
"G  c #FFED3C",
"H  c #FEF230",
"J  c #FFFE3F",
"K  c #E4CB44",
"L  c #E4CC55",
"P  c #EAD650",
"I  c #FEEB43",
"U  c #FEEF43",
"Y  c #FCE552",
"T  c #FEE854",
"R  c #FFFE53",
"E  c #EED061",
"W  c #ECDE64",
"Q  c #FEE476",
"!  c #FDEB7E",
"~  c #FEF97F",
"^  c #FFFE7F",
"/  c #D4C087",
"(  c #F1E895",
")  c #F4E29E",
"_  c #FFFD9D",
"`  c #FEFCA6",
"'  c #FEFEA9",
"]  c #FCFCAA",
"[  c #FEFBB4",
"{  c #FFFEC4",
"}  c #FEF8CA",
"|  c #FEFECB",
" . c #FDFBF1",
".. c #FEFEF7",
/* pixels */
"                                                                                                                                ",
"                                                                                                                                ",
"                                                                                                                                ",
"                                                                                                                                ",
"                                                                                                                                ",
"                                                                                                                                ",
"                                                                                                                                ",
"                                                                                                                                ",
"                                                                                                                                ",
"                                                                                                                                ",
"                                                                                                                                ",
"                                                                                                                                ",
"                                                                                                                                ",
"                                                                                                                                ",
"                                                  t f h h h h a i 0 8 2 2 1 =                                                   ",
"                                              u h h c G z z z h a a a i i p a i 2                                               ",
"                                          9 h h D _ [ H z z z z l l g a a 0 i a a i                                             ",
"                                        r h m ` } T f 7 4 4 4 7 9 a g g a i 9 u z z z 6                                         ",
"                                      r h v Z F r , : 4 r r r 7 $ O = p a i 0 0 P ' ' ' /                                       ",
"                                    7 f v z f , , u c S b b b v l t - O 1 i 0 0 0 n M M M                                       ",
"                                  - u z l p : r x ~ { J b k f g g a a 0 + % 2 8 0 9 k z z k                                     ",
"                                  8 f l f : u I | ^ M A f 6 3 4 a a a a i $ $ 1 8 0 2 a a a 0                                   ",
"                                > 8 h h : u U R M v h Y r t $ 2 a a a a a i + = 1 8 1 8 i i i                                   ",
"                                8 9 g 1 7 z b b z h h ( h 0 $ 2 a a a a a i 2 O < 1 2 < 8 8 8 1                                 ",
"                              - 2 0 8 $ k b b l j C ! ..Q B * 2 a a a a a w 0 % # < 1 < 2 8 8 8                                 ",
"                              1 2 t # 2 v b l h h s W  .V q $ 2 a a a a p 0 0 2 O = 1 < > 8 8 8 -                               ",
"                              1 ; 2 + k b l g h f e 2 ) a 0 $ 2 a a a a i 0 0 0 $ + < < - 8 8 8 2                               ",
"                            & ; ; % - v v a a a 7 r $ E a 0 $ 2 a a a p 0 0 0 0 < O = ; = 2 8 8 8                               ",
"                            ; - - + 5 b h a a 9 u = ; N a 0 $ 2 a a p 0 0 0 0 0 8 O $ - - 1 8 8 8                               ",
"                            < = = X f b a a p 4 1 1 p K a 0 $ 2 a p 0 0 0 0 0 0 9 + + = - < 8 8 8 =                             ",
"                            < & & X d l a a a a a a a L a 0 $ 2 i 0 0 0 0 0 0 0 0 $ + % - - < < < =                             ",
"                            1 % $ O y t i a a a a a a y a 0 $ < 0 0 0 0 0 0 0 0 8 $ + $ - = = = = $                             ",
"                            1 % $ O r 0 0 0 i i p p i y a 0 $ < 0 0 0 0 0 0 0 8 2 $ + $ - = = = = $                             ",
"                            < & $ X 4 0 0 0 0 0 0 0 0 y a 8 $ < 0 0 0 0 0 0 8 2 2 # + $ - = = = = $                             ",
"                            ; = $ X < 8 0 0 0 0 0 0 0 y a 8 $ < 0 0 0 0 0 8 2 2 1 + + $ - = = = = $                             ",
"                            = = $ O = 1 0 0 0 0 0 0 0 y a 8 $ < 0 0 0 0 8 2 2 2 ; O # $ - % = = =                               ",
"                            % = # + % 1 8 0 0 0 0 0 0 y a 8 $ < 0 0 8 2 2 2 2 1 = X # $ - % = = =                               ",
"                              - # + + 1 1 8 0 0 0 0 0 y a 8 $ < 8 2 2 2 2 2 2 ; $ O # & = = = = &                               ",
"                              - $ # X = ; < 8 0 0 0 0 y a 8 $ - 2 2 2 2 2 2 ; - O @ # - = = = = $                               ",
"                              = = # + + - - ; 1 8 8 2 r a 8 $ - 2 2 2 2 2 ; - % X # $ - # # # #                                 ",
"                                - # # X % - - - ; 1 2 r a 2 $ - 2 2 2 < - - - O + # = = @ @ @ @                                 ",
"                                = & # + X = - - - - - r a 2 $ = > ; - - - - @ O # $ - # @ # @ o                                 ",
"                                  - $ # + O = - - - - 9 i 2 $ = - - - - - # X # # = = @ @ @ +                                   ",
"                                  & = # # + O = - - - 5 2 ; @ = - - - - # X # # $ - # @ @ @                                     ",
"                                    = % # # + X $ = - % % % % = - - % O O # # # = $ @ @ @ +                                     ",
"                                      - $ # # @ O X # % = = = & $ O X + # # # = % @ @ @ +                                       ",
"                                        - % # # # @ + O X X X X O + # # # # = % @ @ @ +                                         ",
"                                          = = $ # # # # # # # # # # # # $ = $ @ @ @ +                                           ",
"                                            $ - = $ # # # # # # # $ % = % O X X X                                               ",
"                                                % = - = = % & = = - $ + . . X                                                   ",
"                                                          & % $ + . .                                                           ",
"                                                                                                                                ",
"                                                                                                                                ",
"                                                                                                                                ",
"                                                                                                                                ",
"                                                                                                                                ",
"                                                                                                                                ",
"                                                                                                                                ",
"                                                                                                                                ",
"                                                                                                                                ",
"                                                                                                                                ",
"                                                                                                                                ",
"                                                                                                                                ",
"                                                                                                                                "
};
