/* XPM */
static char *_2004c5f8f264e1af5f28e67477bf2d5O4DRMwaP1rzxWOYt[] = {
/* columns rows colors chars-per-pixel */
"64 64 40 1 ",
"  c None",
". c #9F7100",
"X c #A07100",
"o c #A07200",
"O c #A17300",
"+ c #A27400",
"@ c #AD7F00",
"# c #AE8000",
"$ c #AF8100",
"% c #B08200",
"& c #B28400",
"* c #C09100",
"= c #C19200",
"- c #D2A300",
"; c #D3A300",
": c #D9A900",
"> c #DAAA00",
", c #E1B100",
"< c #E2B200",
"1 c #E3B300",
"2 c #F2C300",
"3 c #F3C300",
"4 c #F5C500",
"5 c #F8C800",
"6 c #FCCC00",
"7 c #FDCD00",
"8 c #FECD00",
"9 c #FFCE00",
"0 c #FBE701",
"q c #FFEA01",
"w c #FFEB01",
"e c #FCEC00",
"r c #FDED00",
"t c #FFEE00",
"y c #FCFA16",
"u c #FDFC16",
"i c #FFFE17",
"p c #FBFAA2",
"a c #FCFBA4",
"s c #FFFEA6",
/* pixels */
"                                                                ",
"                                                                ",
"                                                                ",
"                                                                ",
"                                                                ",
"                                                                ",
"                                                                ",
"                                                                ",
"                                                                ",
"                                                                ",
"                                                                ",
"                                                                ",
"                                                                ",
"                                                                ",
"                             :1111:                             ",
"                             488884                             ",
"                             588885                             ",
"                             0qqqq0                             ",
"                             assssp                             ",
"                             iiiiiy                             ",
"                             rrrrrr                             ",
"                             888888                             ",
"                             333333                             ",
"                             111111                             ",
"                             111111                             ",
"                             111111                             ",
"                             111111                             ",
"                             111111                             ",
"                             111111                             ",
"                             111111                             ",
"                             ;;;;;;                             ",
"                             ======                             ",
"                             ======                             ",
"                             ======                             ",
"                             ======                             ",
"                             ======                             ",
"                             ======                             ",
"                             ======                             ",
"                             ======                             ",
"                             &&&&&&                             ",
"                             $%%%%$                             ",
"                             $%%%%$                             ",
"                             $%%%%$                             ",
"                             $%%%%$                             ",
"                             $%%%%$                             ",
"                             $%%%%$                             ",
"                             $%%%%$                             ",
"                             @$$$$$                             ",
"                             .oooo+                             ",
"                             .ooo.o                             ",
"                              ....                              ",
"                                                                ",
"                                                                ",
"                                                                ",
"                                                                ",
"                                                                ",
"                                                                ",
"                                                                ",
"                                                                ",
"                                                                ",
"                                                                ",
"                                                                ",
"                                                                ",
"                                                                "
};
