/* XPM */
static char *f04d7369c3864abcd2fb31fc1a3cac46j1Xn78tmR4ixfjO2[] = {
/* columns rows colors chars-per-pixel */
"64 64 106 2 ",
"   c None",
".  c #9F7100",
"X  c #A37400",
"o  c #A67800",
"O  c #AA7C00",
"+  c #AF8100",
"@  c #B28300",
"#  c #BB8C00",
"$  c #BF9000",
"%  c #BF9F00",
"&  c #C29300",
"*  c #C79800",
"=  c #CA9B00",
"-  c #C4A300",
";  c #CEA100",
":  c #CCA900",
">  c #D3A300",
",  c #D5AC00",
"<  c #DCAC00",
"1  c #D4B300",
"2  c #DCB303",
"3  c #DCBB00",
"4  c #D6AB1E",
"5  c #DFB61C",
"6  c #E2B200",
"7  c #E7BC02",
"8  c #EBBC00",
"9  c #F0BF00",
"0  c #D8BD2A",
"q  c #DAB439",
"w  c #E3C200",
"e  c #EDC200",
"r  c #E7CC00",
"t  c #EDCC00",
"y  c #E5C00D",
"u  c #F3C300",
"i  c #F8C700",
"p  c #F7C800",
"a  c #FDCD00",
"s  c #EDD600",
"d  c #E8DE07",
"f  c #F3D301",
"g  c #FDD201",
"h  c #F4DA00",
"j  c #FDDC00",
"k  c #FED10E",
"l  c #E5C717",
"z  c #E2C219",
"x  c #FADC1B",
"c  c #F6E400",
"v  c #FDE500",
"b  c #FEEC00",
"n  c #FEF300",
"m  c #FEFB01",
"M  c #FFE312",
"N  c #FFE618",
"B  c #FEFD15",
"V  c #EBCF2A",
"C  c #EBC639",
"Z  c #FFFD2E",
"A  c #FEEF32",
"S  c #FFE53B",
"D  c #FEEB3A",
"F  c #FFFE35",
"G  c #FEF23A",
"H  c #D6B65B",
"J  c #E6D65E",
"K  c #F6D755",
"L  c #FFE64D",
"P  c #FFE54A",
"I  c #FDE459",
"U  c #FFE85C",
"Y  c #FEF451",
"T  c #FEF658",
"R  c #FEF65A",
"E  c #DBC073",
"W  c #FFE36F",
"Q  c #FEF86C",
"!  c #FDE582",
"~  c #FFEE88",
"^  c #FEEF8A",
"/  c #FEF683",
"(  c #F7F295",
")  c #F7F098",
"_  c #FFEDA6",
"`  c #FEEFAB",
"'  c #F4F0A9",
"]  c #FEF3AD",
"[  c #FEFEA9",
"{  c #FFFEA9",
"}  c #FDEFB3",
"|  c #FFFEB4",
" . c #FFFEBA",
".. c #FEFDBE",
"X. c #FEFEBF",
"o. c #FEFBC8",
"O. c #FEFDCB",
"+. c #FDF4D0",
"@. c #F7F1DF",
"#. c #FFFDF6",
"$. c #FEFDF9",
"%. c #FFFDFA",
"&. c #FEFEFC",
"*. c #FEFEFD",
"=. c #FEFEFE",
"-. c #FFFEFE",
/* pixels */
"                                                                                                                                ",
"                                                                                                                                ",
"                                                                                                                                ",
"                                                                                                                                ",
"                                                                                                                                ",
"                                                                                                                                ",
"                                                                                                                                ",
"                                                                                                                                ",
"                                                                                                                                ",
"                                                                                                                                ",
"                                                                                                                                ",
"                                                                                                                                ",
"                                                                                                                                ",
"                                                                                                                                ",
"                                                  1 t j j j j a u 8 < 6 6 < =                                                   ",
"                                                f j v D b b v g a a p e p a a p <                                               ",
"                                            w j v Q ..Y b b b v v j a a 8 i a a a 8                                             ",
"                                          w j A O.^ x l 1 1 1 3 u g g a u 6 h b b b c                                           ",
"                                        3 j n D x 1 % 0 w w w 1 X # 8 a i 7 7 ( [ [ [ '                                         ",
"                                      : f b v t - 3 j R m m m n g < O > u 8 8 y B B B B d                                       ",
"                                      w v v r - f G ..| m v f g a a u @ # < 8 8 r b b b b :                                     ",
"                                    > e b f - f /  .Z o.j w 1 , a a a p @ & < 8 < p a a a i                                     ",
"                                    6 f j : t R F m N *.V s & ; a a a a 8 O = < 6 < u u u u ;                                   ",
"                                  > 6 p 2 3 b m m v U *.) a & ; a a a a u = @ > < > 6 6 6 6 <                                   ",
"                                  < 6 i + j m B S ^ #.*.*.+.E q k a a a 8 8 O & > > > 6 6 6 6                                   ",
"                                  < 6 * = n m M L ] $.*.$.} H 4 g a a a 8 8 = O > > = 6 6 6 6 =                                 ",
"                                * = 8 O t m v j j f J *._ a & ; a a a u 8 8 6 X & > = 6 6 6 6 <                                 ",
"                                = & > O b n a a a 3 z *.W a & ; a a a 8 8 8 8 @ @ ; * < 6 6 6 6                                 ",
"                                > & # = m j a a 7 r & @.S a & ; a a 9 8 8 8 8 & O & = > 6 6 6 6                                 ",
"                                > & @ , m g a a , , < ` P p & ; a u 8 8 8 8 8 > o # = ; 6 6 6 6                                 ",
"                                > # O 1 v a a a a a a ! I p & = u 8 8 8 8 8 8 < X # = * > > > > &                               ",
"                                > # O , t i a a a a a K v p & = 8 8 8 8 8 8 8 > X @ = & & & & & #                               ",
"                                > @ o ; e 8 8 i i p i C v p & = 8 8 8 8 8 8 6 > X @ = & & & & & #                               ",
"                                > @ O * 7 8 8 8 8 8 8 5 v p & = 8 8 8 8 8 6 < = X @ = & & & & & #                               ",
"                                > # O & 6 8 8 8 8 8 8 2 v p & = 8 8 8 8 6 < < & X @ = # & & & &                                 ",
"                                = # + # > 8 8 8 8 8 8 < v i & = 8 8 8 6 < < < # O @ = # $ & & &                                 ",
"                                & # @ O > < 8 8 8 8 8 < v i & = 8 6 < < < < > @ O @ = # $ & & $                                 ",
"                                $ # @ X ; > 6 8 8 8 8 < v i & = 6 < < < < < = o @ # & & & & & #                                 ",
"                                @ * @ O # = > 8 8 8 8 < v u & & < < < < < = & X @ & & & & & $ #                                 ",
"                                  = @ + o = = = < 6 6 > v u & & < < < < = = O O @ = @ @ @ @ @                                   ",
"                                  & # @ X # = = = > < > v 8 & & < < > = = & X @ # & + + @ + +                                   ",
"                                    * @ @ X & = = = = * j 8 & & = = = = = O O @ & # + @ @ + O                                   ",
"                                    & # @ O O = = = = & j 6 & & = = = = @ o @ @ * + + @ + +                                     ",
"                                      * @ @ o O * = = & e > @ & = = = @ X @ @ & # + @ @ + O                                     ",
"                                      # $ @ @ o o & = & # # # $ = & O X @ @ # & + + @ + O                                       ",
"                                        & # @ @ O X O # & & & # + X O @ @ @ & @ + @ + +                                         ",
"                                          & # @ @ @ O X X X X X O @ @ @ @ & @ + @ + +                                           ",
"                                            & # @ @ @ @ @ @ @ @ @ @ @ # & @ + + + +                                             ",
"                                              $ * # @ @ @ @ @ @ @ # & $ X X X . X                                               ",
"                                                  & = & & # $ & = $ O . . . X X                                                 ",
"                                                          $ # @ X . . X                                                         ",
"                                                                                                                                ",
"                                                                                                                                ",
"                                                                                                                                ",
"                                                                                                                                ",
"                                                                                                                                ",
"                                                                                                                                ",
"                                                                                                                                ",
"                                                                                                                                ",
"                                                                                                                                ",
"                                                                                                                                ",
"                                                                                                                                ",
"                                                                                                                                ",
"                                                                                                                                "
};
