/* XPM */
static char *_1709064725[] = {
/* columns rows colors chars-per-pixel */
"64 64 117 2 ",
"   c None",
".  c #12110F",
"X  c #171514",
"o  c #181716",
"O  c #171816",
"+  c #191817",
"@  c #1B1C1B",
"#  c #201E1E",
"$  c #1C211F",
"%  c #1C2522",
"&  c #1C2B26",
"*  c #1C2D29",
"=  c #15372D",
"-  c #1D332D",
";  c #1F3632",
":  c #1E3C36",
">  c #222323",
",  c #292524",
"<  c #202A27",
"1  c #262729",
"2  c #262B2B",
"3  c #2A2A2B",
"4  c #312E2C",
"5  c #28312E",
"6  c #2E3234",
"7  c #203F38",
"8  c #313336",
"9  c #3E3936",
"0  c #303639",
"q  c #333A3E",
"w  c #3E3E3F",
"e  c #403C38",
"r  c #21433D",
"t  c #214A3E",
"y  c #393D42",
"u  c #224640",
"i  c #244E46",
"p  c #3B4044",
"a  c #3C464A",
"s  c #3E494E",
"d  c #225043",
"f  c #24534A",
"g  c #26584F",
"h  c #3F4B50",
"j  c #275D53",
"k  c #305F56",
"l  c #1E614E",
"z  c #1C6953",
"x  c #22614F",
"c  c #276D59",
"v  c #37625A",
"b  c #296E62",
"n  c #2B7366",
"m  c #2C7C6E",
"M  c #30786B",
"N  c #2B7E70",
"B  c #317F71",
"V  c #3B7F76",
"C  c #424445",
"Z  c #45494F",
"A  c #424E53",
"S  c #4A4E55",
"D  c #445156",
"F  c #4A555B",
"G  c #51575F",
"H  c #4C5C63",
"J  c #53646B",
"K  c #596C75",
"L  c #5E727B",
"P  c #61757D",
"I  c #2B8E73",
"U  c #2E8F7F",
"Y  c #318E7E",
"T  c #42867C",
"R  c #498278",
"E  c #617780",
"W  c #657B84",
"Q  c #677E89",
"!  c #3C8F81",
"~  c #339382",
"^  c #329887",
"/  c #329D8A",
"(  c #3E9D8C",
")  c #2FA182",
"_  c #31A18E",
"`  c #33B08E",
"'  c #35A391",
"]  c #34AA96",
"[  c #35AD99",
"{  c #34B592",
"}  c #35B39E",
"|  c #37B8A2",
" . c #3BBAA5",
".. c #6B828D",
"X. c #6E8792",
"o. c #6F8893",
"O. c #708A95",
"+. c #4EB4A2",
"@. c #50B5A3",
"#. c #3DCBA4",
"$. c #3BC4AD",
"%. c #3ECDB5",
"&. c #46CDB7",
"*. c #42D6BD",
"=. c #4CD5BE",
"-. c #42DDC3",
";. c #43E1C7",
":. c #45E4C9",
">. c #4CE1C8",
",. c #63E8D2",
"<. c #68ECD6",
"1. c #76EEDA",
"2. c #879398",
"3. c #849AA4",
"4. c #8C9AA0",
"5. c #8EA2AA",
"6. c #8DF1E0",
/* pixels */
"                                                                                                                                ",
"                                                                                                                                ",
"                                                                                                                                ",
"                                                                                                                                ",
"                                                                                                                                ",
"                                                                                                                                ",
"                                                                                                                                ",
"                                                                                                                                ",
"                                                                                                                                ",
"                                                                                                                                ",
"                                                                                                                                ",
"                                                                                                                                ",
"                                                                                                                                ",
"                                                                                                                                ",
"                                                                                                                                ",
"                                                                                                                                ",
"                                            X X @ O O X                                                                         ",
"                                            . & [ %.n X X O o                                                                   ",
"                                              & } -.$._ ' ( ! m g ; @ X                                                         ",
"                                            X f | ;.:.;.-.>.<.6.-.I +.R 5 o                                                     ",
"                                              X r _ $.;.-.$.&.,.@.+ R 1.=.r                                                     ",
"                                                X : ] %.:.;.} $.b k 7 *.&.7                                                     ",
"                                                  % ] %.] m b U 7 R 6 ~ $.g -                                                   ",
"                                                - U $.n & 6 q % r -.v * - n  .X                                                 ",
"                                              & _ ] m % H L X.J - ^ i F 2.w j X                                                 ",
"                                              & / / % H K X.X.X.F 6 A X.O.2.o                                                   ",
"                                            X r _ b 6 h ..X.o.o.o.O.O.o.X.5.3                                                   ",
"                                            % ] ] f 1 H X.X.o.o.o.o.o.o.O.3.C                                                   ",
"                                            X : N : s J L 0 6 p J o.o.W J P C                                                   ",
"                                                X X h K 5 = x x % P ..2 - % #                                                   ",
"                                                X & y J $ z ] #.t J P * ) c X                                                   ",
"                                                  X % D % l { #.- L W < I d X                                                   ",
"                                                      @ @ @ * < p X.X.D @ X                                                     ",
"                                                          o A J K X.P K X                                                       ",
"                                                        X % > # 6 a @ >                                                         ",
"                                                      O / ~ # y 6 @ # o                                                         ",
"                                                    o $ Y 5 y F G # 9 o @ @                                                     ",
"                                                  o y S @ 1 6 A > 1 9 , 4 > X                                                   ",
"                                                  @ 8 3 @ 1 * @ f > , > @                                                       ",
"                                                  X o o @ @ T V i > o                                                           ",
"                                                      o # > % % X + o                                                           ",
"                                                    o # + X o     o                                                             ",
"                                                    X o                                                                         ",
"                                                                                                                                ",
"                                                                                                                                ",
"                                                                                                                                ",
"                                                                                                                                ",
"                                                                                                                                ",
"                                                                                                                                ",
"                                                                                                                                ",
"                                                                                                                                ",
"                                                                                                                                ",
"                                                                                                                                ",
"                                                                                                                                ",
"                                                                                                                                ",
"                                                                                                                                ",
"                                                                                                                                ",
"                                                                                                                                ",
"                                                                                                                                ",
"                                                                                                                                ",
"                                                                                                                                ",
"                                                                                                                                ",
"                                                                                                                                ",
"                                                                                                                                "
};
