/* XPM */
static char *_01709064726[] = {
/* columns rows colors chars-per-pixel */
"64 64 119 2 ",
"   c None",
".  c #171514",
"X  c #191716",
"o  c #171817",
"O  c #191917",
"+  c #1B1C1B",
"@  c #201D1B",
"#  c #16231E",
"$  c #1A211E",
"%  c #1B2321",
"&  c #1C2926",
"*  c #1D2D29",
"=  c #1B332D",
"-  c #1E3732",
";  c #1F3B35",
":  c #1F3F39",
">  c #232324",
",  c #292625",
"<  c #2D2A27",
"1  c #272729",
"2  c #242B2B",
"3  c #2A2B2B",
"4  c #22322F",
"5  c #2D3234",
"6  c #223A35",
"7  c #223F39",
"8  c #32363A",
"9  c #33383B",
"0  c #433E3B",
"q  c #21453D",
"w  c #20483C",
"e  c #46403D",
"r  c #185846",
"t  c #234C44",
"y  c #294F49",
"u  c #374044",
"i  c #3A4145",
"p  c #3B4449",
"a  c #3E494E",
"s  c #26594F",
"d  c #2F5B55",
"f  c #266654",
"g  c #246B57",
"h  c #26675C",
"j  c #286358",
"k  c #276A5E",
"l  c #286A5E",
"z  c #32605A",
"x  c #38615D",
"c  c #27755F",
"v  c #296E61",
"b  c #217A60",
"n  c #2B7568",
"m  c #307A6D",
"M  c #3A786D",
"N  c #414549",
"B  c #464849",
"V  c #454950",
"C  c #435056",
"Z  c #47565C",
"A  c #4F545C",
"S  c #53575C",
"D  c #4C5C63",
"F  c #53646C",
"G  c #56686F",
"H  c #5A6D76",
"J  c #5D727A",
"K  c #696F72",
"L  c #2D876E",
"P  c #27896E",
"I  c #2D8172",
"U  c #2E8F7F",
"Y  c #299376",
"T  c #2E907F",
"R  c #657C85",
"E  c #687F89",
"W  c #309584",
"Q  c #399383",
"!  c #349C8A",
"~  c #30A585",
"^  c #31A08E",
"/  c #30AA88",
"(  c #34AA96",
")  c #33AC98",
"_  c #36B49F",
"`  c #36B6A0",
"'  c #37BAA4",
"]  c #3ABCA6",
"[  c #3DBFA9",
"{  c #50998D",
"}  c #6A828C",
"|  c #7A8286",
" . c #6E8691",
".. c #6F8893",
"X. c #708994",
"o. c #7B929C",
"O. c #3AC9A1",
"+. c #3AC3AC",
"@. c #3DC7B0",
"#. c #3CCAB3",
"$. c #3FD6BD",
"%. c #54CAB5",
"&. c #41D3BB",
"*. c #41D8BF",
"=. c #44E8BB",
"-. c #42DCC2",
";. c #4FDDC5",
":. c #5FDCC7",
">. c #73DAC8",
",. c #44E1C6",
"<. c #44E4CA",
"1. c #4BE6CC",
"2. c #59E5CD",
"3. c #6AE4D0",
"4. c #73EBD6",
"5. c #78E8D5",
"6. c #7CEEDA",
"7. c #8096A0",
"8. c #8C9EA6",
/* pixels */
"                                                                                                                                ",
"                                                                                                                                ",
"                                                                                                                                ",
"                                                                                                                                ",
"                                                                                                                                ",
"                                                                                                                                ",
"                                                                                                                                ",
"                                                                                                                                ",
"                                                                                                                                ",
"                                                                                                                                ",
"                                                                                                                                ",
"                                                                                                                                ",
"                                                                                                                                ",
"                                                                                                                                ",
"                                                                                                                                ",
"                                                                                                                                ",
"                                          . . q s t $                                                                           ",
"                                            . h #.*.t - 7 ; - % O .                                                             ",
"                                            + T ,.<.,.,.<.2.3.:.+.Q M 4 .                                                       ",
"                                            o k ' *.<.-.#.&.4.6.Q % >.5.! +                                                     ",
"                                              . ; ^ ' <.<.+.' -.7 6 I 1.;.6                                                     ",
"                                                o t ` -.$.@.( _ = { X &.! % O                                                   ",
"                                                o b #.! t & * - q %.> h v ( ! .                                                 ",
"                                              $ m ` W & u F J 5 n &.q N K 3 n .                                                 ",
"                                            . v ) ! = a H } ..H 3 4 8 } o.| o                                                   ",
"                                            . = ( h 5 D } ......} R }  ...8.3                                                   ",
"                                            = W ( ; 8 D  ....... .....X.X.7.B                                                   ",
"                                            - ^ ( * u H } F F H } X... .R } S                                                   ",
"                                            . % t + Z H u % = * 2 } ..8 $ $ <                                                   ",
"                                                o o C F % r Y ~ - F } O P c .                                                   ",
"                                                o * 8 D % b O.=.w F } + / L .                                                   ",
"                                                  . o 5 $ = g f 2 } X.i $ O .                                                   ",
"                                                        . . 5 i F ..} } o .                                                     ",
"                                                          . 8 V C H 9 B .                                                       ",
"                                                      o t n + 1 > $ + X .                                                       ",
"                                                    X % ] h 3 V A , , X . O                                                     ",
"                                                  O N 9 * > i S B > 0 . < 8 .                                                   ",
"                                                  1 9 9 X 3 $ 1 $ > 0 . < X                                                     ",
"                                                  X @ O + + d y m 1 + X X                                                       ",
"                                                      X + 2 x z + > X                                                           ",
"                                                      + @ X . .   X .                                                           ",
"                                                    . + .         .                                                             ",
"                                                    .                                                                           ",
"                                                                                                                                ",
"                                                                                                                                ",
"                                                                                                                                ",
"                                                                                                                                ",
"                                                                                                                                ",
"                                                                                                                                ",
"                                                                                                                                ",
"                                                                                                                                ",
"                                                                                                                                ",
"                                                                                                                                ",
"                                                                                                                                ",
"                                                                                                                                ",
"                                                                                                                                ",
"                                                                                                                                ",
"                                                                                                                                ",
"                                                                                                                                ",
"                                                                                                                                ",
"                                                                                                                                ",
"                                                                                                                                ",
"                                                                                                                                ",
"                                                                                                                                "
};
