/* XPM */
static char *_1709064725[] = {
/* columns rows colors chars-per-pixel */
"64 64 130 2 ",
"   c None",
".  c #171514",
"X  c #181616",
"o  c #171817",
"O  c #191817",
"+  c #1A1B1A",
"@  c #201F1F",
"#  c #1A211E",
"$  c #1D2423",
"%  c #1B2A26",
"&  c #1D2D2A",
"*  c #1C332D",
"=  c #1E3631",
"-  c #1E3932",
";  c #1F3E38",
":  c #232324",
">  c #2B2826",
",  c #262729",
"<  c #252829",
"1  c #2A2C2D",
"2  c #2C302E",
"3  c #35312F",
"4  c #2B2F31",
"5  c #203430",
"6  c #2D3234",
"7  c #203B35",
"8  c #203F39",
"9  c #3C3836",
"0  c #323539",
"q  c #423C39",
"w  c #144335",
"e  c #1E4B3E",
"r  c #21423C",
"t  c #31433F",
"y  c #353D40",
"u  c #393C41",
"i  c #1E5747",
"p  c #284540",
"a  c #224B43",
"s  c #294C47",
"d  c #3B4347",
"f  c #3B464A",
"g  c #225047",
"h  c #235249",
"j  c #24594F",
"k  c #255D53",
"l  c #3C5D57",
"z  c #1C634F",
"x  c #286257",
"c  c #246B57",
"v  c #276258",
"b  c #276B5F",
"n  c #296A5E",
"m  c #306259",
"M  c #38605C",
"N  c #306A5F",
"B  c #25745E",
"V  c #286D61",
"C  c #396F68",
"Z  c #297362",
"A  c #434547",
"S  c #41464D",
"D  c #404B4F",
"F  c #494C4D",
"G  c #434C52",
"H  c #494D54",
"J  c #455156",
"K  c #46545A",
"L  c #4B545B",
"P  c #4A595F",
"I  c #50555D",
"U  c #4D5D63",
"Y  c #53656C",
"T  c #556971",
"R  c #5A6C75",
"E  c #5E727B",
"W  c #60757E",
"Q  c #6E7578",
"!  c #248268",
"~  c #2D896F",
"^  c #2E8475",
"/  c #2E8F7F",
"(  c #348477",
")  c #318778",
"_  c #308B7B",
"`  c #2C9578",
"'  c #2D9D7E",
"]  c #657C85",
"[  c #687F89",
"{  c #2F9583",
"}  c #359584",
"|  c #349D8B",
" . c #34A391",
".. c #33AA96",
"X. c #34AE9A",
"o. c #38AE9A",
"O. c #35BB96",
"+. c #34B39E",
"@. c #3BB39E",
"#. c #39BC98",
"$. c #37B7A2",
"%. c #38B7A2",
"&. c #37B9A4",
"*. c #39BDA7",
"=. c #39BEA8",
"-. c #439284",
";. c #6B838E",
":. c #798387",
">. c #6E8691",
",. c #6F8893",
"<. c #718A95",
"1. c #7D949E",
"2. c #42A493",
"3. c #44AC9B",
"4. c #3CCBB3",
"5. c #3ED3BB",
"6. c #43C3AD",
"7. c #40D6BD",
"8. c #44E7BB",
"9. c #42DEC4",
"0. c #5EDFC9",
"q. c #61D8C4",
"w. c #43E1C6",
"e. c #44E4CA",
"r. c #4FE1C8",
"t. c #55E4CC",
"y. c #60E8D1",
"u. c #8D999E",
"i. c #8197A0",
"p. c #8AECDC",
/* pixels */
"                                                                                                                                ",
"                                                                                                                                ",
"                                                                                                                                ",
"                                                                                                                                ",
"                                                                                                                                ",
"                                                                                                                                ",
"                                                                                                                                ",
"                                                                                                                                ",
"                                                                                                                                ",
"                                                                                                                                ",
"                                                                                                                                ",
"                                                                                                                                ",
"                                                                                                                                ",
"                                                                                                                                ",
"                                                                                                                                ",
"                                                                                                                                ",
"                                            . # v v e .                                                                         ",
"                                              o | 9. .* = = % $ X .                                                             ",
"                                            . g *.e.e.9.e.9.q.q.6.} n < .                                                       ",
"                                              % { 4.9.e.5.4.y.p.y.; -.p.2.%                                                     ",
"                                                o V X.5.e.5.+.5.3.& & t.y.@..                                                   ",
"                                                  o { 4.w.5.&.X.^ m p ) w.* .                                                   ",
"                                                . ; $.=.Z - * a < / K g  .| } $                                                 ",
"                                              X k ..$.a 1 K T f - 4.3.+ A 1 / 8                                                 ",
"                                              * ....j 4 Y ] >.;.2 r 5 L 1.u.% +                                                 ",
"                                              + ` { $ U E >.>.>.;.R E ,.,.u.F .                                                 ",
"                                            + ^ ..V : f ;.>.>.>.>.,.,.,.,.<.Q .                                                 ",
"                                            + ^ X.h 0 U >.E T E ;.,.,.<.,.>.:..                                                 ",
"                                              o = & f Y U + % % < ] ,.Y 5 < F .                                                 ",
"                                                . + y T 4 w ! ' e K ,.< h c . o                                                 ",
"                                                . % , Y $ z O.8.B D ,.: ` #.o                                                   ",
"                                                    X 4 , & Z ~ & R ,.d * - .                                                   ",
"                                                        . . : 0 K >.;.;.: X                                                     ",
"                                                          . 0 P K ] G Y O                                                       ",
"                                                        * n + @ @ < X + .                                                       ",
"                                                      + o.^ , S L > > . X X                                                     ",
"                                                    , 4 7 : u L H , q X 3 , .                                                   ",
"                                                  + H H @ , , , + : 9 : > X X                                                   ",
"                                                  X + X X @ r s ( , @ X +                                                       ",
"                                                      . + : M C < + +                                                           ",
"                                                      + : X . .   . .                                                           ",
"                                                    . + X .       .                                                             ",
"                                                    . .                                                                         ",
"                                                                                                                                ",
"                                                                                                                                ",
"                                                                                                                                ",
"                                                                                                                                ",
"                                                                                                                                ",
"                                                                                                                                ",
"                                                                                                                                ",
"                                                                                                                                ",
"                                                                                                                                ",
"                                                                                                                                ",
"                                                                                                                                ",
"                                                                                                                                ",
"                                                                                                                                ",
"                                                                                                                                ",
"                                                                                                                                ",
"                                                                                                                                ",
"                                                                                                                                ",
"                                                                                                                                ",
"                                                                                                                                ",
"                                                                                                                                ",
"                                                                                                                                "
};
