/* XPM */
static char *_1709064726[] = {
/* columns rows colors chars-per-pixel */
"64 64 124 2 ",
"   c None",
".  c #171514",
"X  c #181715",
"o  c #191817",
"O  c #1C1C1B",
"+  c #201E1E",
"@  c #17211D",
"#  c #1A211E",
"$  c #1C2522",
"%  c #1B2A25",
"&  c #1D2E2A",
"*  c #1B322C",
"=  c #1E3430",
"-  c #1F3B36",
";  c #232424",
":  c #292725",
">  c #262729",
",  c #262A2B",
"<  c #2B2B2C",
"1  c #29322F",
"2  c #203431",
"3  c #2E3234",
"4  c #233A35",
"5  c #203E38",
"6  c #343231",
"7  c #3C3836",
"8  c #33373A",
"9  c #383A3A",
"0  c #433E3A",
"q  c #1F413A",
"w  c #164E3E",
"e  c #1E483B",
"r  c #21433C",
"t  c #353E41",
"y  c #3A3E43",
"u  c #214740",
"i  c #224942",
"p  c #3B4246",
"a  c #334A45",
"s  c #3C454A",
"d  c #23564D",
"f  c #2C534E",
"g  c #255A51",
"h  c #365A56",
"j  c #1E6B55",
"k  c #256351",
"l  c #286459",
"z  c #246C5B",
"x  c #286F5B",
"c  c #34625D",
"v  c #277660",
"b  c #2A7366",
"n  c #2B7568",
"m  c #3B7A6F",
"M  c #387F72",
"N  c #424444",
"B  c #42464C",
"V  c #43494F",
"C  c #424D53",
"Z  c #445156",
"A  c #47545B",
"S  c #49575D",
"D  c #50555E",
"F  c #585C5F",
"G  c #4E5F66",
"H  c #505F66",
"J  c #52646B",
"K  c #556871",
"L  c #596C73",
"P  c #5E727B",
"I  c #63696C",
"U  c #6F767A",
"Y  c #2D8273",
"T  c #278D71",
"R  c #338477",
"E  c #368778",
"W  c #328F7F",
"Q  c #388C7D",
"!  c #2E9E7F",
"~  c #617780",
"^  c #657B85",
"/  c #687F89",
"(  c #2F9483",
")  c #329080",
"_  c #359887",
"`  c #339D8A",
"'  c #30A686",
"]  c #35AB8A",
"[  c #32A592",
"{  c #33AB97",
"}  c #35AE99",
"|  c #38AD99",
" . c #35B19D",
".. c #39B39E",
"X. c #4D9F91",
"o. c #6B838D",
"O. c #6E8792",
"+. c #6F8893",
"@. c #708994",
"#. c #768E98",
"$. c #79919B",
"%. c #41B19E",
"&. c #43B5A2",
"*. c #37C09A",
"=. c #3AC3AC",
"-. c #3CCAB2",
";. c #3ED0B7",
":. c #3FD5BC",
">. c #46CFB8",
",. c #40D5BC",
"<. c #44E9BC",
"1. c #42DFC4",
"2. c #57D8C2",
"3. c #43E1C6",
"4. c #44E4C9",
"5. c #4CE8CE",
"6. c #52E6CC",
"7. c #5BE5CE",
"8. c #63E5CF",
"9. c #6BE1CC",
"0. c #8C979D",
"q. c #8499A2",
"w. c #85EEDC",
"e. c #8BEDDC",
/* pixels */
"                                                                                                                                ",
"                                                                                                                                ",
"                                                                                                                                ",
"                                                                                                                                ",
"                                                                                                                                ",
"                                                                                                                                ",
"                                                                                                                                ",
"                                                                                                                                ",
"                                                                                                                                ",
"                                                                                                                                ",
"                                                                                                                                ",
"                                                                                                                                ",
"                                                                                                                                ",
"                                                                                                                                ",
"                                                                                                                                ",
"                                                                                                                                ",
"                                            . * n b - .                                                                         ",
"                                              #  .1.) q i u - % O . X                                                           ",
"                                            . z -.4.4.4.4.6.8.9.>._ R 4 .                                                       ",
"                                              % ( -.1.4.;.-.7.w.2.$ X.e.%.&                                                     ",
"                                                o n } :.4.:. .:.E 4 - 5.7.W .                                                   ",
"                                                  O [ ;.1.-. . .l m 1 W ,.O .                                                   ",
"                                                o d =.} d % % - $ &.a g R ` | O                                                 ",
"                                              O b } { = 8 G P a r -.Q ; H 6 Y %                                                 ",
"                                              q { [ e t K o.O.o.3 2 , K $.0.# o                                                 ",
"                                            . # ` Y > A U +.O.O.o.~ o.+.+.q.N o                                                 ",
"                                            $ ( { d , A o.+.+.+.+.+.+.+.+.#.I                                                   ",
"                                            O Y { q t G o.K G L o.+.+.+.o.o.U .                                                 ",
"                                              O * $ s K Z $ * * ; ^ @.Z $ $ 9 X                                                 ",
"                                                . O p K $ w T ' e S @.# z v .                                                   ",
"                                                . $ , J $ j *.3.k S +.O ! ] .                                                   ",
"                                                    . , ; % k x $ ^ +.s % $ .                                                   ",
"                                                        . . 3 y G @.o.o.+ .                                                     ",
"                                                          . 3 C C P y A X                                                       ",
"                                                      X r n o ; ; ; X o .                                                       ",
"                                                    X O ..n < B D : : o . X                                                     ",
"                                                  . 3 8 , $ y S V ; 0 X 6 < X                                                   ",
"                                                  + B N O > ; ; # ; 7 + : X .                                                   ",
"                                                  X o o X + f f E ; O X O                                                       ",
"                                                      X O $ h c O + o                                                           ",
"                                                      O ; . . .   . .                                                           ",
"                                                    . O X         .                                                             ",
"                                                    .                                                                           ",
"                                                                                                                                ",
"                                                                                                                                ",
"                                                                                                                                ",
"                                                                                                                                ",
"                                                                                                                                ",
"                                                                                                                                ",
"                                                                                                                                ",
"                                                                                                                                ",
"                                                                                                                                ",
"                                                                                                                                ",
"                                                                                                                                ",
"                                                                                                                                ",
"                                                                                                                                ",
"                                                                                                                                ",
"                                                                                                                                ",
"                                                                                                                                ",
"                                                                                                                                ",
"                                                                                                                                ",
"                                                                                                                                ",
"                                                                                                                                ",
"                                                                                                                                "
};
