/* XPM */
static char *_1709064726[] = {
/* columns rows colors chars-per-pixel */
"64 64 124 2 ",
"   c None",
".  c #171514",
"X  c #181615",
"o  c #171817",
"O  c #1A1817",
"+  c #1B1C1B",
"@  c #1A201E",
"#  c #152721",
"$  c #1C2422",
"%  c #1C2A27",
"&  c #1C2E2A",
"*  c #1D322D",
"=  c #1E3531",
"-  c #1D3C34",
";  c #232424",
":  c #282727",
">  c #242A2A",
",  c #2B2C2D",
"<  c #2C2E31",
"1  c #2C3133",
"2  c #2D3E3A",
"3  c #353536",
"4  c #383331",
"5  c #3C3836",
"6  c #323639",
"7  c #363A3D",
"8  c #3A3B3B",
"9  c #443F3B",
"0  c #1B4136",
"q  c #1D4438",
"w  c #20423C",
"e  c #3B3E43",
"r  c #185946",
"t  c #234C43",
"y  c #2D4C46",
"u  c #374044",
"i  c #384043",
"p  c #3B4549",
"a  c #3E494E",
"s  c #215546",
"d  c #23524A",
"f  c #26594F",
"g  c #33534F",
"h  c #2F5550",
"j  c #275D53",
"k  c #285850",
"l  c #315E57",
"z  c #1F7059",
"x  c #296156",
"c  c #2A6359",
"v  c #2D6A5F",
"b  c #286D62",
"n  c #2A7265",
"m  c #297F67",
"M  c #2A7B6D",
"N  c #2E7E70",
"B  c #41454B",
"V  c #444D53",
"C  c #465359",
"Z  c #4A575D",
"A  c #50555D",
"S  c #585C5E",
"D  c #4D5C63",
"F  c #525760",
"G  c #4F6068",
"H  c #506067",
"J  c #53656C",
"K  c #56686F",
"L  c #556870",
"P  c #586C75",
"I  c #62676A",
"U  c #6C7478",
"Y  c #26846A",
"T  c #2D8273",
"R  c #2D8979",
"E  c #338175",
"W  c #2F9075",
"Q  c #2B987A",
"!  c #657B85",
"~  c #687C85",
"^  c #677F89",
"/  c #339685",
"(  c #309987",
")  c #339C8A",
"_  c #2EA081",
"`  c #31A18E",
"'  c #33B08D",
"]  c #32A491",
"[  c #33AA96",
"{  c #34AE99",
"}  c #35B19D",
"|  c #39B19D",
" . c #3AB6A1",
".. c #39BDA6",
"X. c #478F82",
"o. c #429486",
"O. c #6B828D",
"+. c #6D8691",
"@. c #6F8893",
"#. c #718A95",
"$. c #7A919B",
"%. c #58AE9F",
"&. c #43BDA8",
"*. c #4CBCA9",
"=. c #38C39D",
"-. c #3CC4AD",
";. c #3DCCB4",
":. c #3FD4BB",
">. c #3FD9BF",
",. c #4CCDB7",
"<. c #43D6BD",
"1. c #43E6BA",
"2. c #42DCC2",
"3. c #43E2C7",
"4. c #44E5C9",
"5. c #48E9CE",
"6. c #53E5CC",
"7. c #5FE2CC",
"8. c #6AE8D3",
"9. c #72E7D3",
"0. c #7CECD9",
"q. c #89949A",
"w. c #879BA4",
"e. c #86EDDC",
/* pixels */
"                                                                                                                                ",
"                                                                                                                                ",
"                                                                                                                                ",
"                                                                                                                                ",
"                                                                                                                                ",
"                                                                                                                                ",
"                                                                                                                                ",
"                                                                                                                                ",
"                                                                                                                                ",
"                                                                                                                                ",
"                                                                                                                                ",
"                                                                                                                                ",
"                                                                                                                                ",
"                                                                                                                                ",
"                                                                                                                                ",
"                                                X                                                                               ",
"                                            . w T M 1 .                                                                         ",
"                                            . * ..4.R f j f d - $ X .                                                           ",
"                                            . T :.3.4.3.4.6.8.9.<./ o.y o                                                       ",
"                                            . * ( ;.2.3.;.-.7.0.*.X %.e.&.*                                                     ",
"                                                o M { 2.4.>.} >.x y t 5.6.c .                                                   ",
"                                                  % { <.;...` { t X.; ) -.$ o                                                   ",
"                                                + b ;.( w $ ; & * ,.2 f c )  .+                                                 ",
"                                              $ R } / % p L ! p d -.v 3 U 3 n O                                                 ",
"                                            o s [ ` * a P O.#.! 6 & < ! #.q.+ .                                                 ",
"                                            . % ] n < C ! @.@.@.O.O.@.@.@.w.8                                                   ",
"                                            * ) [ t < D O.#.#.#.@.@.@.@.@.$.S                                                   ",
"                                            @ T ] = p J O.Z C D ! @.@.@.! ~ I                                                   ",
"                                              o % + C P e # 0 - $ ! @.7 @ @ ,                                                   ",
"                                                . # a J $ r Q ' q H O.+ Y Y .                                                   ",
"                                                . $ , D $ z -.1.s H O.+ _ W .                                                   ",
"                                                    . ; @ # r t : O.#.a @ O .                                                   ",
"                                                        . . 6 V K @.~ O.+ X                                                     ",
"                                                          . 1 e a K 1 B .                                                       ",
"                                                      . d T O , ; + + O .                                                       ",
"                                                    . $ | c , V F : , X X O                                                     ",
"                                                  O e e $ ; e A B ; 9 X 4 < .                                                   ",
"                                                  ; e 6 O , + ; $ ; 5 O ; .                                                     ",
"                                                  X O O O + l c N : + X O                                                       ",
"                                                      X + ; g g + + X                                                           ",
"                                                      + + O X .   X X                                                           ",
"                                                    X O O         O                                                             ",
"                                                    X                                                                           ",
"                                                                                                                                ",
"                                                                                                                                ",
"                                                                                                                                ",
"                                                                                                                                ",
"                                                                                                                                ",
"                                                                                                                                ",
"                                                                                                                                ",
"                                                                                                                                ",
"                                                                                                                                ",
"                                                                                                                                ",
"                                                                                                                                ",
"                                                                                                                                ",
"                                                                                                                                ",
"                                                                                                                                ",
"                                                                                                                                ",
"                                                                                                                                ",
"                                                                                                                                ",
"                                                                                                                                ",
"                                                                                                                                ",
"                                                                                                                                ",
"                                                                                                                                "
};
