/* XPM */
static char *_1709064726[] = {
/* columns rows colors chars-per-pixel */
"64 64 121 2 ",
"   c None",
".  c #171514",
"X  c #181716",
"o  c #171817",
"O  c #181817",
"+  c #171D1A",
"@  c #1B1B1B",
"#  c #201E1D",
"$  c #1B211F",
"%  c #24211F",
"&  c #201F20",
"*  c #1B2522",
"=  c #1B2B26",
"-  c #1D2D2A",
";  c #153027",
":  c #1D332E",
">  c #1D3631",
",  c #1E3B34",
"<  c #222424",
"1  c #282727",
"2  c #262A2B",
"3  c #2A2B2D",
"4  c #312D2B",
"5  c #2C2F31",
"6  c #2C3234",
"7  c gray20",
"8  c #383431",
"9  c #3C3835",
"0  c #31373A",
"q  c #363A3C",
"w  c #1E4438",
"e  c #1E493C",
"r  c #20423C",
"t  c #45403C",
"y  c #3B3F44",
"u  c #1C4F40",
"i  c #234A43",
"p  c #2D4A46",
"a  c #3B4146",
"s  c #3D454A",
"d  c #3F494E",
"f  c #24544B",
"g  c #24584F",
"h  c #245C52",
"j  c #2E5951",
"k  c #375F57",
"l  c #1B6550",
"z  c #266056",
"x  c #2A6157",
"c  c #29685C",
"v  c #20745C",
"b  c #28715C",
"n  c #2A6D61",
"m  c #326B62",
"M  c #2D7165",
"N  c #317C6F",
"B  c #2C7F71",
"V  c #434D52",
"C  c #4B4E53",
"Z  c #435156",
"A  c #4A5356",
"S  c #46545A",
"D  c #4C565D",
"F  c #545759",
"G  c #4D5D64",
"H  c #535962",
"J  c #53646B",
"K  c #596C74",
"L  c #5C7179",
"P  c #61737B",
"I  c #2B826A",
"U  c #2C8374",
"Y  c #308979",
"T  c #388E7F",
"R  c #2C9A7B",
"E  c #647B84",
"W  c #677E88",
"Q  c #2F9786",
"!  c #329181",
"~  c #309987",
"^  c #319A88",
"/  c #2FA484",
"(  c #32A591",
")  c #34AA96",
"_  c #38AA96",
"`  c #34AF9A",
"'  c #36B995",
"]  c #35B19C",
"[  c #39B29E",
"{  c #36B7A1",
"}  c #39B9A3",
"|  c #419486",
" . c #4F9D8F",
".. c #6B838D",
"X. c #7D898E",
"o. c #6E8792",
"O. c #6F8893",
"+. c #708A95",
"@. c #7E949E",
"#. c #4CA999",
"$. c #5FBCAC",
"%. c #38C49E",
"&. c #3BC4AD",
"*. c #3DCCB3",
"=. c #3FD6BD",
"-. c #45C6B0",
";. c #41CFB7",
":. c #41DEB4",
">. c #49D4BD",
",. c #41D9BF",
"<. c #42DDC3",
"1. c #51D9C2",
"2. c #43E1C7",
"3. c #44E5CA",
"4. c #5EE1CB",
"5. c #52E8CF",
"6. c #74EBD7",
"7. c #73ECD8",
"8. c #7CECD9",
"9. c #869196",
"0. c #899CA5",
/* pixels */
"                                                                                                                                ",
"                                                                                                                                ",
"                                                                                                                                ",
"                                                                                                                                ",
"                                                                                                                                ",
"                                                                                                                                ",
"                                                                                                                                ",
"                                                                                                                                ",
"                                                                                                                                ",
"                                                                                                                                ",
"                                                                                                                                ",
"                                                                                                                                ",
"                                                                                                                                ",
"                                                                                                                                ",
"                                                                                                                                ",
"                                              . . .                                                                             ",
"                                            . g ! Y = .                                                                         ",
"                                            . i &.3.B n M m x i : + .                                                           ",
"                                            + Q <.3.3.3.3.5.6.6.;.T #.k +                                                       ",
"                                            . : ^ &.<.<.*.&.4.7.| . $.8.-.:                                                     ",
"                                                + U ` <.3.=.` =.r j g 3.>.,                                                     ",
"                                                  > { ,.&.) Q ( :  .X [ [ , =                                                   ",
"                                                * Y *.B - < < * i 1.6 i i T [ .                                                 ",
"                                              - ^ ] B * Z L ..a g } i A X.q x .                                                 ",
"                                            . h ` Q * S L o.o.E q 5 s ..+.9.O .                                                 ",
"                                            . , ) h 0 S ..O.O.O.O...O.O.O.0.7                                                   ",
"                                            w ( ) > 6 J o.+.O.O.O.O.O.O.+.@.A                                                   ",
"                                            * U ( - d K E d s S L O.O...K P F                                                   ",
"                                              . * + G K 5 ; u e < W o.1 = $ %                                                   ",
"                                                . * V G * l / ' , J W + R I .                                                   ",
"                                                . + 5 G $ v %.:., K ..+ R b .                                                   ",
"                                                    . * @ * w > 6 ..+.V + . .                                                   ",
"                                                          . y G L O.E W X                                                       ",
"                                                        . o 5 0 a G 1 0 .                                                       ",
"                                                      @ n Y @ 5 2 + # X X                                                       ",
"                                                    X * _ i 5 V H 1 4 . X @ .                                                   ",
"                                                  & C a $ & y F y < t . 8 3 X                                                   ",
"                                                  < 3 5 X 3 @ & < < 9 X < .                                                     ",
"                                                  . # @ @ @ m m N 1 @   X                                                       ",
"                                                      . @ < p p O @ X                                                           ",
"                                                    X # @ X . .   . .                                                           ",
"                                                    . X .         X                                                             ",
"                                                                                                                                ",
"                                                                                                                                ",
"                                                                                                                                ",
"                                                                                                                                ",
"                                                                                                                                ",
"                                                                                                                                ",
"                                                                                                                                ",
"                                                                                                                                ",
"                                                                                                                                ",
"                                                                                                                                ",
"                                                                                                                                ",
"                                                                                                                                ",
"                                                                                                                                ",
"                                                                                                                                ",
"                                                                                                                                ",
"                                                                                                                                ",
"                                                                                                                                ",
"                                                                                                                                ",
"                                                                                                                                ",
"                                                                                                                                ",
"                                                                                                                                ",
"                                                                                                                                "
};
