/* XPM */
static char *_1709064726[] = {
/* columns rows colors chars-per-pixel */
"64 64 128 2 ",
"   c None",
".  c #171514",
"X  c #181615",
"o  c #171816",
"O  c #191817",
"+  c #161F1B",
"@  c #1B1C1B",
"#  c #221F1D",
"$  c #19211F",
"%  c #23211F",
"&  c #1C2422",
"*  c #152E26",
"=  c #1B2A25",
"-  c #1C2E2A",
";  c #1D332D",
":  c #1D3631",
">  c #1E3930",
",  c #1F3E38",
"<  c #232324",
"1  c #282625",
"2  c #202926",
"3  c #272728",
"4  c #252A2A",
"5  c #2A292A",
"6  c #34302E",
"7  c #2C2E31",
"8  c #2E3234",
"9  c #2F3739",
"0  c #313336",
"q  c #30373A",
"w  c #31383B",
"e  c #403C38",
"r  c #1E4137",
"t  c #1F413A",
"y  c #1C493C",
"u  c #21433C",
"i  c #47413D",
"p  c #363E42",
"a  c #3C3E43",
"s  c #224B42",
"d  c #2A4A44",
"f  c #3E4145",
"g  c #3A4448",
"h  c #3D494D",
"j  c #24534B",
"k  c #2F5049",
"l  c #25584E",
"z  c #31504D",
"x  c #265D53",
"c  c #295D54",
"v  c #1B6550",
"b  c #266254",
"n  c #266358",
"m  c #2C645A",
"M  c #2A6D61",
"N  c #336C63",
"B  c #297266",
"V  c #217B61",
"C  c #2B7C65",
"Z  c #2C776A",
"A  c #2A7A6C",
"S  c #2B7E70",
"D  c #484A4B",
"F  c #434D53",
"G  c #435157",
"H  c #445358",
"J  c #4A555C",
"K  c #50565E",
"L  c #4B5B62",
"P  c #525860",
"I  c #54656C",
"U  c #59656A",
"Y  c #596C75",
"T  c #5B6F78",
"R  c #5C717A",
"E  c #616F77",
"W  c #2E8475",
"Q  c #2E8C7C",
"!  c #2C997B",
"~  c #627780",
"^  c #647A84",
"/  c #677E88",
"(  c #2F9584",
")  c #329887",
"_  c #329D8B",
"`  c #3E9C8B",
"'  c #2FA283",
"]  c #32A28F",
"[  c #33A693",
"{  c #33AA96",
"}  c #35AE9A",
"|  c #38AD99",
" . c #34B391",
".. c #37B6A1",
"X. c #3DB5A0",
"o. c #37B9A3",
"O. c #3BBBA5",
"+. c #4C9D8F",
"@. c #529A8D",
"#. c #6A838D",
"$. c #7B8488",
"%. c #6E8691",
"&. c #6F8893",
"*. c #708994",
"=. c #768D98",
"-. c #41BDA8",
";. c #3AC9A2",
":. c #3BC7AF",
">. c #3DCCB4",
",. c #3FD0B7",
"<. c #3FD3BA",
"1. c #40CBB4",
"2. c #41DEB3",
"3. c #40D3BA",
"4. c #55D0BB",
"5. c #41DCC2",
"6. c #70DBC9",
"7. c #44E2C7",
"8. c #44E4C9",
"9. c #49E6CC",
"0. c #59E8D0",
"q. c #66E7D1",
"w. c #6BE8D2",
"e. c #75EBD7",
"r. c #72EDD9",
"t. c #808B90",
"y. c #8398A1",
"u. c #8C9DA5",
/* pixels */
"                                                                                                                                ",
"                                                                                                                                ",
"                                                                                                                                ",
"                                                                                                                                ",
"                                                                                                                                ",
"                                                                                                                                ",
"                                                                                                                                ",
"                                                                                                                                ",
"                                                                                                                                ",
"                                                                                                                                ",
"                                                                                                                                ",
"                                                                                                                                ",
"                                                                                                                                ",
"                                                                                                                                ",
"                                                                                                                                ",
"                                                                                                                                ",
"                                          . . b A n o                                                                           ",
"                                            . Z >.<.l x c c j u = X .                                                           ",
"                                            = [ 8.8.8.8.9.0.e.q.O.+.+.d X                                                       ",
"                                            o b ..<.8.5.:.1.w.r.m $ 6.e.-.$                                                     ",
"                                              . : _ o.8.8.>.} 3.: d W 8.-.&                                                     ",
"                                                o j o.5.:.} _ [ = @.o <.) u &                                                   ",
"                                                & Q >.S ; < & & n 4.= s s _ _ .                                                 ",
"                                              - ( ..Z < G T / 8 B O.; U t.5 l .                                                 ",
"                                            . A { ( & L R &.&.R 0 4 F #.=.$..                                                   ",
"                                            . , } j p L #.&.&.&.%.%.&.*.*.u.1                                                   ",
"                                            y _ { - 8 I &.*.&.&.*.%.*.%.&.y.f                                                   ",
"                                            : ) [ & h T ^ G F L ^ *.%./ I E D                                                   ",
"                                              @ : @ L T 8 * y r 4 #.#.< ; & @                                                   ",
"                                                o $ H L $ v '  .> T R $ ' C .                                                   ",
"                                                X & 9 L & V ;.2.> T #.o ! b .                                                   ",
"                                                    . 4 @ = y t 8 #.*.F o . .                                                   ",
"                                                        . X p L T &.^ / .                                                       ",
"                                                        X X 7 q g L 3 0 .                                                       ",
"                                                      O M W @ 7 5 @ % O X                                                       ",
"                                                    @ = } s 7 F K 1 5 . o @ X                                                   ",
"                                                  < J a $ # a P f < i . 6 0 X                                                   ",
"                                                O < 3 5 o 5 @ < & < e . 1 .                                                     ",
"                                                  . # O O # N m Z 3 O   X                                                       ",
"                                                      . @ 7 z d O % X                                                           ",
"                                                    . < O X . .   .                                                             ",
"                                                  . X O X         .                                                             ",
"                                                                                                                                ",
"                                                                                                                                ",
"                                                                                                                                ",
"                                                                                                                                ",
"                                                                                                                                ",
"                                                                                                                                ",
"                                                                                                                                ",
"                                                                                                                                ",
"                                                                                                                                ",
"                                                                                                                                ",
"                                                                                                                                ",
"                                                                                                                                ",
"                                                                                                                                ",
"                                                                                                                                ",
"                                                                                                                                ",
"                                                                                                                                ",
"                                                                                                                                ",
"                                                                                                                                ",
"                                                                                                                                ",
"                                                                                                                                ",
"                                                                                                                                ",
"                                                                                                                                "
};
