/* XPM */
static char *_240609ffab44251fa8f1175661b3006P8ORHgtQVMiPxqKo[] = {
/* columns rows colors chars-per-pixel */
"64 64 200 2 ",
"   c None",
".  c #020101",
"X  c #0B0506",
"o  c #0D0608",
"O  c #0C080D",
"+  c #120A04",
"@  c #12070A",
"#  c #130A0C",
"$  c #1B0B0E",
"%  c #180608",
"&  c #19140B",
"*  c #0B0C14",
"=  c #0A0B18",
"-  c #170D15",
";  c #1B0E12",
":  c #1A0A15",
">  c #0E1415",
",  c #0C111B",
"<  c #1F1114",
"1  c #101519",
"2  c #151619",
"3  c #210F0C",
"4  c #29090E",
"5  c #25160B",
"6  c #30150C",
"7  c #331D0E",
"8  c #381A0A",
"9  c #230D12",
"0  c #280717",
"q  c #330C13",
"w  c #340B1B",
"e  c #3B0C1B",
"r  c #231116",
"t  c #2A1215",
"y  c #23131C",
"u  c #2C151C",
"i  c #251B1A",
"p  c #351311",
"a  c #32141A",
"s  c #3C181D",
"d  c #381719",
"f  c #292417",
"g  c #382E18",
"h  c #38321D",
"j  c #090E25",
"k  c #0B122B",
"l  c #0B1122",
"z  c #151B23",
"x  c #181927",
"c  c #161A28",
"v  c #0F1832",
"b  c #0F1732",
"n  c #121C35",
"m  c #1E1E36",
"M  c #2B0B24",
"N  c #350D29",
"B  c #251523",
"V  c #291726",
"C  c #2D1923",
"Z  c #2B1828",
"A  c #221A28",
"S  c #311B25",
"D  c #351E2A",
"F  c #391924",
"G  c #3C0F32",
"H  c #1E2029",
"J  c #182337",
"K  c #25242D",
"L  c #292529",
"P  c #3B212E",
"I  c #3E2F27",
"U  c #393521",
"Y  c #292A31",
"T  c #23243D",
"R  c #3E2231",
"E  c #430E18",
"W  c #431915",
"Q  c #4C1C1A",
"!  c #45181B",
"~  c #561B1D",
"^  c #4A280B",
"/  c #43240E",
"(  c #522914",
")  c #553818",
"_  c #4D2C12",
"`  c #642A15",
"'  c #652C17",
"]  c #733C12",
"[  c #430B25",
"{  c #480C26",
"}  c #471C22",
"|  c #410E31",
" . c #5A0E33",
".. c #5C1434",
"X. c #4F132C",
"o. c #621421",
"O. c #6A1B28",
"+. c #781B2B",
"@. c #69133B",
"#. c #76153C",
"$. c #492226",
"%. c #562728",
"&. c #463A29",
"*. c #412433",
"=. c #5D302C",
"-. c #672822",
";. c #544823",
":. c #6F4E20",
">. c #766A36",
",. c #1E2B43",
"<. c #272744",
"1. c #202E47",
"2. c #212F49",
"3. c #23314C",
"4. c #33394F",
"5. c #78164C",
"6. c #621746",
"7. c #7C3A42",
"8. c #3D445E",
"9. c #4A4E5A",
"0. c #7E6050",
"q. c #474E6E",
"w. c #7A7B73",
"e. c #6A6D6F",
"r. c #8B3D1D",
"t. c #831C2C",
"y. c #8E1E30",
"u. c #921E34",
"i. c #862735",
"p. c #9D2235",
"a. c #972033",
"s. c #A82439",
"d. c #B4263D",
"f. c #874915",
"g. c #91471A",
"h. c #8E561D",
"j. c #B35D1D",
"k. c #B4611B",
"l. c #BE671C",
"z. c #845C25",
"x. c #BA4C28",
"c. c #B64A27",
"v. c #B75124",
"b. c #87753A",
"n. c #AD7932",
"m. c #C46B1E",
"M. c #C3502A",
"N. c #C85529",
"B. c #D96628",
"V. c #DA6927",
"C. c #CF6B21",
"Z. c #E77A27",
"A. c #E36F28",
"S. c #8B174F",
"D. c #861849",
"F. c #941C40",
"G. c #9D1C4B",
"H. c #951B48",
"J. c #843E47",
"K. c #B42643",
"L. c #BB2646",
"P. c #B92744",
"I. c #AC2149",
"U. c #C32943",
"Y. c #C92B44",
"T. c #894049",
"R. c #A95058",
"E. c #95725E",
"W. c #AD665A",
"Q. c #997561",
"!. c #B27A67",
"~. c #C9635F",
"^. c #D07468",
"/. c #C38434",
"(. c #FF8A26",
"). c #FE8F2A",
"_. c #918847",
"`. c #A78E45",
"'. c #B4984A",
"]. c #B4A958",
"[. c #86817A",
"{. c #AD846D",
"}. c #DDBF5E",
"|. c #C5967C",
" X c #E18373",
".X c #545D82",
"XX c #576086",
"oX c #898C82",
"OX c #8E8E8E",
"+X c #999CAD",
"@X c #979BAC",
"#X c #9B9FB0",
"$X c #9CA0B0",
"%X c #EFB495",
"&X c #F1B696",
"*X c #FFC3A1",
"=X c #D4DADA",
"-X c #CBD1D0",
";X c #DAE1DF",
":X c #DFE6E4",
/* pixels */
"                                                                                                                                ",
"                                                                                                                                ",
"                                                                                                                                ",
"                                                                                                                                ",
"                                                                                                                                ",
"                                                                                                                                ",
"                                                                                                                                ",
"                                                                                                                                ",
"                                                                                                                                ",
"                                                                                                                                ",
"                                                                                                                                ",
"                                                                                                                                ",
"                                                                                                                                ",
"                                                                                                                                ",
"                                                          . . . . .                                                             ",
"                                                      . 8 k.k.k.'.]._..                                                         ",
"                                                    f `.h.7 7 7 g h f U >.                                                      ",
"                                                  f _.U i T T T T T T A >.;.                                                    ",
"                                                . `.h T <.<.<.<.<.<.<.m ) :.                                                    ",
"                                                &.h.f T <.<.<.<.<.<.<.<.z n.g                                                   ",
"                                                z.) z <.<.<.<.<.<.<.<.<.m _ b.&                                                 ",
"                                                f._ > z c <.<.<.<.<.<.<.<.= n.5                                                 ",
"                                                f.^ > 2 2 z z z T T T T T = k.5                                                 ",
"                                                ' ` 2 > > > > > 1 1 1 1 1 5 m.)                                                 ",
"                                                ` V.] ^ ^ ^ ^ ^ ^ ^ ^ ^ ^ l.).}.&                                               ",
"                                                ` M.V.A.Z.(.(.(.(.V.g.f.f.f.(.}.&                                               ",
"                                                ` M.M.M.N.B.B.B.B.' $.. # # ( /.+                                               ",
"                                                % 6 6 6 ( x.x.x.c.d T.%.X X + k.+ .                                             ",
"                                                * j j j , 3 3 3 r.j.%.J.$.=.t k.$ D y X                                         ",
"                                                l v v b k j j j - g.j./ %.7.( l.3 *.R P ;                                       ",
"                                              * J J 1.2.n b k k j d r.k.] 8 m.A.3 *.*.*.R ;                                     ",
"                                            % o.o.o.A c 2.,.n k O 7.%.%.-.` c.v.$ *.*.*.*.D .                                   ",
"                                          % y.Y.Y.Y.u.+.x 3.,.v O T.R.~.!.!.=.W S *.*.*.*.R y                                   ",
"                                          4 L.Y.Y.Y.Y.U.+.x 3.n * T.~. X&X&X|.i P *.*.*.*.*.D .                                 ",
"                                        X p.U.Y.U.P.U.Y.U.+.c 2.k a ^.%XE.&.{.i P *.*.*.*.*.R u                                 ",
"                                        q d.Y.U.D.6.K.Y.Y.u.A 1.n < W.|.Q.%X&.o P *.P P *.*.*.C .                               ",
"                                      . p.Y.U.F.[ @.L.Y.Y.Y.o.J 3.n L |.*X*XI ; R P u u P *.*.D o                               ",
"                                      p o.K.F.0 { S.L.Y.Y.Y.a.C ,.2.n L 0.0.i D *.C W p S *.*.P -                               ",
"                                    . s $ #.0 . { S.G.U.Y.Y.Y.E J 3.2.J J * . D D t Q u P *.*.P -                               ",
"                                    W } a $     N 5.S.L.Y.Y.Y.s.F ,.2.3.3., . D S p Q B *.*.R Z -                               ",
"                                    Q %.r * .   M 5.S.G.L.U.Y.Y.s.d y ,.,.= t $ 9 -.! C *.*.P B #                               ",
"                                    W ! K q..   M | 5.D.D.G.L.L.L.K.p.q q @ 9 s t # r P *.P Z B @                               ",
"                                    # K .X8..   . o N G |  . . . ...+.t.t.e # ; @ } 9 y D Z V y @                               ",
"                                    H XX9.e.    . t t 9 9 9 9 9 9 9 9 9 @ - B @ d ; ; B V V B ; X                               ",
"                                  H XX4.e.-XoX  . o @ @ @ @ @ @ @ @ @ @ X - B $ -.o B V V V y # .                               ",
"                                  O z   Y $X=XoX~ a.p.p.p.u.#.#.@.0 G @.p.e o ~ 9 B V V V y < # .                               ",
"                                          Y #X=X[.i.U.Y.Y.U.U.U.G.#.[ D.U.E . -.@ B B y r < ; .                                 ",
"                                            K +X;Xw.i.U.Y.Y.Y.Y.U.U.s.{ F.E X Q # < < < < < # .                                 ",
"                                              Y @X:Xw.i.U.Y.Y.Y.Y.Y.Y.t.[ w # @ < < < < < ; .                                   ",
"                                                K +X=XoXO.K.Y.Y.U.I.F.~ ! 9 ; < < < < < < o                                     ",
"                                                . H +X=XOXX.G.G.H.e 0 Q Q # < < < < < < o                                       ",
"                                                    K +X=XOX..D.w $ r %.W # ; ; ; ; # .                                         ",
"                                                      K @X=Xe.N # ; d a o . . . . .                                             ",
"                                                        H OX9..   . r t .                                                       ",
"                                                        . $ o .   . # $                                                         ",
"                                                        o s #                                                                   ",
"                                                        o F $                                                                   ",
"                                                                                                                                ",
"                                                                                                                                ",
"                                                                                                                                ",
"                                                                                                                                ",
"                                                                                                                                ",
"                                                                                                                                ",
"                                                                                                                                "
};
