/* XPM */
static char *_008248adb514daaec4cc8cddf265e85glmD31FUyVPhVuv6[] = {
/* columns rows colors chars-per-pixel */
"64 64 199 2 ",
"   c None",
".  c #020101",
"X  c #0A0506",
"o  c #03050D",
"O  c #0D080A",
"+  c #0A070A",
"@  c #13070A",
"#  c #130A0C",
"$  c #1B0C0E",
"%  c #160606",
"&  c #0E0D14",
"*  c #1A0616",
"=  c #150C13",
"-  c #1B0E12",
";  c #0E1314",
":  c #0B111C",
">  c #1E1114",
",  c #11141A",
"<  c #16161B",
"1  c #1A180D",
"2  c #210E0D",
"3  c #2B0D0F",
"4  c #2A140D",
"5  c #281609",
"6  c #30150C",
"7  c #361C0C",
"8  c #230D12",
"9  c #2B0A1A",
"0  c #360B16",
"q  c #221115",
"w  c #2A1215",
"e  c #23131B",
"r  c #2D1319",
"t  c #221915",
"y  c #3C1613",
"u  c #32141A",
"i  c #391718",
"p  c #38220E",
"a  c #222011",
"s  c #2B2619",
"d  c #33291B",
"f  c #35321C",
"g  c #090E25",
"h  c #070D21",
"j  c #0B122C",
"k  c #141A22",
"l  c #161927",
"z  c #0F1832",
"x  c #0F1731",
"c  c #121B36",
"v  c #141F39",
"b  c #1F1F36",
"n  c #2F0C26",
"m  c #360D29",
"M  c #251421",
"N  c #291726",
"B  c #2C1924",
"V  c #261C25",
"C  c #311B25",
"Z  c #341D2B",
"A  c #3A1A24",
"S  c #390E30",
"D  c #182235",
"F  c #1A253C",
"G  c #26272A",
"H  c #3C252B",
"J  c #202135",
"K  c #2B2C33",
"L  c #23233D",
"P  c #242838",
"I  c #3E2331",
"U  c #382A39",
"Y  c #36352E",
"T  c #451916",
"R  c #57171E",
"E  c #4A280B",
"W  c #49270E",
"Q  c #4E2011",
"!  c #482919",
"~  c #58241C",
"^  c #4C3C1C",
"/  c #66370F",
"(  c #672C17",
")  c #6D3B10",
"_  c #763914",
"`  c #460E25",
"'  c #441B21",
"]  c #4C1E23",
"[  c #551826",
"{  c #440E31",
"}  c #5A0E33",
"|  c #451135",
" . c #581339",
".. c #631522",
"X. c #69172A",
"o. c #7D1B2B",
"O. c #72182B",
"+. c #661638",
"@. c #71133D",
"#. c #51252A",
"$. c #562727",
"%. c #412433",
"&. c #4C3A30",
"*. c #652523",
"=. c #692924",
"-. c #61342F",
";. c #5E421B",
":. c #6B4A1E",
">. c #7C521F",
",. c #544035",
"<. c #6A5B2D",
"1. c #1E2C45",
"2. c #272744",
"3. c #212F49",
"4. c #202D46",
"5. c #22314C",
"6. c #2D3244",
"7. c #33354A",
"8. c #363C54",
"9. c #681648",
"0. c #75184B",
"q. c #7A3941",
"w. c #3F444F",
"e. c #434642",
"r. c #7E6050",
"t. c #485070",
"y. c #7A7D74",
"u. c #7B7B75",
"i. c #71716A",
"p. c #83381C",
"a. c #931F35",
"s. c #851E2F",
"d. c #9C2135",
"f. c #992037",
"g. c #8A2736",
"h. c #A12236",
"j. c #B4263D",
"k. c #894A15",
"l. c #954F17",
"z. c #AD5D1A",
"x. c #B65A1F",
"c. c #B4611A",
"v. c #905C22",
"b. c #B84B28",
"n. c #BB5E20",
"m. c #A64424",
"M. c #88763B",
"N. c #87672E",
"B. c #B1722A",
"V. c #C1681C",
"C. c #C4512A",
"Z. c #CA5F25",
"A. c #C04F29",
"S. c #D96628",
"D. c #DB7620",
"F. c #E67625",
"G. c #E36F28",
"H. c #84184D",
"J. c #86174F",
"K. c #991C49",
"L. c #823D45",
"P. c #8D2048",
"I. c #A72149",
"U. c #B42446",
"Y. c #BC2746",
"T. c #BD2845",
"R. c #C42943",
"E. c #C92B44",
"W. c #9F5A51",
"Q. c #A74F58",
"!. c #866755",
"~. c #A67F69",
"^. c #C6615E",
"/. c #CC7367",
"(. c #C98735",
"). c #FF8A26",
"_. c #958947",
"`. c #9A914C",
"'. c #B49446",
"]. c #B4A958",
"[. c #84817C",
"{. c #B38971",
"}. c #ECC760",
"|. c #565F84",
" X c #586188",
".X c #747680",
"XX c #7D8291",
"oX c #8B8983",
"OX c #9B9FB0",
"+X c #9DA1B2",
"@X c #CE9C81",
"#X c #D1A083",
"$X c #F2B596",
"%X c #EFB294",
"&X c #FFC3A1",
"*X c #D4DBD9",
"=X c #D2D8D7",
"-X c #DBE2DF",
";X c #DDE5E2",
/* pixels */
"                                                                                                                                ",
"                                                                                                                                ",
"                                                                                                                                ",
"                                                                                                                                ",
"                                                                                                                                ",
"                                                                                                                                ",
"                                                                                                                                ",
"                                                                                                                                ",
"                                                                                                                                ",
"                                                                                                                                ",
"                                                                                                                                ",
"                                                                                                                                ",
"                                                                                                                                ",
"                                                                                                                                ",
"                                                        . . . . .                                                               ",
"                                                    . 5 z.c.c.'.].`.+                                                           ",
"                                                  1 _.v.p 7 7 d f s f M.                                                        ",
"                                                a _.Y t L L L L L L J <.<.                                                      ",
"                                                M.^ b 2.2.2.2.2.2.2.J ! >.                                                      ",
"                                              f v.d L 2.2.2.2.2.2.2.2.l N.^                                                     ",
"                                              :.:.< L 2.2.2.2.2.2.2.2.L d M.s                                                   ",
"                                              / ) ; k l 2.2.2.2.2.2.2.2.k B.p                                                   ",
"                                              / ) ; , < k k k J L L L L , c.7                                                   ",
"                                              Q _ > ; ; ; ; ; , , , , , t V.;.                                                  ",
"                                              Q S._ E E E E E E E E E E z.).}.a                                                 ",
"                                              Q C.S.G.F.).).).).G.l.k.k.k.D.}.a                                                 ",
"                                              Q C.C.C.C.S.S.S.S.( #.X # # W (.5                                                 ",
"                                              % 6 6 6 T b.b.b.A.y L.-.X X . c.5 . .                                             ",
"                                              o g g g h 2 2 2 p.n.~ L.#.#.w c.5 Z e                                             ",
"                                              : z z x j g g g & p.n.W $.q.! V.6 I I e                                           ",
"                                            o D D 4.5.v z j j h u p.z.k.y x.F.6 I %.%.=                                         ",
"                                            % ....N l 3.1.c j o q.$.#.=.( m.Z.4 I %.%.B X                                       ",
"                                          % a.E.E.f.o.l 5.1.c o L.Q.^./.~.-.T C %.%.%.%.O                                       ",
"                                          3 E.E.E.E.E.s.l 5.F o q.^./.$X$X#Xs Z %.%.%.%.C X                                     ",
"                                        % h.E.E.T.Y.E.R.s.k 3.j e ^.%X~.&.{.H Z H %.%.%.I X                                     ",
"                                        0 j.E.K.9.0.Y.E.h.M 1.v = W.@X!.$X,.C C w Z %.%.I #                                     ",
"                                      . O.T.K.` +.T.E.E.E.o.l 5.v V {.&X&X&.B $ *.= %.%.I M .                                   ",
"                                      . y X.+.9 I.E.E.E.E.h.A 1.5.v G r.r.H e T i B %.%.I M .                                   ",
"                                      T $.u n  .K.T.E.E.E.E.R D 5.5.F D : B $ *.# %.%.%.Z M .                                   ",
"                                    . *.] u * 9.J.U.E.E.E.E.j.i F 3.5.5.k O ~ =.- %.%.%.C M .                                   ",
"                                    . *.] X   n 0.J.U.T.T.R.E.j.T e F 1.: - 2 2 C %.I Z N > .                                   ",
"                                    . ~ ' + , * | 0.H.H.J.K.Y.Y.U.f.0 9 + . r u # I Z N M - .                                   ",
"                                    . r r 6.t.X # n S S { } } } } +.o.X.* 2 w 8 - Z N N e # .                                   ",
"                                      $ 7.|.P $ ' w 8 8 8 8 8 8 8 8 8 # . *.2 = N N N M > .                                     ",
"                                      8. Xw.y.X @ @ @ @ @ @ @ @ @ @ @ X . *.2 M N N M q > .                                     ",
"                                    6.|.6.XX=Xy.[ d.d.d.a.@.@.@.@.a.d...y y e N N M q > X                                       ",
"                                    + &   K +X*Xu.g.K.R.E.R.I.0.0.J.T.o.y 3 > e q > > - X                                       ",
"                                            K +X-Xi.+.U.E.E.E.P. .9.K.o.. $ > > > > > X                                         ",
"                                              K +X;Xu.+.U.E.E.E...{ H.O.@ > > > > > - X                                         ",
"                                                K +X*X[.} U.E.E.R.O.S { @ > > > - O X                                           ",
"                                                0 U +X*XoX} U.E.R 3 X @ . X X X X                                               ",
"                                                @ m U OX=XoX+.` i R %                                                           ",
"                                              X w 8 m U +X*Xu.u A ] ~ .                                                         ",
"                                              y *.A O   G OX;Xe.w ] =..                                                         ",
"                                              y *.r X     K .XG . ' =..                                                         ",
"                                              8 ] @               $ 4 .                                                         ",
"                                              X @ .                                                                             ",
"                                                                                                                                ",
"                                                                                                                                ",
"                                                                                                                                ",
"                                                                                                                                ",
"                                                                                                                                ",
"                                                                                                                                ",
"                                                                                                                                "
};
