/* XPM */
static char *_ce4ba0a9bee440d8597c115f724bba2LQSaQ7aq31hyzy9r[] = {
/* columns rows colors chars-per-pixel */
"64 64 197 2 ",
"   c None",
".  c #030102",
"X  c #0A0406",
"o  c #0E060A",
"O  c #0D080C",
"+  c #06070A",
"@  c #130B04",
"#  c #13070A",
"$  c #130B0D",
"%  c #1B0B0D",
"&  c #180707",
"*  c #17160B",
"=  c #0B0C13",
"-  c #0A0B18",
";  c #1C0D12",
":  c #190B15",
">  c #0E1415",
",  c #0C111B",
"<  c #1F1114",
"1  c #101519",
"2  c #151517",
"3  c #210D0C",
"4  c #23070B",
"5  c #25160B",
"6  c #30150C",
"7  c #331D0E",
"8  c #381A0A",
"9  c #220C12",
"0  c #2D0B14",
"q  c #280616",
"w  c #350C13",
"e  c #211217",
"r  c #2A1215",
"t  c #22131B",
"y  c #2E151C",
"u  c #261C1B",
"i  c #39151D",
"p  c #38181B",
"a  c #292417",
"s  c #382E18",
"d  c #38321D",
"f  c #090E25",
"g  c #0B122B",
"h  c #0B1122",
"j  c #151B23",
"k  c #181927",
"l  c #161B2A",
"z  c #0F1832",
"x  c #0F1732",
"c  c #121C35",
"v  c #1E1E36",
"b  c #2A0B23",
"n  c #3B0B25",
"m  c #330B27",
"M  c #261523",
"N  c #291726",
"B  c #251824",
"V  c #2B1B28",
"C  c #321B25",
"Z  c #351D2C",
"A  c #351420",
"S  c #390E30",
"D  c #182337",
"F  c #2A2327",
"G  c #3C212F",
"H  c #393521",
"J  c #23243D",
"K  c #202331",
"L  c #3D2231",
"P  c #470F18",
"I  c #430E17",
"U  c #461B16",
"Y  c #55161C",
"T  c #4A280B",
"R  c #43240E",
"E  c #562519",
"W  c #553818",
"Q  c #4D2C12",
"!  c #642A15",
"~  c #652C17",
"^  c #733C12",
"/  c #460C2A",
"(  c #481626",
")  c #5B1229",
"_  c #5B0E34",
"`  c #481337",
"'  c #5C1539",
"]  c #490E31",
"[  c #651522",
"{  c #7D1C2C",
"}  c #721A2A",
"|  c #671238",
" . c #77153F",
".. c #492226",
"X. c #572927",
"o. c #463829",
"O. c #412433",
"+. c #423D3A",
"@. c #5D302C",
"#. c #662522",
"$. c #662E22",
"%. c #702927",
"&. c #3F403C",
"*. c #544823",
"=. c #6F4E20",
"-. c #766A36",
";. c #1E2B43",
":. c #272744",
">. c #202E47",
",. c #212F49",
"<. c #23314C",
"1. c #383B49",
"2. c #501340",
"3. c #78174B",
"4. c #6E164C",
"5. c #7C3A42",
"6. c #4F4E5A",
"7. c #50535F",
"8. c #524E51",
"9. c #624545",
"0. c #664949",
"q. c #6F504F",
"w. c #7E6050",
"e. c #444C6A",
"r. c #575766",
"t. c #4A5373",
"y. c #675D6D",
"u. c #696D6F",
"i. c #8B3D1D",
"p. c #8F1D37",
"a. c #921F35",
"s. c #811B2B",
"d. c #9E2235",
"f. c #972033",
"g. c #AA253A",
"h. c #A42337",
"j. c #874915",
"k. c #91471A",
"l. c #8E561D",
"z. c #B35D1D",
"x. c #B4611B",
"c. c #BE671C",
"v. c #845C25",
"b. c #BA4C28",
"n. c #B64A27",
"m. c #B75124",
"M. c #87753A",
"N. c #AD7932",
"B. c #C46B1E",
"V. c #C3502A",
"C. c #C85529",
"Z. c #D96628",
"A. c #DA6927",
"S. c #CF6B21",
"D. c #E77A27",
"F. c #E36F28",
"G. c #85194C",
"H. c #86174A",
"J. c #9A1C4C",
"K. c #961C43",
"L. c #843E47",
"P. c #AC2149",
"I. c #AC2545",
"U. c #B42645",
"Y. c #BC2646",
"T. c #BE2845",
"R. c #B02348",
"E. c #C42943",
"W. c #C92B44",
"Q. c #894049",
"!. c #A95058",
"~. c #95725E",
"^. c #AD665A",
"/. c #997561",
"(. c #B27A67",
"). c #C9635F",
"_. c #D07468",
"`. c #C38434",
"'. c #FF8A26",
"]. c #FE8F2A",
"[. c #918847",
"{. c #A78E45",
"}. c #B4984A",
"|. c #B4A958",
" X c #AD846D",
".X c #DDBF5E",
"XX c #C5967C",
"oX c #E18373",
"OX c #AAAFBA",
"+X c #EFB495",
"@X c #F1B696",
"#X c #FFC3A1",
"$X c #BEC2CE",
"%X c #C6CDC5",
"&X c #C8CFC7",
"*X c #C9D1C8",
"=X c #C1C6D2",
/* pixels */
"                                                                                                                                ",
"                                                                                                                                ",
"                                                                                                                                ",
"                                                                                                                                ",
"                                                                                                                                ",
"                                                                                                                                ",
"                                                                                                                                ",
"                                                                                                                                ",
"                                                                                                                                ",
"                                                                                                                                ",
"                                                                                                                                ",
"                                                                                                                                ",
"                                                                                                                                ",
"                                                                                                                                ",
"                                                          . . . . .                                                             ",
"                                                      . 8 x.x.x.}.|.[..                                                         ",
"                                                    a {.l.7 7 7 s d a H -.                                                      ",
"                                                  a [.H u J J J J J J B -.*.                                                    ",
"                                                . {.d J :.:.:.:.:.:.:.v W =.                                                    ",
"                                                o.l.a J :.:.:.:.:.:.:.:.j N.s                                                   ",
"                                                v.W j :.:.:.:.:.:.:.:.:.v Q M.*                                                 ",
"                                                j.Q > j l :.:.:.:.:.:.:.:.- N.5                                                 ",
"                                                j.T > 1 1 j j j J J J J J - x.5                                                 ",
"                                                ~ ! 2 > > > > > 1 1 1 1 1 5 B.W                                                 ",
"                                                ! A.^ T T T T T T T T T T c.]..X*                                               ",
"                                                ! V.A.F.D.'.'.'.'.A.k.j.j.j.'..X*                                               ",
"                                                ! V.V.V.C.Z.Z.Z.Z.~ ..X # $ Q `.@                                               ",
"                                                & 6 6 6 E b.b.b.n.p Q.X.X X @ x.@                                               ",
"                                                = f f f , 3 3 3 i.z.X.L...@.r x.@ X                                             ",
"                                                h z z x g f f f : k.z.R X.5.E c.3 C X                                           ",
"                                              = D D >.,.c x g g f p i.x.^ 8 B.A.3 O.t                                           ",
"                                              4 [ [ B l <.;.c g O 5.X.X.$.! n.m.% O.C o                                         ",
"                                              P W.W.a.} k <.;.z O Q.!.).(.(.@.U C O.O.:                                         ",
"                                              P W.W.W.E.{ k <.c = Q.).oX@X@XXXu G O.O.Z o                                       ",
"                                              Y W.W.E.T.E.} l ,.g y _.+X~.o. Xu G O.O.O.$                                       ",
"                                            0 E.W.U. .3.E.a.B >.c < ^.XX/.+Xo.3 C O.O.O.:                                       ",
"                                            0 W.U.' n K.W.W.[ D <.c F XX#X#Xo.#.% O.O.O.V X                                     ",
"                                          & { U.' n H.E.W.W.f.N ;.,.c F w.w.X.U y O.O.O.V X                                     ",
"                                          X w ) n _ P.W.W.W.W.I D <.,.D D = #.% G O.O.Z N X                                     ",
"                                          & E 0 m 4.J.E.W.W.W.g.A ;.,.<.<., E 9 G O.O.Z M X                                     ",
"                                        X #.( r b 2.3.J.Y.T.T.W.g.i t ;.;.- % Z O.O.Z N t .                                     ",
"                                        X %.( r = = ` 3.G.G.G.P.Y.U.p.w 9 X C L G Z N M < .                                     ",
"                                        X X.i B e.K b S S S ] _ _ _ | s.) $ N Z N N N t $ .                                     ",
"                                          % M e.t.B 9 9 9 9 9 9 9 9 9 9 # O M N N N M e X                                       ",
"                                          = t.t.u.+.# # # # # # # # # # X : N N N M e < X                                       ",
"                                        + e.t.1.OX&X+.{ d.p. .| p.d.d.d.Y : N N M e < o                                         ",
"                                        . = =   r.=X&X9.g.W.P.3.G.U.W.W.[ : M t e < ; X                                         ",
"                                                % y.$X&X9.h.W.J.4.' I.W.[ $ < < < < #                                           ",
"                                                ) ( r.$X&X0.h.R.H./ ] I.[ $ < < < : X                                           ",
"                                                ) G.` r.=X&Xq.h.J.H./ ] ( $ < ; o X                                             ",
"                                                4 p.H.` 6.=X&X9.0 q % X o . X X                                                 ",
"                                                . 4 9 ; y 6.$X*X&.p Y .                                                         ",
"                                                ; i i i ( e 7.$X*X8.E .                                                         ",
"                                                % y y p Y . . r.$X%X> .                                                         ",
"                                                . . . .         7.u.+ .                                                         ",
"                                                                . ; % .                                                         ",
"                                                                  o o .                                                         ",
"                                                                                                                                ",
"                                                                                                                                ",
"                                                                                                                                ",
"                                                                                                                                ",
"                                                                                                                                ",
"                                                                                                                                ",
"                                                                                                                                "
};
