/* XPM */
static char *feee0f2ce7ed44c09edf69ecc6c95841vMC5xpiu4zm3mogG[] = {
/* columns rows colors chars-per-pixel */
"64 64 198 2 ",
"   c None",
".  c #020101",
"X  c #0A0506",
"o  c #0C0609",
"O  c #0B090B",
"+  c #070809",
"@  c #160905",
"#  c #15090C",
"$  c #1C090C",
"%  c #1A080A",
"&  c #1A150A",
"*  c #070C1E",
"=  c #0B0D1C",
"-  c #0D0E13",
";  c #170611",
":  c #130B12",
">  c #1C0D12",
",  c #180B19",
"<  c #0F101D",
"1  c #1F1114",
"2  c #111619",
"3  c #1A101A",
"4  c #13181E",
"5  c #27080D",
"6  c #24070E",
"7  c #351E0A",
"8  c #30150C",
"9  c #260C18",
"0  c #3A0C14",
"q  c #221215",
"w  c #291015",
"e  c #24141D",
"r  c #2A171B",
"t  c #33151C",
"y  c #3C1618",
"u  c #2E190C",
"i  c #2F2A15",
"p  c #342817",
"a  c #070D20",
"s  c #080E24",
"d  c #0B132D",
"f  c #0E1520",
"g  c #161B23",
"h  c #1B1E2B",
"j  c #171B29",
"k  c #1F1F37",
"l  c #151F39",
"z  c #0F1832",
"x  c #2A0A22",
"c  c #390D2A",
"v  c #251522",
"b  c #2A1726",
"n  c #2A1C26",
"m  c #3C102E",
"M  c #351D2C",
"N  c #321825",
"B  c #201F37",
"V  c #3B1535",
"C  c #1B263C",
"Z  c #19243A",
"A  c #272827",
"S  c #3C212F",
"D  c #2F302D",
"F  c #37362A",
"G  c #22223B",
"H  c #28293B",
"J  c #3F2332",
"K  c #491D0F",
"L  c #421A0E",
"P  c #471A18",
"I  c #45260C",
"U  c #442817",
"Y  c #592615",
"T  c #57300E",
"R  c #64360F",
"E  c #642C15",
"W  c #693516",
"Q  c #713D11",
"!  c #7E341D",
"~  c #732F19",
"^  c #441D22",
"/  c #4B1D22",
"(  c #491420",
")  c #410E31",
"_  c #590F33",
"`  c #451139",
"'  c #4E113A",
"]  c #521232",
"[  c #641725",
"{  c #7D1B2C",
"}  c #6B1337",
"|  c #71143C",
" . c #5A2625",
".. c #412433",
"X. c #453A3D",
"o. c #5D2C32",
"O. c #672622",
"+. c #682622",
"@. c #72353C",
"#. c #753F3B",
"$. c #6D2C33",
"%. c #58451F",
"&. c #784112",
"*. c #494424",
"=. c #5A4D33",
"-. c #7E433F",
";. c #75503F",
":. c #6B5132",
">. c #736C39",
",. c #1E2B44",
"<. c #1A2640",
"1. c #272744",
"2. c #212F49",
"3. c #22314C",
"4. c #2C3044",
"5. c #31374C",
"6. c #5C1340",
"7. c #5D164B",
"8. c #69164C",
"9. c #7A174E",
"0. c #7A1646",
"q. c #543A44",
"w. c #4D3F47",
"e. c #7D3B42",
"r. c #3C4157",
"t. c #51535E",
"y. c #4F424A",
"u. c #785B4B",
"i. c #585A67",
"p. c #474E60",
"a. c #605D6B",
"s. c #636273",
"d. c #861C32",
"f. c #8C1E30",
"g. c #911F31",
"h. c #952032",
"j. c #9F2236",
"k. c #963D20",
"l. c #AB243A",
"z. c #A32337",
"x. c #B5273D",
"c. c #BC283F",
"v. c #944B19",
"b. c #8C501A",
"n. c #AC5A1B",
"m. c #A65F1C",
"M. c #B4611B",
"N. c #975F22",
"B. c #B24A25",
"V. c #B65522",
"C. c #A24222",
"Z. c #9B6C2C",
"A. c #B67C31",
"S. c #C86C1D",
"D. c #C3502A",
"F. c #C85D25",
"G. c #D35F29",
"H. c #D36924",
"J. c #E36F28",
"K. c #EB7A26",
"L. c #8C174F",
"P. c #84184D",
"I. c #981C4C",
"U. c #A21F4A",
"Y. c #A92147",
"T. c #B52544",
"R. c #BB2646",
"E. c #BD2840",
"W. c #C52A44",
"Q. c #C92B44",
"!. c #845F50",
"~. c #8A4441",
"^. c #B5575B",
"/. c #A24C57",
"(. c #93705D",
"). c #836F4A",
"_. c #A67B66",
"`. c #C7665F",
"'. c #D06761",
"]. c #B58A3E",
"[. c #FE8926",
"{. c #F88426",
"}. c #968A47",
"|. c #AE9247",
" X c #B38971",
".X c #FBAD46",
"XX c #D2987F",
"oX c #576187",
"OX c #7E828B",
"+X c #AAADB5",
"@X c #E99B84",
"#X c #FDBF9E",
"$X c #E5AD8F",
"%X c #BDC4BB",
"&X c #C1C9BF",
"*X c #C3CBC1",
"=X c #C5C9D4",
"-X c #C5CAD5",
/* pixels */
"                                                                                                                                ",
"                                                                                                                                ",
"                                                                                                                                ",
"                                                                                                                                ",
"                                                                                                                                ",
"                                                                                                                                ",
"                                                                                                                                ",
"                                                                                                                                ",
"                                                                                                                                ",
"                                                                                                                                ",
"                                                                                                                                ",
"                                                                                                                                ",
"                                                                                                                                ",
"                                                                                                                                ",
"                                                        . Q v.v.N.}.}.i .                                                       ",
"                                                      =.A.R I I U *.*.& ).&                                                     ",
"                                                    *.>.p n k k k k k B F }.X                                                   ",
"                                                  i |.g G 1.1.1.1.1.1.1.e N.i                                                   ",
"                                                  %.b.j 1.1.1.1.1.1.1.1.G p |..                                                 ",
"                                                & ].O G 1.1.1.1.1.1.1.1.1.n b.*.                                                ",
"                                                & M.+ g h G 1.1.1.1.1.1.1.G U Z.                                                ",
"                                                @ M.+ 4 4 g g g h 1.1.1.1.k I v.                                                ",
"                                                @ v.& 2 2 2 2 2 2 4 4 4 4 2 T m.&                                               ",
"                                                @ B.n.7 7 7 7 7 7 7 7 7 7 T K..X>.                                              ",
"                                                @ B.G.K.K.{.[.[.[.{.S.M.M.M.S..X>.                                              ",
"                                                @ B.D.D.D.H.J.J.J.V. .# X O u A.:.                                              ",
"                                                X L K K K C.D.D.D.~ o.@.> X X R Q                                               ",
"                                                . * a a a q 8 8 Y V.W e.@.w o.R Q                                               ",
"                                                . d d d d s s s = Y F.W U @.@.&.Q                                               ",
"                                                . Z C 2.Z z d d s 3 ~ n.n.K E K.Q .                                             ",
"                                              0 0 0 t Z ,.3.l d * ^ o.t U ! k.G.W O                                             ",
"                                            . h.Q.Q.l.[ N ,.3.l * ^ /.^.`.!.;.E y M o                                           ",
"                                            . h.Q.Q.Q.Q.j.b ,.,.a ^ ^.'.@X#X$Xu.e ..b .                                         ",
"                                            . h.Q.Q.T.} f.z.e ,.Z < ~.@X$X=.u.(.e ..S X                                         ",
"                                            . h.Q.R.| x 0.T.y C ,.* $.@Xu.XX Xr S ..S o                                         ",
"                                            . h.Q.Y.] c 9.R.l.3 3.C < -.XX#X X> ....J v .                                       ",
"                                            . [ d.| , 8.L.R.c.( Z 3.<.= #._.!.e ....J v .                                       ",
"                                            . 8 w c ) 9.L.U.Q.z.- 3.3.<.j f # ......M v .                                       ",
"                                            . +.^ ; 7.9.L.L.R.c.[ h 3.3.3.C : ......n v .                                       ",
"                                            . +.^ ; ` , _ L.I.W.E.[ : C 2.Z # ....M b e .                                       ",
"                                            .  .^ o H 5.c 9.P.I.R.T.l.P 9 : # J M b v > .                                       ",
"                                              w r H oX4.x ` ` ' } } d.g.d.m > M b v q # .                                       ",
"                                              . H oXp.D X # # # # # # # # o b b v q > .                                         ",
"                                              4.oXr.OX%XX.> > > > > > > $ o v e q 1 > .                                         ",
"                                            . g h - i.-X*XD ] } f.f.f.f.{ % q 1 1 1 o                                           ",
"                                                  $ { a.-X*Xq.0.U.Q.Q.Q.x.$ 1 1 1 1 .                                           ",
"                                                  5 T.] s.=X&Xq.0.U.Q.Q.x.$ 1 1 1 X                                             ",
"                                                  5 R.P.m s.=X*XX.6.Y.Q.x.$ 1 1 > X                                             ",
"                                                  5 Q.Y.9.c s.=X*Xw.6.U.{ $ > # X                                               ",
"                                                  5 Q.R.I.8.V i.-X%Xy.6.; X X                                                   ",
"                                                  5 Q.Q.U.8.9 O t.-X*XX.                                                        ",
"                                                    5 5 6 ; w y  .i.=X*XA                                                       ",
"                                                          . t / O.+ i.+XA                                                       ",
"                                                          . w / O..   X .                                                       ",
"                                                            . / O..                                                             ",
"                                                            . / O..                                                             ",
"                                                              # $ .                                                             ",
"                                                                                                                                ",
"                                                                                                                                ",
"                                                                                                                                ",
"                                                                                                                                ",
"                                                                                                                                ",
"                                                                                                                                ",
"                                                                                                                                "
};
