/* XPM */
static char *_68a85b48b3143acaf4ba056b0522aebQPGETT528wwGIpUs[] = {
/* columns rows colors chars-per-pixel */
"64 64 244 2 ",
"   c #0B0406",
".  c #140202",
"X  c #1B0204",
"o  c #1B0B03",
"O  c #130C0D",
"+  c #1B0C0D",
"@  c #180509",
"#  c #1B1308",
"$  c #090A12",
"%  c #1A0C12",
"&  c #150B18",
"*  c #1C1314",
"=  c #1D141A",
"-  c #181616",
";  c #071419",
":  c #250002",
">  c #2B0102",
",  c #2A0D00",
"<  c #26090B",
"1  c #330103",
"2  c #390208",
"3  c #271208",
"4  c #240213",
"5  c #2C0C13",
"6  c #260A17",
"7  c #360816",
"8  c #241415",
"9  c #2C1B1C",
"0  c #27161A",
"q  c #3B131B",
"w  c #36181A",
"e  c #242518",
"r  c #37271A",
"t  c #1C0D20",
"y  c #091326",
"u  c #121625",
"i  c #181C34",
"p  c #0B102D",
"a  c #370B26",
"s  c #231422",
"d  c #2C1B24",
"f  c #241C2A",
"g  c #281A2A",
"h  c #3D1B23",
"j  c #381728",
"k  c #291B36",
"l  c #391A35",
"z  c #250E22",
"x  c #1A2528",
"c  c #1C2537",
"v  c #272728",
"b  c #342224",
"n  c #35232C",
"m  c #39282A",
"M  c #2C2B39",
"N  c #2A2635",
"B  c #332433",
"V  c #3B2234",
"C  c #382A38",
"Z  c #2A3239",
"A  c #373334",
"S  c #303028",
"D  c #450C01",
"F  c #530608",
"G  c #4C1706",
"H  c #541803",
"J  c #490315",
"K  c #461519",
"L  c #55111D",
"P  c #681F06",
"I  c #66081F",
"U  c #62101E",
"Y  c #582703",
"T  c #4E2512",
"R  c #582A16",
"E  c #4A311B",
"W  c #4D2E13",
"Q  c #642302",
"!  c #683218",
"~  c #461A22",
"^  c #551924",
"/  c #461A36",
"(  c #5A1A34",
")  c #4F0929",
"_  c #65192A",
"`  c #641935",
"'  c #700F2C",
"]  c #47262B",
"[  c #572C27",
"{  c #5A3D20",
"}  c #4C2232",
"|  c #442538",
" . c #582736",
".. c #493838",
"X. c #4C3731",
"o. c #622632",
"O. c #772836",
"+. c #683C3B",
"@. c #743633",
"#. c #564523",
"$. c #474735",
"%. c #514939",
"&. c #79472C",
"*. c #755533",
"=. c #574919",
"-. c #181C42",
";. c #201F47",
":. c #252745",
">. c #332944",
",. c #33364A",
"<. c #751B45",
"1. c #553349",
"2. c #6D2843",
"3. c #732847",
"4. c #6F3846",
"5. c #33444C",
"6. c #484747",
"7. c #584951",
"8. c #545457",
"9. c #55504B",
"0. c #665B57",
"q. c #704B4B",
"w. c #736556",
"e. c #72694F",
"r. c #5B5A66",
"t. c #475862",
"y. c #58626B",
"u. c #6A6665",
"i. c #766A6A",
"p. c #7A7466",
"a. c #7B7673",
"s. c #901432",
"d. c #883237",
"f. c #882B35",
"g. c #AB323A",
"h. c #8E4D32",
"j. c #A85936",
"k. c #B4592A",
"l. c #94663A",
"z. c #AA6635",
"x. c #D06837",
"c. c #9A1F45",
"v. c #881C47",
"b. c #8A2843",
"n. c #972946",
"m. c #8D344E",
"M. c #99334C",
"N. c #9A2654",
"B. c #A92C47",
"V. c #BD254D",
"C. c #B92A46",
"Z. c #A8324A",
"A. c #B63649",
"S. c #B62B53",
"D. c #A63754",
"F. c #B73557",
"G. c #A92B54",
"H. c #C72B48",
"J. c #C5324B",
"K. c #C52C56",
"L. c #D72D51",
"P. c #C23655",
"I. c #C13B60",
"U. c #98514A",
"Y. c #A2404F",
"T. c #8B7454",
"R. c #92664E",
"E. c #A56746",
"W. c #B67259",
"Q. c #AE6C4C",
"!. c #8A5467",
"~. c #847777",
"^. c #926F6F",
"/. c #A26565",
"(. c #AA7670",
"). c #C47C49",
"_. c #9E854F",
"`. c #BE8243",
"'. c #898573",
"]. c #928A7F",
"[. c #B0986B",
"{. c #CF9A4E",
"}. c #EA8D53",
"|. c #EE9154",
" X c #D49C6C",
".X c #E1C174",
"XX c #727C88",
"oX c #8C7881",
"OX c #A77C85",
"+X c #7C8687",
"@X c #898386",
"#X c #99999A",
"$X c #948C89",
"%X c #A59E8D",
"&X c #A89A9A",
"*X c #B4828E",
"=X c #AEA59A",
"-X c #939BA4",
";X c #AB9BA7",
":X c #B097AE",
">X c #9FA7A9",
",X c #A7A4A5",
"<X c #B7A9AD",
"1X c #AFB2B4",
"2X c #C7918B",
"3X c #FEB397",
"4X c #EBABA1",
"5X c #D2D0B7",
"6X c #BBB3CB",
"7X c #CBB9C1",
"8X c #B4C0CC",
"9X c #C1C3C4",
"0X c #D8D3CC",
"qX c #D5D6D8",
"wX c #D4CAD2",
"eX c #E8D9DA",
"rX c #EACDCF",
"tX c #EBE3D7",
"yX c #D5DCE4",
"uX c #F1DCE6",
"iX c #DFE0E2",
"pX c #E5E5E7",
"aX c #F9E9E3",
"sX c #FCF4EC",
"dX c #F6FBEB",
"fX c #FDFDEE",
"gX c #F6F1EA",
"hX c #FCEDF7",
"jX c #EFF5F9",
"kX c #F5F5F4",
"lX c #FCF4F5",
"zX c #F6FBF5",
"xX c #FDFDF4",
"cX c #FCF5FB",
"vX c #F5FDFC",
"bX c #FCFFFF",
"nX c #FDFEFF",
"mX c #FFFEFF",
"MX c #FEFFFF",
"NX c white",
"BX c #FEFEFE",
"VX c #FFFFFD",
"CX c #FFFFFE",
"ZX c #F4F6FB",
/* pixels */
"NXNXNXNXNXNXNXNXNXNXNXNXNXNXNXNXNXNXNXNXNXNXNXNXVXVXVXVXVXVXVXVXNXNXNXNXNXNXVXVXVXVXNXNXNXNXNXNXNXNXNXNXNXNXNXNXNXNXNXNXNXNXNXNX",
"NXNXNXNXNXNXNXNXNXNXNXNXNXNXNXNXNXNXNXNXNXNXNXNXVXVXVXVXVXVXVXNXNXNXNXNXNXNXNXVXVXVXNXNXNXNXNXNXNXNXNXNXNXNXNXNXNXNXNXNXNXNXNXNX",
"NXNXNXNXNXNXNXNXNXNXNXNXNXNXNXNXNXNXNXNXNXNXNXNXNXNXNXNXNXNXNXNXNXNXNXNXNXNXNXNXNXNXNXNXNXNXNXNXNXNXNXNXNXNXNXNXNXNXNXNXNXNXNXNX",
"NXNXNXNXNXNXNXNXNXNXNXNXNXNXNXNXNXNXNXNXNXNXNXNXNXNXNXNXNXNXNXNXNXNXNXNXNXNXNXNXNXNXNXNXNXNXNXNXNXNXNXNXNXNXNXNXNXNXNXNXNXNXNXNX",
"NXNXNXNXNXNXNXNXNXNXNXNXNXNXNXNXNXNXNXNXNXNXNXNXNXNXNXNXNXNXNXNXNXNXNXNXNXNXNXNXNXNXNXNXNXNXNXNXNXNXNXNXNXNXNXNXNXNXNXNXNXNXNXNX",
"NXNXNXNXNXNXNXNXNXNXNXNXNXNXNXNXNXNXNXNXNXNXNXNXNXNXNXNXNXNXNXNXNXNXNXNXNXNXNXNXNXNXNXNXNXNXNXNXNXNXNXNXNXNXNXNXNXNXNXNXNXNXNXNX",
"NXNXNXNXNXNXNXNXNXNXNXNXNXNXNXNXNXNXNXNXNXNXNXNXNXNXNXNXNXNXNXNXNXNXNXNXbXbXNXNXNXNXNXNXNXNXVXNXNXNXNXNXNXNXNXNXNXNXNXNXNXNXNXNX",
"NXNXNXNXNXNXNXNXNXNXNXNXNXNXNXNXNXNXNXNXNXNXNXNXNXNXNXNXNXNXNXNXNXNXNXNXNXbXNXNXNXNXNXNXNXNXVXVXNXNXNXNXNXNXNXNXNXNXNXNXNXNXNXNX",
"NXNXNXNXNXNXNXNXNXNXNXNXNXNXNXNXNXVXNXNXNXNXNXNXnXnXNXNXNXNXNXNXNXNXkXNXNXNXNXNXNXNXNXNXNXNXVXVXNXNXNXNXNXNXNXNXNXNXNXNXNXNXNXNX",
"NXNXNXNXNXNXNXNXNXNXNXNXNXNXNXNXNXVXNXNXNXNXNXNXNXNXNXNXkXNXNXzXlXVXNXNXzXNXNXNXNXNXNXNXNXNXNXNXNXNXNXNXNXNXNXNXNXNXNXNXNXNXNXNX",
"NXNXNXNXNXNXNXNXNXNXNXNXNXNXNXNXNXVXNXNXNXNXNXNXNXNXnXNXNXVXzXVXVXxXxXVXNXvXbXNXNXNXNXNXNXNXNXNXNXNXNXNXNXNXNXNXNXNXNXNXNXNXNXNX",
"NXNXNXNXNXNXNXNXNXNXNXNXNXNXNXNXNXVXNXNXNXNXNXNXnXNXNXNXVXVXxXxXxXxXxXlXVXNXNXNXNXNXNXNXNXNXNXNXNXNXNXNXNXNXNXNXNXNXNXNXNXNXNXNX",
"NXNXNXNXNXNXNXNXNXNXNXNXNXNXNXNXNXVXNXNXNXNXNXNXNXzXVXVXxXxXxXxXxXsXxXxXxXVXkXNXNXNXNXNXNXNXNXNXNXNXNXNXNXNXNXNXNXNXNXNXNXNXNXNX",
"NXNXNXNXNXNXNXNXNXNXNXNXNXNXNXNXNXVXNXNXNXNXNXNXzXNXVXgXxXxXdXxXfXfXgXxXxXVXNXzXNXNXNXNXNXNXNXNXNXNXNXNXNXNXNXNXNXNXNXNXNXNXNXNX",
"NXNXNXNXNXNXNXNXNXNXNXNXNXNXNXNXNXNXNXNXNXNXNXNXNXNXxXxXdX$X9.p.w.w.w.tXxXgXVXNXNXNXNXNXNXNXNXNXNXNXNXNXNXNXNXNXNXNXNXNXNXNXNXNX",
"NXNXNXNXNXNXNXNXNXNXNXNXNXNXNXNXNXNXNXNXVXNXNXNXNXVXfX%X%.'.<X].i.~.p.%.0.sXxXNXbXbXbXNXNXNXNXNXNXNXNXNXNXNXNXNXNXNXNXNXNXNXNXNX",
"NXNXNXNXNXNXNXNXNXNXNXNXNXNXNXNXVXVXVXxXxXxXbXNXcXVX%Xp.X.e m n n 0 b 0.$Xp.aXVXbXvXbXNXVXVXNXNXNXNXNXNXNXNXNXNXNXNXNXNXNXNXNXNX",
"NXNXNXNXNXNXNXNXNXNXNXNXNXNXNXNXVXVXVXxXxXzXzXbXNX0X9.e.e v B B k B 9 8 S '.e.tXbXvXvXNXVXzXNXNXNXNXNXNXNXNXNXNXNXNXNXNXNXNXNXNX",
"NXNXNXNXNXNXNXNXNXNXNXNXNXNXNXNXVXVXNXVXxXxXbXNXlX$X%.$.x c c :.Z v S e e r [.T.zXvXNXNXNXnXNXNXNXNXNXNXNXNXNXNXNXNXNXNXNXNXNXNX",
"NXNXNXNXNXNXNXNXNXNXNXNXNXNXNXNXbXbXNXNXVXVXNXNX0X%.'.  ,.:.c :.c Z N v S r *.T.0XbXNXNXNXNXNXNXNXNXNXNXNXNXNXNXNXNXNXNXNXNXNXNX",
"NXNXNXNXNXNXNXNXNXNXNXNXNXNXNXNXvXvXNXNXnXVXVXsX^.T.E r f i >.N :.:.:.k B o { *.=XlXVXnXnXNXVXzXNXNXNXNXNXNXNXNXNXNXNXNXNXNXNXNX",
"NXNXNXNXNXNXNXNXNXNXNXNXNXNXNXNXvXvXNXNXnXNXnXaX{ R., b M :.M N :.:.:.k t 8 W *.%XVXVXnXcXNXVXvXNXNXNXNXNXNXNXNXNXNXNXNXNXNXNXNX",
"NXNXNXNXNXNXNXNXNXNXNXNXNXNXNXNXvXvXNXNXnXNXNXtXW T.. B :.:.c x u u i u & 3 E #.=XVXVXVXnXNXNXNXNXNXNXNXNXNXNXNXNXNXNXNXNXNXNXNX",
"NXNXNXNXNXNXNXNXNXNXNXNXNXNXNXNXvXzXVXNXcXNXkX5X=._.3 * t t # # o 3 o o 3 , W { =XNXlXVXnXNXzXNXNXNXNXNXNXNXNXNXNXNXNXNXNXNXNXNX",
"NXNXNXNXNXNXNXNXNXNXNXNXNXNXNXVXxXdXxXxXVXsXfX=..X{.l.R T G Y Y H Q Q Y Y ! Q.! =XNXxXxXxXNXNXnXNXNXNXNXNXNXNXNXNXNXNXNXNXNXNXNX",
"NXNXNXNXNXNXNXNXNXNXNXNXNXNXNXVXfXfXxXVXVXVXdX#. X{.&.&.&.h.`.{.|.|.}.).).Q.Q.T &XnXxXxXVXNXjXbXNXNXNXNXNXNXNXNXNXNXNXNXNXNXNXNX",
"NXNXNXNXNXNXNXNXNXNXNXNXNXNXNXVXfXxXxXlXnXnXzX$.[.Y , : 1 H Y z.x.x.x.k.j.j.U.[ <XNXVXfXxXNXvXbXNXNXNXNXNXNXNXNXNXNXNXNXNXNXNXNX",
"NXNXNXNXNXNXNXNXNXNXNXNXNXNXNXNXVXlXNXnXcX$X6.# l.1 > : T h.G E.j.j.h.Q H D D > ;XZXVXxXxXVXNXNXNXNXNXNXNXNXNXNXNXNXNXNXNXNXNXNX",
"NXNXNXNXNXNXNXNXNXNXNXNXNXNXNXNXNXcXcX:Xl 1.g , E.F o.^ U.Q U.@., 3 8 .   + + + 1XvXzXxXxXlXNXNXNXNXNXNXNXNXNXNXNXNXNXNXNXNXNXNX",
"NXNXNXNXNXNXNXNXNXNXNXNXNXNXNXNXNXnX6Xk / j b , Q.P @.^ H E.h.1 % ; y y i i =   XXvXNXgXVXVXNXNXNXNXNXNXNXNXNXNXNXNXNXNXNXNXNXNX",
"NXNXNXNXNXNXNXNXNXNXNXNXNXNXNXNXzX1XM B } [ ] , ).j.G +.R.&.K . & y p -.;.>.m 9 & 1XVXVXVXVXVXNXNXNXNXNXNXNXNXNXNXNXNXNXNXNXNXNX",
"NXNXNXNXNXNXNXNXNXNXNXNXNXNXNXNXbXA v V ] q r , l.j.! R R R q.% y i :.>.k a ^ ^ ] ~.aXnXlXNXVXVXNXNXNXNXNXNXNXNXNXNXNXNXNXNXNXNX",
"NXNXNXNXNXNXNXNXNXNXNXNXNXNXkXNX+XZ C V | | n w T ! W.W.W.R.q.$ u :.>.l ` b.g.A.Y.O.!.hXNXVXxXxXVXNXNXNXNXNXNXNXNXNXNXNXNXNXNXNX",
"NXNXNXNXNXNXNXNXNXNXNXNXzXzXNXkX9.f V | | C C n 3 2X3X3X X/.0.& c M a 2.Z.C.J.H.A.M.^ uXNXxXxXsXVXNXNXNXNXNXNXNXNXNXNXNXNXNXNXNX",
"NXNXNXNXNXNXNXNXNXNXzXNXNXNXNX@Xj j } | | B C n w (.! Q.4X2Xq t c f ( D.P.C.C.C.K.B.m.q.VXzXxXVXNXNXNXNXNXNXNXNXNXNXNXNXNXNXNXNX",
"NXNXNXNXNXNXNXNXNXNXNXNXNXNXNXi.j } } ] n d B n . [ 4X(.2X^.6 f N d b.S.C.C.s.s.V.I.b.o.eXVXlXcXNXNXNXNXNXNXNXNXNXNXNXNXNXNXNXNX",
"NXNXNXNXNXNXNXNXNXNXNXkXNXNXpX7.h } ~ h w 9 b V < ] rXrX&Xd f N n ~ Z.H.H.C.' I c.G.M.4.9.xXNXNXNXNXNXNXNXNXNXNXNXNXNXNXNXNXNXNX",
"NXNXNXNXNXNXNXNXNXzXNXzXNXNX,XO j ] h w w w w m b @ 0.a.v v c M 5 O.J.L.H.B.b.) J b.Y.K X.1XNXNXNXNXNXNXNXNXNXNXNXNXNXNXNXNXNXNX",
"NXNXNXNXNXNXNXNXzXNXNXNXNXkX#X& n n m m w ~ q h n % $ ; x Z N j L Z.H.L.H.c.3.) ^.( o.2 w ~.cXNXNXNXNXNXNXNXNXNXNXNXNXNXNXNXNXNX",
"NXNXNXNXNXNXNXNXNXNXzXNXNXNX,X  f v A b 5 ] q h d   $ ,.M v | 7 n.A.K.V.S.N.` a ;X7XK 7 } ] 7XnXNXNXNXNXNXNXNXNXNXNXNXNXNXNXNXNX",
"NXNXNXNXNXNXNXNXNXNXzXNXNXNX,X  s g C n w w  .5 @ s & N V a J M.A.P.S.G.N.<.( j ;X0.5 7 } ] ;XnXNXNXNXNXNXNXNXNXNXNXNXNXNXNXNXNX",
"NXNXNXNXNXNXNXNXNXNXNXNXzXkX#X= s l g n V 5 < 5 j 6 @ z a 2.m.n.B.B.N.v.<.3./ l 7X6.7.0 l j &XVXNXNXNXNXNXNXNXNXNXNXNXNXNXNXNXNX",
"NXNXNXNXNXNXNXNXNXNXNXNXNXNX#X  6 j g B d 6 < < 5 . 6 1.1. .` U U _ ) ) ) a @ oXcX@X8.r.B O #XVXNXNXNXNXNXNXNXNXNXNXNXNXNXNXNXNX",
"NXNXNXNXNXNXNXNXNXNXNXNXNXNXqX6.% j g g & 8 5 w : q a 4 4 7 2 2 2 1 J 7 4 a 0 ~.NX#XXX,.r.v ,XxXNXNXNXNXNXNXNXNXNXNXNXNXNXNXNXNX",
"NXNXNXNXNXNXNXNXNXNXNXNXNXNXNXi.@ d s f g 0 X ] : q 7 X 4 4 : > 1 2 > 2 1 X X @X@X-X8XXX5.y.6.0XNXNXNXNXNXNXNXNXNXNXNXNXNXNXNXNX",
"NXNXNXNXNXNXNXNXNXzXNXNXNXzXNX@X+ + = f g s < w [ : 7 4. .7 7 o._ _ ' d.O.q.+...#XqX>Xt.-XZ x 9XNXNXNXNXNXNXNXNXNXNXNXNXNXNXNXNX",
"NXNXNXNXNXNXNXNXNXNXNXbXNXkXNXpX$.o = s & d d . ] : ~ !.<.' ' s.F.F.A.A.A.d.@.^.eX-Xy.qXbXqXpXcXNXNXNXNXNXNXNXNXNXNXNXNXNXNXNXNX",
"NXNXNXNXNXNXNXNXNXNXNXzXNXNXkXVXa.e O & s 8 % X r > 7 2.I v.F.F.K.V.J.g.g.d./.rX;Xr.yXvXNXnXNXNXNXNXNXNXNXNXNXNXNXNXNXNXNXNXNXNX",
"NXNXNXNXNXNXNXNXNXNXNXNXNXNXNXNXVXv O = % 8 + 8 o < 7 J O.D.F.S.K.V.F.D.O.(.uX&Xr.yXbXZXNXNXNXNXNXNXNXNXNXNXNXNXNXNXNXNXNXNXNXNX",
"NXNXNXNXNXNXNXNXNXNXNXNXNXNXNXNXbX,X- 0 + 8 + 8 8 X < K _ f.n.B.S.F.b._ *XrX,Xv ,XvXNXnXNXnXnXNXNXNXNXNXNXNXNXNXNXNXNXNXNXNXNXNX",
"NXNXNXNXNXNXNXNXNXNXNXNXNXNXNXNXzXkX,X  % * 0 O . 0 < q ^ J F n.b.b.L *XwX,Xv 8.pXNXnXcXnXcXnXNXNXNXNXNXNXNXNXNXNXNXNXNXNXNXNXNX",
"NXNXNXNXNXNXNXNXNXNXNXNXNXNXNXNXNXzXnX,X0 d   * * 0 . ] } K 1 J _  .OXrX<Xu.9XgXnXnXcXcXnXnXNXNXNXNXNXNXNXNXNXNXNXNXNXNXNXNXNXNX",
"NXNXNXNXNXNXNXNXNXNXNXNXNXNXNXNXNXNXcXhXpX~.A S A v i.a.8 5 q ~ w i.eX&X8.qXbXNXNXnXnXnXnXnXNXnXNXNXNXNXNXNXNXNXNXNXNXNXNXNXNXNX",
"NXNXNXNXNXNXNXNXNXNXNXNXNXNXNXNXzXNXNXNXNXlXNXkXzXNXzXa.- 8 d <X. 9.@Xv qXbXNXzXnXnXnXnXVXNXNXNXNXNXNXNXNXNXNXNXNXNXNXNXNXNXNXNX",
"NXNXNXNXNXNXNXNXNXNXNXNXNXNXNXNXNXNXNXNXnXNXNXNXzXzXbX1Xv = i.qX..  O - qXNXkXNXNXVXNXNXvXvXbXbXNXNXNXNXNXNXNXNXNXNXNXNXNXNXNXNX",
"NXNXNXNXNXNXNXNXNXNXNXNXNXNXNXNXNXNXNXNXnXNXNXNXNXbXjXbX1X#XzXNX<XO v - iXzXbXNXNXnXNXNXbXbXvXvXNXNXNXNXNXNXNXNXNXNXNXNXNXNXNXNX",
"NXNXNXNXNXNXNXNXNXNXNXNXNXNXNXNXbXbXNXNXNXNXNXNXNXNXNXbXbXbXNXNX<X% v = qXNXbXbXbXNXNXbXbXbXbXbXNXNXNXNXNXNXNXNXNXNXNXNXNXNXNXNX",
"NXNXNXNXNXNXNXNXNXNXNXNXNXNXNXNXbXbXbXNXNXNXNXNXNXNXNXNXNXNXNXNXnXhXlXcXNXNXvXvXbXbXbXNXNXNXNXNXNXNXNXNXNXNXNXNXNXNXNXNXNXNXNXNX",
"NXNXNXNXNXNXNXNXNXNXNXNXNXNXNXNXbXbXbXNXNXNXNXNXNXNXNXNXNXNXNXNXlXnXnXNXNXzXbXzXbXbXbXNXNXNXnXnXNXNXNXNXNXNXNXNXNXNXNXNXNXNXNXNX",
"NXNXNXNXNXNXNXNXNXNXNXNXNXNXNXNXbXbXbXNXbXNXNXNXNXNXNXNXNXNXNXNXNXnXNXzXNXzXvXzXbXbXNXNXNXnXnXnXNXNXNXNXNXNXNXNXNXNXNXNXNXNXNXNX",
"NXNXNXNXNXNXNXNXNXNXNXNXNXNXNXNXNXNXNXNXNXNXNXNXNXNXNXNXNXNXNXNXNXZXNXNXvXNXkXVXNXNXNXNXNXnXnXnXNXNXNXNXNXNXNXNXNXNXNXNXNXNXNXNX",
"NXNXNXNXNXNXNXNXNXNXNXNXNXNXNXNXNXNXNXNXNXNXNXNXNXNXNXNXNXNXNXNXNXNXzXNXzXNXVXVXNXNXNXNXNXNXNXNXNXNXNXNXNXNXNXNXNXNXNXNXNXNXNXNX",
"NXNXNXNXNXNXNXNXNXNXNXNXNXNXNXNXNXNXNXNXNXNXNXNXNXNXNXNXNXNXNXNXZXNXNXNXNXcXVXlXVXNXNXbXbXbXbXbXNXNXNXNXNXNXNXNXNXNXNXNXNXNXNXNX",
"NXNXNXNXNXNXNXNXNXNXNXNXNXNXNXNXNXNXNXNXNXNXNXNXNXNXNXNXNXNXNXNXNXNXNXnXcXnXcXVXVXVXNXbXbXvXvXbXNXNXNXNXNXNXNXNXNXNXNXNXNXNXNXNX"
};
