/* XPM */
static char *_fa6bcff896648db906f0f26bf5b92ba6NvzgzQvUUUsKL4X[] = {
/* columns rows colors chars-per-pixel */
"64 64 240 2 ",
"   c None",
".  c #060306",
"X  c #0A0204",
"o  c #0F0509",
"O  c #0D0B09",
"+  c #140302",
"@  c #1A0204",
"#  c #140B0C",
"$  c #190808",
"%  c #1B1309",
"&  c #0A0A14",
"*  c #1B0E13",
"=  c #140B1C",
"-  c #170915",
";  c #161316",
":  c #1C1313",
">  c #1D151A",
",  c #1C181A",
"<  c #071316",
"1  c #250002",
"2  c #2B0204",
"3  c #25050D",
"4  c #270C07",
"5  c #35040B",
"6  c #380306",
"7  c #271308",
"8  c #250D13",
"9  c #2E0D12",
"0  c #270615",
"q  c #360915",
"w  c #231315",
"e  c #23121C",
"r  c #2B1B1C",
"t  c #281517",
"y  c #351A1B",
"u  c #3B191D",
"i  c #361419",
"p  c #311007",
"a  c #17201F",
"s  c #252617",
"d  c #37271D",
"f  c #30290D",
"g  c #1C0F23",
"h  c #0B1324",
"j  c #171627",
"k  c #171B37",
"l  c #08112E",
"z  c #390B26",
"x  c #241525",
"c  c #2B1C24",
"v  c #241B2A",
"b  c #2A1C2C",
"n  c #291626",
"m  c #3C1A23",
"M  c #3B1E2C",
"N  c #351625",
"B  c #281A37",
"V  c #32112E",
"C  c #1C2528",
"Z  c #1C2635",
"A  c #2A2C2B",
"S  c #272428",
"D  c #342223",
"F  c #34252D",
"G  c #3B222C",
"H  c #372A2B",
"J  c #2C2434",
"K  c #292838",
"L  c #342333",
"P  c #3B2334",
"I  c #3C2B33",
"U  c #362A37",
"Y  c #2B3139",
"T  c #383435",
"R  c #37382A",
"E  c #430D01",
"W  c #55050A",
"Q  c #4D1105",
"!  c #531B04",
"~  c #490415",
"^  c #55091B",
"/  c #4A1A15",
"(  c #521C1C",
")  c #67091D",
"_  c #4B2203",
"`  c #5A2806",
"'  c #532715",
"]  c #583618",
"[  c #493114",
"{  c #632303",
"}  c #6A2100",
"|  c #672B1A",
" . c #6C3A15",
".. c #490926",
"X. c #431C22",
"o. c #491824",
"O. c #571928",
"+. c #4C1334",
"@. c #5B1331",
"#. c #661829",
"$. c #671939",
"%. c #710C2C",
"&. c #4A242D",
"*. c #452629",
"=. c #592C27",
"-. c #4B2333",
";. c #42223A",
":. c #422831",
">. c #572836",
",. c #4C3935",
"<. c #57382E",
"1. c #75272B",
"2. c #612736",
"3. c #782839",
"4. c #76393A",
"5. c #633032",
"6. c #4B4315",
"7. c #484937",
"8. c #534936",
"9. c #534526",
"0. c #7A492F",
"q. c #72512E",
"w. c #684F16",
"e. c #1B1B41",
"r. c #231F40",
"t. c #1E2046",
"y. c #252846",
"u. c #333945",
"i. c #302A4C",
"p. c #781948",
"a. c #49394B",
"s. c #543345",
"d. c #742742",
"f. c #6D2E4C",
"g. c #354650",
"h. c #484847",
"j. c #574A4A",
"k. c #474A51",
"l. c #555652",
"z. c #684748",
"x. c #745E47",
"c. c #685E56",
"v. c #735252",
"b. c #6F6458",
"n. c #726A53",
"m. c #595D65",
"M. c #475764",
"N. c #615967",
"B. c #58636A",
"V. c #7B6B68",
"C. c #797464",
"Z. c #7B7573",
"A. c #686464",
"S. c #901333",
"D. c #883133",
"F. c #8E243F",
"G. c #AB3339",
"H. c #824929",
"J. c #834E39",
"K. c #9A4C28",
"L. c #A45B2E",
"P. c #A65635",
"I. c #B2592D",
"U. c #8F6D3B",
"Y. c #AA6B3A",
"T. c #CE6938",
"R. c #871C45",
"E. c #9B1F44",
"W. c #8D2B44",
"Q. c #882841",
"!. c #962845",
"~. c #92324C",
"^. c #952A52",
"/. c #A92D48",
"(. c #BD2B4B",
"). c #B92846",
"_. c #AA3748",
"`. c #B7334A",
"'. c #B22852",
"]. c #A43652",
"[. c #BB3353",
"{. c #B63658",
"}. c #AD2857",
"|. c #C62A48",
" X c #C82C55",
".X c #CF304F",
"XX c #C23C61",
"oX c #884948",
"OX c #9F5B49",
"+X c #914C53",
"@X c #AB5D41",
"#X c #9B6348",
"$X c #867656",
"%X c #8E674E",
"&X c #A46948",
"*X c #B17144",
"=X c #B97554",
"-X c #AA6A50",
";X c #884F64",
":X c #887A76",
">X c #966F71",
",X c #A36666",
"<X c #A57A77",
"1X c #B17269",
"2X c #C67B48",
"3X c #9A8453",
"4X c #BF8144",
"5X c #8B8877",
"6X c #B4996D",
"7X c #C69C4C",
"8X c #DC9756",
"9X c #EA8E54",
"0X c #D49B6B",
"qX c #E3C27B",
"wX c #717B88",
"eX c #A97B86",
"rX c #918A81",
"tX c #8D8F93",
"yX c #A59B9B",
"uX c #B48A91",
"iX c #9B99A4",
"pX c #AB9BA3",
"aX c #9FABB9",
"sX c #A9A6A9",
"dX c #B9B0AB",
"fX c #C78A8A",
"gX c #CA9A86",
"hX c #F3B1A2",
"jX c #E5B3A6",
"kX c #E5C7BF",
"lX c #BCBEC7",
"zX c #D0B9C2",
"xX c #B9C2D1",
"cX c #CAD7DF",
"vX c #E4C5C7",
"bX c #EED2D7",
"nX c #D7D8E2",
"mX c #DBE6F2",
"MX c #FCFAFB",
"NX c #E0E7F2",
/* pixels */
"                                                                                                                                ",
"                                                                                                                                ",
"                                                                                                                                ",
"                                                                                                                                ",
"                                                                                                                                ",
"                                                                                                                                ",
"                                                                                                                                ",
"                                                                                                                                ",
"                                                                                                                                ",
"                                                                                                                                ",
"                                                                                                                                ",
"                                                                                                                                ",
"                                                                                                                                ",
"                                                                                                                                ",
"                                                          C.l.C.b.V.b.                                                          ",
"                                                      C.7.5XdXrXV.:XV.8.c.                                                      ",
"                                                      x.R s H G M 8 D c.rXC.                                                    ",
"                                                    8.x.s S J L J L S w d 5Xx.                                                  ",
"                                                  x.8.7.C Z Z y.Y S A s s f 6X$X                                                ",
"                                                  ,.:XO u.y.Z y.Z Y K S A d q.$X                                                ",
"                                                0.%X[ d b k u.J y.y.y.B J $ ] x.                                                ",
"                                                ] %X7 D K y.Y K y.y.y.B = t ' q.%X                                              ",
"                                                [ $X+ L r.i.Z S h h k j ; 7 [ 9.                                                ",
"                                                w.3Xp 8 = g % % $ 7 $ @ 7 4 ' <.                                                ",
"                                              6.qX7XU.] / _ ` ` ! } { ` `  .&X]                                                 ",
"                                              9.8X7X0.0.H.H.4X8X9X9X9X2X2XY.*X` +X                                              ",
"                                              8.6X_ 2 1 6 ! { Y.T.T.T.I.@X@XOX=.                                                ",
"                                            a.% U.2 2 2 ' J.Q #XP.P.K.{ Q E E 1                                                 ",
"                                        L a.c $ &XW =.O.oX{ OX4.4 7 t + o # 3 #                                                 ",
"                                      B ;.N D 4 *X} 4.O.Q &XJ.6 ; < h h k k e o m.                                              ",
"                                    U P &.>.*.p =XL.Q 4.#X0./ @ = l l e.t.K G r -                                               ",
"                                  T S P &./ d p P.L.| =.` ' z.- h k y.i.B z O.( *.V.                                            ",
"                                k.Y U P ;.;.G D / | =X=X=X%Xz.& j y.i.V $.!./._._.3.;X                                          ",
"                                k.c P P ;.P I F p gXhXhX0X,Xv.- Z K V d.].`..X|.[.~.O.                                          ",
"                                M N -.-.;.P U F y <X| -XhXfXq g Z v @.].XX).).). X/.~.v.                                        ",
"                              T N -.>.&.M c L F + =.jX1XfX>Xe v K N W.(.(.).S.S.).XXW.2.zX                                      ",
"                              T m -.X.X.y r D I 4 *.vXkXpXc S K F o./.|.|.(.%.) !.].].4.j.                                      ",
"                              # M *.m m y y y G D $ b.Z.C Z Z Y 9 3.|..X|./.3.^ ~ Q.+X~ ,.yX                                    ",
"                              # F F I D i X.i m D ; & < C Y J M ^ /..X.X|.E.d...>XO.2.5 y :X                                    ",
"                              O v S T D 9 *.q m c . < u.Y J >.q !.[. X).'.^.$...  zXu q &.:.sX                                  ",
"                              . x b U F r u >.9 - e = J L z ~ ~.`.[.'.}.^.p.@.N pX  8 q -.&.pX                                  ",
"                              > x L b G I 8 3 9 N e o e z f.~.!././.!.R.p.f.+.M zX  j.n M N yX                                  ",
"                              . 0 N n L c 8 3 3 9 @ e s.s.2.#.) ) #.@...+.z @ :XMX    N.L - yX                                  ",
"                              , 0 n n b = e t u 2 i i 3 3 5 5 6 6 6 ~ q 0 N e Z.MX  wXu.m.C sX                                  ",
"                              T $ c x x b e @ &.1 i q 3 0 0 2 2 5 6 2 5 2 1 @ rXrXiXxXwXg.B.h.                                  ",
"                                : * > v x n 8 i >.2 q f.>.q q >.#.#.1.D.1.oX5.,.iXnXaXM.tXY a                                   ",
"                                7.O , x = c N @ *.1 o.;X$.%.%.F.].{.`.`._.D.4.>XnXiXB.cX  lX                                    ",
"                                R s # * j > * @ d 2 q d.) R.{.{. X(.(.G.G.D.,XbXpXN.nXmX                                        ",
"                                  A # , * w * 8 @ 3 5 ~ 3.].{.[. X(.{.].3.<XbXyXm.nXNX                                          ",
"                                    , e # w $ w r + 9 / O.F.F./.'.{.W.#.uXbXsXA sX                                              ",
"                                      o : : r # + r @ u O.~ W W.W.W.^ uXvXyXA k.                                                ",
"                                        e c X : : r $ *.&.q 6 ~ O.2.eXvXdXA.sX                                                  ",
"                                          h.H A T S V.Z.w 9 u X.m V.  yXl.                                                      ",
"                                                      h., w r   X j.A.A                                                         ",
"                                                        A , T   H o # ;                                                         ",
"                                                                  # . ;                                                         ",
"                                                                  o . ;                                                         ",
"                                                                                                                                ",
"                                                                                                                                ",
"                                                                                                                                ",
"                                                                                                                                ",
"                                                                                                                                ",
"                                                                                                                                ",
"                                                                                                                                "
};
