/* XPM */
static char *_1708992363[] = {
/* columns rows colors chars-per-pixel */
"64 64 47 1 ",
"  c None",
". c #0C1B24",
"X c #0C1F2A",
"o c #0D202C",
"O c #0D2230",
"+ c #0B273A",
"@ c #0B2A3E",
"# c #0B2C41",
"$ c #0D3753",
"% c #0E3956",
"& c #0E3A59",
"* c #103E5D",
"= c #114163",
"- c #13466C",
"; c #13486F",
": c #144A72",
"> c #184F77",
", c #17527C",
"< c #18547E",
"1 c #175681",
"2 c #195581",
"3 c #175986",
"4 c #195986",
"5 c #195C8B",
"6 c #1D6597",
"7 c #1E679B",
"8 c #1E699F",
"9 c #1F6CA5",
"0 c #1F6EA8",
"q c #1F71AC",
"w c #1F74B0",
"e c #206DA6",
"r c #206FA9",
"t c #2071AC",
"y c #2175B2",
"u c #247DBE",
"i c #247EC0",
"p c #2583C6",
"a c #2686CB",
"s c #2788CE",
"d c #278AD1",
"f c #288CD5",
"g c #298ED8",
"h c #2A91DB",
"j c #2C96E2",
"k c #2D99E6",
"l c #2D9BEA",
/* pixels */
"                                                                ",
"                                                                ",
"                                                                ",
"                                                                ",
"                         sfffffs                                ",
"                        pffgghggp                               ",
"                        pffdfggggs0                             ",
"                            qffgggf8                            ",
"                           rryyfghfte                           ",
"                         ertrrryfklyt0                          ",
"                        7qrtyrrr5flfyt97                        ",
"                       ertrytre435klfqt9                        ",
"                       rttr0422213sllwtq9                       ",
"                       rttr32222225flfttr                       ",
"                      0ttr2222222<15jg5qt9                      ",
"                      rr0322222,<:<3jl50tr                      ",
"                  y   0t44422,,:;-;:slstt0                      ",
"                     ett5df422;----->jf5tt9                     ",
"                     0tfflg42-----&&=j530r0 u                   ",
"                    8tyglk52,----&&$=j312ee p                   ",
"                    etflj522;---$&&$*a<<239 sp                  ",
"                   7tyhl522,----%$$&&&*<23e sa                  ",
"                   9qflk422;----&&&$&&&<<e9 fa                  ",
"                   0tflf42,;---&%$&#@##,<0trfa                  ",
"                   0thk5<2,;---%%$##@@#<<4ttfa                  ",
"                  7rtkf2<<-----%%$#@###,<2ttfa                  ",
"                   0gj522,-;---%$#@@@+o><3ttfa                  ",
"                   rlj5222;---&%$@@@+o.o,3ttfa                  ",
"                   slj3222----&%&#@@o...,<tffs                  ",
"                   jk5222,----%%$#@+...o,3tfgp                  ",
"                  plf3<<22----%%$@@@....,2qfs                   ",
"                  dlt32222;---%%$#@+...o,3qfs                   ",
"                  skt2222<----&%&@@@o.o:<3tfa                   ",
"                  sft22<22----&%%#@@..o><3tgd                   ",
"                 dfyt222<<----&%%@@@..o><4sfs                   ",
"                 afyt22222----%%%%@@+oo>33dfp                   ",
"                  syt222<2---=*%%%#@+@@,<5ff                    ",
"                 aftt4222<----%%%%@@@@@,2dlf                    ",
"                 dgtt22222----*%%%@@@@@,2klt6                   ",
"                 dgyt22222----%$%%%####,2kgt                    ",
"                 dfyte22<<----*$%%%%%%%,<jw0                    ",
"                 gftte252<;---=*%%%%%%*3kkw0                    ",
"                 ss er4s54,;---%%%%%&%<5lwq0                    ",
"                  p er4glk<;---%%%%%&&3hlw09                    ",
"                  p  e5sgl<<----%%%%%*5kwq0                     ",
"                  p  ee5fl42-----%%%%,hkqq0                     ",
"                  p  et4flj4;--;---%*,s5tq9                     ",
"                  p  e045jl4<;------%*50t0                      ",
"                  u  9t05fk52,----;;,,0tte                      ",
"                      9t3tlf42---;,2240rtt                      ",
"                       etthh54,:,,2430qree                      ",
"                       9ttglj32,22<00tte                        ",
"                        etthlf52222rttt8                        ",
"                        7ttffks54errtte     f                   ",
"                         ettyfkyrtrttte    gg                   ",
"                          ertyffgyttre i                        ",
"                           0ttfhgfy0  pfi                       ",
"                           9e0sgggffdffp                        ",
"                               pggggggp                         ",
"                                idddss                          ",
"                                                                ",
"                                                                ",
"                                                                ",
"                                                                "
};
