/* XPM */
static char *_1708992364[] = {
/* columns rows colors chars-per-pixel */
"64 64 47 1 ",
"  c None",
". c #0D1C27",
"X c #0D1D29",
"o c #0D202E",
"O c #0E2434",
"+ c #0C273B",
"@ c #0B293E",
"# c #0B2B41",
"$ c #0E314A",
"% c #0E3752",
"& c #0E3956",
"* c #0E3A59",
"= c #103D5C",
"- c #0F4164",
"; c #114367",
": c #12466B",
"> c #12486E",
", c #174E76",
"< c #17537D",
"1 c #18547E",
"2 c #175683",
"3 c #185581",
"4 c #195986",
"5 c #195C8A",
"6 c #1A5F90",
"7 c #1E679C",
"8 c #1E699E",
"9 c #1E6CA4",
"0 c #1F6FA9",
"q c #1F71AC",
"w c #206EA7",
"e c #206FA9",
"r c #2071AC",
"t c #2175B2",
"y c #2379B6",
"u c #267EBD",
"i c #267FC0",
"p c #2783C5",
"a c #2786C9",
"s c #2887CB",
"d c #2888CE",
"f c #298DD4",
"g c #2A8FD8",
"h c #2B91DB",
"j c #2C96E2",
"k c #2D99E6",
"l c #2E9BEA",
/* pixels */
"                                                                ",
"                                y                               ",
"                                 u                              ",
"                                 ps                             ",
"                                  pfp                           ",
"                                   ss                           ",
"                             89998  ds                          ",
"                            8rrrrr9 sga                         ",
"                          90qqqqrrrergf                         ",
"                         9rrrq0qrrrrrggp                        ",
"                        7rre09500r9rrfgs                        ",
"                       9rrre4333333rrrggd                       ",
"                       wrrr53333333wrrfgf                       ",
"                      9qtfgd54333134wrtgd                       ",
"                      rgghllkj53313333glhw                      ",
"                      fllllhjd411113335jhd                      ",
"                     hklhkfd64<>>::<135hld                      ",
"                    dgggd4421>:::;:,<135lg0                     ",
"                   afgf443131::::::-*<15kfr                     ",
"                   stdr13333>>:::-****14kge                     ",
"                  pgre431331:::::*&&&*14kg0                     ",
"                  dfre33331>::::*&&&&&*3kfr9                    ",
"                 dfrrw41331>::::*%&&&&&-jgr0                    ",
"                 gd 9q23131:::::*&*%@@#*kgrr8                   ",
"                 gfwr943331>:::**&&@@@@%jf5w9                   ",
"                agsre431311>::;*&&&@@@+$kd5r9                   ",
"                dd 9r31333::::&&&&@@+OoOkf5e9                   ",
"                ff w033333:::;*&&%@@+ooOhgrr9                   ",
"                ds 9031331,::;*&%@@@+..osfrr9  u                ",
"                i  w043333::::&&&@@@oo..X14r9  p                ",
"                  9ee33333::::*&%#@+o...o39r9  a                ",
"                  rrr43311:::;*&&#++...o,33r9 dd                ",
"                  er05s231::>;*&%##@o..o<13ew dd                ",
"                  9r05j431>:>;**%#@@...o<13rw fa                ",
"                   9e5js41>:>;*%&@@@+X.o<12rrsf                 ",
"                i  9e5j531>:>;&*&%#@@XXo<2ertgf                 ",
"                p  9e6ks41:>::*&&&#@@@@#12erfgg                 ",
"                p  9eflf43::::*&&%#@@@@#12rrfgf                 ",
"                u  9tflf41:::;**&&&#@@#<32erggg                 ",
"                   9rtkk41:,::;*&&&&#@#<33erfgs                 ",
"                   8rrgk51::>>;*&&&&&&&<340qgs                  ",
"                    etgl511>>;:*&&&&&&*<39qggp                  ",
"                    9tgk511>>;>;*&*&&&<330tgd                   ",
"                    eqfk511>;>::&&&&&&133qfgd                   ",
"                    8rgk5111>>>;:&&*&&149ykgp                   ",
"                     rfk52121>;>:*&&*&29qklp                    ",
"                     eql513111>;:::-*&<5gkf                     ",
"                     eqld51111>>:::><45jlhd                     ",
"                     itlg432131>:::15jkllga                     ",
"                      qlj411311>:135jllhhs                      ",
"                      9gh622121135jklkgfp                       ",
"                       rgd2112325hkggtfr                        ",
"                       sgg9 13314a5qrrre8                       ",
"                        sfrr94220q00rrr7                        ",
"                        dgfrrrqwqrrrrrw                         ",
"                        sggrrrrrrrrqew                          ",
"                         dltwrrrrrrr9                           ",
"                         slh 8rr9997                            ",
"                          dkj 89                                ",
"                           pkg                                  ",
"                            sjjh                                ",
"                              skfdp                             ",
"                               ssp                              ",
"                                                                "
};
