/* XPM */
static char *f13700d64cd64f1f9d29042ac001c2b0E5bx3D80ZuoO2i0p[] = {
/* columns rows colors chars-per-pixel */
"64 64 205 2 ",
"   c None",
".  c #030203",
"X  c #0B0405",
"o  c #0C0509",
"O  c #0C0A0C",
"+  c #04050A",
"@  c #130506",
"#  c #12060A",
"$  c #1B070C",
"%  c #13090C",
"&  c #1D0A0C",
"*  c #120A03",
"=  c #090C17",
"-  c #140B13",
";  c #1C0E12",
":  c #150512",
">  c #0E1415",
",  c #0D121C",
"<  c #1E1114",
"1  c #12151A",
"2  c #161518",
"3  c #18160B",
"4  c #220C0C",
"5  c #2B0A0E",
"6  c #2E120A",
"7  c #21180E",
"8  c #30140D",
"9  c #3A1B0C",
"0  c #341D0E",
"q  c #230E12",
"w  c #250916",
"e  c #350E16",
"r  c #221116",
"t  c #281115",
"y  c #22131A",
"u  c #2D1218",
"i  c #211B13",
"p  c #36151C",
"a  c #39171A",
"s  c #262314",
"d  c #342717",
"f  c #372814",
"g  c #080E25",
"h  c #090F28",
"j  c #0A112B",
"k  c #141A23",
"l  c #151A28",
"z  c #0F1832",
"x  c #1D1D34",
"c  c #131D38",
"v  c #2C0B24",
"b  c #2B0C25",
"n  c #271625",
"m  c #291724",
"M  c #2C1824",
"N  c #2C1928",
"B  c #231C27",
"V  c #321C27",
"C  c #351D2A",
"Z  c #3C1C28",
"A  c #391832",
"S  c #1B2234",
"D  c #1A253B",
"F  c #162138",
"G  c #232429",
"H  c #2B2528",
"J  c #3A212E",
"K  c #23243E",
"L  c #242537",
"P  c #3E2231",
"I  c #372533",
"U  c #383A38",
"Y  c #420E16",
"T  c #461619",
"R  c #441B0E",
"E  c #42240B",
"W  c #4A280B",
"Q  c #482712",
"!  c #58261D",
"~  c #443B1D",
"^  c #5E3714",
"/  c #5F340E",
"(  c #662B17",
")  c #78341A",
"_  c #633319",
"`  c #420B25",
"'  c #4B1923",
"]  c #591722",
"[  c #44183A",
"{  c #530F2B",
"}  c #771928",
"|  c #64132D",
" . c #532024",
".. c #592827",
"X. c #473B28",
"o. c #412433",
"O. c #4F2A35",
"+. c #58373B",
"@. c #492227",
"#. c #642521",
"$. c #662928",
"%. c #762C29",
"&. c #622E34",
"*. c #683138",
"=. c #74363E",
"-. c #794515",
";. c #544A28",
":. c #574138",
">. c #7A5835",
",. c #7A6732",
"<. c #1D2A42",
"1. c #192640",
"2. c #272744",
"3. c #212E48",
"4. c #23324D",
"5. c #32374D",
"6. c #511544",
"7. c #5B1442",
"8. c #5B174B",
"9. c #57164A",
"0. c #6C1341",
"q. c #661649",
"w. c #73174D",
"e. c #7C174E",
"r. c #751443",
"t. c #7C3B40",
"y. c #3F445F",
"u. c #4F5259",
"i. c #785C4D",
"p. c #7E6050",
"a. c #424966",
"s. c #50587B",
"d. c #797D76",
"f. c #903B1F",
"g. c #861C2D",
"h. c #8E1F30",
"j. c #9A2135",
"k. c #912032",
"l. c #A9233B",
"z. c #B2263C",
"x. c #BB283F",
"c. c #8B4916",
"v. c #94491A",
"b. c #9E5418",
"n. c #995519",
"m. c #80521E",
"M. c #A65819",
"N. c #B4611A",
"B. c #BB4D28",
"V. c #A54424",
"C. c #856A31",
"Z. c #AB722C",
"A. c #C0671C",
"S. c #C3502A",
"D. c #C15E22",
"F. c #D25E29",
"G. c #D96628",
"H. c #D66228",
"J. c #C76322",
"K. c #E97528",
"L. c #E36F28",
"P. c #83174E",
"I. c #8C174F",
"U. c #841849",
"Y. c #9B1C4B",
"T. c #A41F4A",
"R. c #B42645",
"E. c #BC2646",
"W. c #BE2840",
"Q. c #B32448",
"!. c #A92049",
"~. c #C42944",
"^. c #C92B44",
"/. c #814440",
"(. c #AE5556",
"). c #8A6A57",
"_. c #857D41",
"`. c #9A7663",
"'. c #A67F69",
"]. c #C05D5D",
"[. c #D17167",
"{. c #7B8279",
"}. c #B48438",
"|. c #C38131",
" X c #FF8A26",
".X c #F98526",
"XX c #8A8144",
"oX c #A38C44",
"OX c #B0A656",
"+X c #BE9177",
"@X c #FFC95C",
"#X c #535C80",
"$X c #878B82",
"%X c #90938B",
"&X c #858999",
"*X c #9599AA",
"=X c #9599A9",
"-X c #D99E84",
";X c #DBA78A",
":X c #F4BB9A",
">X c #F0AD91",
",X c #FFC3A1",
"<X c #D4DBDA",
"1X c #D9E0DF",
"2X c #DCE4E2",
/* pixels */
"                                                                                                                                ",
"                                                                                                                                ",
"                                                                                                                                ",
"                                                                                                                                ",
"                                                                                                                                ",
"                                                                                                                                ",
"                                                                                                                                ",
"                                                                                                                                ",
"                                                                                                                                ",
"                                                                                                                                ",
"                                                                                                                                ",
"                                                                                                                                ",
"                                                                                                                                ",
"                                                                                                                                ",
"                                                          . . . . .                                                             ",
"                                                      * b.N.N.}.OXOXs .                                                         ",
"                                                    _.Z.Q 0 0 d d d s XX3                                                       ",
"                                                  ,.;.i L K K K K K L X.oX                                                      ",
"                                                ;.C.l 2.2.2.2.2.2.2.K d n.d                                                     ",
"                                              i ,.! x 2.2.2.2.2.2.2.2.x ~ C.                                                    ",
"                                              f Z.> K 2.2.2.2.2.2.2.2.K H ,.X.                                                  ",
"                                              9 M.O k l K 2.2.2.2.2.2.2.x -.^                                                   ",
"                                              9 M.O 1 1 k k k S K K K K l -./                                                   ",
"                                              6 v.7 > > > > > > 1 1 1 1 < v.m.                                                  ",
"                                              6 F.b.W W W W W W W W W W -. X@X~                                                 ",
"                                              6 S.H.L.L..X X X XK.M.c.c.c.A.@X~                                                 ",
"                                              6 S.S.S.S.H.G.G.G.) ..% % % 0 |.Q .                                               ",
"                                              X 8 8 8 9 V.B.B.B.Q =.=.% X X b.E m m .                                           ",
"                                              + h h h g ; 4 4 ( D._ t.&.a @.b.E V P m .                                         ",
"                                              + z z z j h h h , ( J./ Q =...N.E V o.P y                                         ",
"                                              k 4.4.4.F z j j h y ) M.n.9 c..XE V o.o.M X                                       ",
"                                            . k l D 4.4.3.c j = *.&...$.( f.H.9 V o.o.o.;                                       ",
"                                            @ } g.' , , <.3.c = *.(.].[.'.>.R p P o.o.o.V o                                     ",
"                                            $ W.^.z.j.k.m 3.<.= &.(.[.>X:X;XX.V o.o.o.o.o.%                                     ",
"                                            $ W.^.^.^.^.j.2 4.c - (.>X+XX.).:.V C o.o.o.o.-                                     ",
"                                            Y W.~.E.R.~.z.p <.1.= /.-Xi.:X).M V t V o.o.o.N +                                   ",
"                                          X l.~.T.0.q.R.^.j.= 4.D , `.:X,X).m % #.& o.o.o.N +                                   ",
"                                          X l.Y.7.v 0.E.^.z.' D 4.D k i.p.+.y a T u o.o.J N +                                   ",
"                                          } R.r.b 7.P.E.^.^.g.k 4.4.<.F k < ; #.4 J o.o.V n +                                   ",
"                                        . 5 e | w w.I.Y.E.^.x.] S 3.4.4.F X T %.q J o.C N y .                                   ",
"                                        @ ! a w 6.w.I.I.Y.E.^.x.] q D <.l % q & M P C N m r .                                   ",
"                                        !  .p # [ 6.w.I.I.Y.E.~.~.x.T e 4 . t a % V m m y ; .                                   ",
"                                      . #. .p O k v 8.w.e.e.I.Y.Q.~.^.^.h.. ; t - n N n y X                                     ",
"                                      . #.' y y.a.: b b b v ` ` ` ] ] ] Y - < - n m n y < X                                     ",
"                                        4 ; a.#XB u u u u u u u u u u u ; - m m m n y < %                                       ",
"                                        + a.s.u.$X; # $ $ $ & & & & & & # - m y y r < < X                                       ",
"                                        5.s.L &X<X{.A 0.r.U.l.l.z.z.z.z.g.& < < < < < %                                         ",
"                                        . +   G *X1Xd.[ 8.e.P.T.E.~.^.^.^.| % < < < ; o                                         ",
"                                                G =X2Xd.[ 9.q.P.I.!.~.^.^.h.5 ; < ; o                                           ",
"                                                4 +.=X<X$XA 8.q.P.I.T.~.^.^.T X o X                                             ",
"                                                Y l.O.*X<X%Xv 9.q.P.I.T.^.g.@                                                   ",
"                                                X 5 { I =X<X%XA 6.7.0.w 5 e  .&                                                 ",
"                                                X T a . G =X<X$X2 o X   X p %.4                                                 ",
"                                                6 $.Z X   G =X2X{.        ; $.a                                                 ",
"                                                8 $.u X     G =X2XU       % p %.$                                               ",
"                                                4 ' %         G u.2         t  .@                                               ",
"                                                . # .                       X # .                                               ",
"                                                                                                                                ",
"                                                                                                                                ",
"                                                                                                                                ",
"                                                                                                                                ",
"                                                                                                                                ",
"                                                                                                                                ",
"                                                                                                                                "
};
