/* XPM */
static char *_1708992364[] = {
/* columns rows colors chars-per-pixel */
"64 64 43 1 ",
"  c None",
". c #0B1E2C",
"X c #0B202F",
"o c #0C2232",
"O c #0C2A3E",
"+ c #0C2C41",
"@ c #0E3752",
"# c #0E3956",
"$ c #0F3A59",
"% c #124367",
"& c #13466C",
"* c #13486E",
"= c #154C72",
"- c #17537D",
"; c #18547F",
": c #175581",
"> c #185681",
", c #195986",
"< c #195B8A",
"1 c #1B5F91",
"2 c #1E679D",
"3 c #1E689F",
"4 c #1F6CA4",
"5 c #1F6FA9",
"6 c #1F71AC",
"7 c #206DA6",
"8 c #206FA9",
"9 c #2071AC",
"0 c #2175B2",
"q c #247CBB",
"w c #267FC0",
"e c #2682C5",
"r c #2786CA",
"t c #2886CB",
"y c #2788CE",
"u c #2889CF",
"i c #278BD3",
"p c #298CD4",
"a c #2A8FD8",
"s c #2A91DA",
"d c #2C96E3",
"f c #2D99E7",
"g c #2D9BE9",
/* pixels */
"                                                                ",
"                                                                ",
"                           e                                    ",
"                           etiipt                               ",
"                             eupat                              ",
"                               uaapt                            ",
"                                usai                            ",
"                           44444ppaae                           ",
"                           8088090sst                           ",
"                          89898899iaat                          ",
"                         3998988990psa4                         ",
"                         899998,899<dgi7                        ",
"                        3987>>>>>,>,ig04                        ",
"                       798,>>>>>>>>><fp97                       ",
"                     77999,>>>>:;;>>,fs08                       ",
"                     4997<ppu>;:;;;><dgp94                      ",
"                     4991ugfp>-***--:<gp993                     ",
"                     599agap,&*&&&**;:fa994                     ",
"                    40psgau,*&&&&&&$$;fp<94                     ",
"                    79agap,;*&&&&&$#$-fsi984                    ",
"                    80fsu,>;&&&&&####$sa,997                    ",
"                    ifgu<>>*&&&&%#####=sp985  e                 ",
"                    pgp,>;>&&&&&###$@#epp<55  u                 ",
"                   rgp,>>>;&&&&&$##@++$$:555  it                ",
"                  eaau,::>;*&&&$##@+OO+@;4,4 tap                ",
"                  taa<>:>>;*&&%####+OO++-,:4 pau                ",
"                  up8>>;;;&*&&&$#@+OOXo=;;>46psp                ",
"                 rp08>;>:;*&&&###@+OX..O;;,90psu                ",
"                 pp08,::;;&&&&$#@OOO...X-;49paat                ",
"                 pp95,:::;&&&&$#@OOO...X-,66pap                 ",
"                 pp08>:::;*&&&###OOO..X=;,490pp                 ",
"                 p088,::;;*&&&###+OOXXX-;>,6psp                 ",
"                 p098>;>:;&*&&$#@+OOX.X->;,9ppp                 ",
"                 p988>:>;:&&&&###OOOX.X-;;,9pat                 ",
"                 i808,:::;*&&&$##+OOX.X=>,79au                  ",
"                 u 78>:;:;&&&&$#@+O+oXX-;>9pst                  ",
"                 e 79,,:;;**&&####+OOOO->>9ast                  ",
"                   78,t,:;&&&&$###OOOOO->>8ape                  ",
"                   48<t<:;&&&&$###+OOO+;>89si                   ",
"                 q 79<pu>:*&&&%$###++O+-,90gs                   ",
"                   799pp,:-*&&%$#######;;ifgt                   ",
"                   385<gi,:&**%$######;;,sgd                    ",
"                    59,gd<;*&&&%######;;,fgt                    ",
"                    59,sd,;-*&&&######;,iga                     ",
"                    58,pf2-;;&&&&###$$,igsy                     ",
"                    4890gs;;;*&&&$##$-1dgp9                     ",
"                     799ff:;;;&&&&&#$,dgs04                     ",
"                     790gs;,;;*&&&&&,if0064                     ",
"                      79fg::;,-&&**><ff068                      ",
"                      79sf,>:;-***-,dg9897                      ",
"                       7pgy<;;;;;;>,t09944                      ",
"                       70fgy,,;;;;>:<684                        ",
"                        46gp,,;;;:>89994                        ",
"                        99df07,,,7889962                        ",
"                        q80fp9998989988                         ",
"                          9psp0999994                           ",
"                           0aap99984                            ",
"                           tpsp0884 q    t                      ",
"                            taaa8   t                           ",
"                             tspi ttpw                          ",
"                              tpapait                           ",
"                                tpt                             ",
"                                 q                              ",
"                                                                "
};
