/* XPM */
static char *_1708992365[] = {
/* columns rows colors chars-per-pixel */
"64 64 45 1 ",
"  c None",
". c #0C1E2A",
"X c #0C212D",
"o c #0E2533",
"O c #0C2A3E",
"+ c #0C2C41",
"@ c #0D3752",
"# c #0E3956",
"$ c #0E3A59",
"% c #134367",
"& c #12466C",
"* c #12486E",
"= c #144B73",
"- c #17537D",
"; c #18547F",
": c #175580",
"> c #185581",
", c #195885",
"< c #175988",
"1 c #1A5B8A",
"2 c #1A6192",
"3 c #1E679D",
"4 c #1E689E",
"5 c #1F6CA4",
"6 c #1F6FA8",
"7 c #1F71AB",
"8 c #1F73B0",
"9 c #206EA6",
"0 c #206FA9",
"q c #2071AC",
"w c #2174B1",
"e c #2279B7",
"r c #257DBC",
"t c #2782C5",
"y c #2884C7",
"u c #2786CA",
"i c #2886CB",
"p c #2889CE",
"a c #278BD2",
"s c #298CD4",
"d c #2A8FD8",
"f c #2A90DA",
"g c #2C96E3",
"h c #2D99E7",
"j c #2D9BEA",
/* pixels */
"                                                                ",
"                                                                ",
"                                    t                           ",
"                                    e                           ",
"                                                                ",
"                                     y                          ",
"                            499994   ii                         ",
"                          99qq0qqq5   i                         ",
"                          0qqqqqqqq09 iu                        ",
"                         9qqqqqq6qqqq  pi                       ",
"                        9iwwa000<50qq4 pa                       ",
"                       isdsjs,>>>,9qqqqsa                       ",
"                     ysdjjjjjs11>>>9qqwasp                      ",
"                     ssssssfjjhs>>>,5q7wss                      ",
"                    issq9,,1pdhj>>;;,7qqddi                     ",
"                    sww0,>>>,>1i:**->,0qsda                     ",
"                   yu7q6>>>>>&&=&&&*-;67ssa                     ",
"                  yi 6q,;>>>;&&&%&&&$-,5wdp                     ",
"                  t 560>>;:;&&&&%$$$#$-,psp                     ",
"                  r 5q0>;>::&&&&$#####-;1sa                     ",
"                 t   5,;>:;*&&&$######$->sj7                    ",
"                    55>>:::&&&&###$###$;>sja                    ",
"                    56>>::-&&&&###$####-:fja                    ",
"                   4q,>>::&&&&&$###@+++$;sja                    ",
"                   5q,>;>;&&&&%####+++++-sjs                    ",
"               r   50>>>;;&&&&$###+++O++;sja                    ",
"               y   50>>>>>&&&&###@OO++++;sjs                    ",
"               t   90>,>>>&&&&$##@++OOXo,jjs5                   ",
"               t   5>,y,>>&&&&$#@++OOXXXijjw9                   ",
"               y  90,1ap,;&*&&###++OXXXoajjq9                   ",
"               r  q0,ia,>;&&&&##@+OOX..ohjdq9                   ",
"                  5q,as>>;&&&&###+OO...ohjsq5                   ",
"                   5qdh>>>&&&&$#@+OOX.XXda1q9                   ",
"                   98dh>>>&&&&$##++OXX.XOyqq9                   ",
"                   9qdh>>>&&&&###O++OX.X=,9q9                   ",
"                  908dh>::&&&&$##@++OOXX-,0q9                   ",
"                   5wdh>::&&&&####++O+O+-,9q3                   ",
"                   5sdh>>:&&&&$##@++OO++-,99                    ",
"                   5sdh>>>&&&&%####+++++-;,9  y                 ",
"                   5wdh>>>*&&&&###$##+++;,99  p                 ",
"                   5wjj>;;&&&&&####$####;,76 ps                 ",
"                   57jj>>-*&&&&########-:5q7psp                 ",
"                   tqjh>>>;*&&&#######$;;qqqsp                  ",
"                    qjh>>>;&&&&&######;:>qwssp                  ",
"                    0hh;>>;-&*&&######;:,7pdsy                  ",
"                    5hf;>>>;&&&&$####$::5qesp                   ",
"                     sh>>>>:=&&&&%##$$-,qwadp                   ",
"                     qh1>>>>>&&&&&&$--,6qsfdy                   ",
"                     pjp9,>>>&&&&**-,56wafdu                    ",
"                     ajq0>>;;;&&*;:,>qqsfha                     ",
"                     pfsw0>>;>,1,,1u2aejjji                     ",
"                     isdqq9>>,pghssdsjjjfp                      ",
"                      sswq0,,,idhjjjjjjfp                       ",
"                      iswqq00,1qwajjhffy                        ",
"                       saqqq000q0wwwwiy                         ",
"                       sp 000qqqqqqq9                           ",
"                       ap  9qqqqq7q9                            ",
"                       isu  39956554                            ",
"                        isp                                     ",
"                         isy                                    ",
"                          iaui                                  ",
"                             t                                  ",
"                                                                ",
"                                                                "
};
