/* XPM */
static char *_1708992365[] = {
/* columns rows colors chars-per-pixel */
"64 64 48 1 ",
"  c None",
". c #0D1E27",
"X c #0C1F29",
"o c #0D212D",
"O c #0E2432",
"+ c #0B2A3E",
"@ c #0B2B41",
"# c #0E3754",
"$ c #0E3956",
"% c #0F3B59",
"& c #103F5E",
"* c #124264",
"= c #13466B",
"- c #13486E",
"; c #154B72",
": c #174F78",
"> c #17537D",
", c #18547F",
"< c #175581",
"1 c #185581",
"2 c #175883",
"3 c #195986",
"4 c #195C8C",
"5 c #1B6294",
"6 c #1E669B",
"7 c #1E689E",
"8 c #1F6CA4",
"9 c #1F6FA8",
"0 c #1F71AB",
"q c #206EA7",
"w c #206FA9",
"e c #2171AC",
"r c #2175B2",
"t c #257EBE",
"y c #247FC0",
"u c #2683C5",
"i c #2786CA",
"p c #2987CC",
"a c #2789CE",
"s c #2889CE",
"d c #278BD2",
"f c #298DD4",
"g c #2A8FD8",
"h c #2A90D7",
"j c #2A91D9",
"k c #2C96E2",
"l c #2D99E7",
"z c #2E9BEA",
/* pixels */
"                                                                ",
"                                                                ",
"                                                                ",
"                                                                ",
"                          sffffi                                ",
"                       udsdfjjhhp                               ",
"                      udu   0fgjfiq7                            ",
"                      u    90rfhjfre8                           ",
"                           qeerhjhfeeq                          ",
"                          qee000fzjree                          ",
"                        6qeeq1314kzfee7                         ",
"                       8weee3,1,3dzleeq                         ",
"                       qeq111111<4flree7                        ",
"                       ww31111,113dzfeee9                       ",
"                      qew1111,,,<13fk4wew                       ",
"                      wq31111,1,->,dzf3we7                      ",
"                     8w11111,,,-==-4kf3qew8 u                   ",
"                 u   9w<13,1,-=====;u3<1ewq u                   ",
"                    8ew4jl11,====*%$%,1<wew u                   ",
"                    q0rfzk,>--=*=%%$$%,1wew u                   ",
"                    9wrzl4,,-===%$$$$%,,1ww u                   ",
"                    wrfzd3,>===*$$$$$$>,<wq u                   ",
"                    efzk41,-===$$$$$#$%><eq u                   ",
"                   80fl111,====$$$$@@@@>,wewju                  ",
"                   8rlj,<1,-==*%$$@@@+@,13wehu                  ",
"                   8rk5<1,,-===$$#@+@+@><19ehi                  ",
"                   9zk3,,,,-==%$$#@@+.o>,3eefi                  ",
"                  wezd31<,-===$$$@@+o.o;,<eehu                  ",
"                  9rl411,,-===%$#@@+...o>10ehi                  ",
"                   kl3,1<,====%$#@@+o.oo>1qefi                  ",
"                  uzd311<,-===%$#@++...o><efhu                  ",
"                  dl3111<,====$$#@++...o>1ehjs                  ",
"                  sl11>111-===%##+++o..o>>3fgu                  ",
"                  jl111111-==*%#$@@+o.o;1<4zd                   ",
"                  kl11111>====%%#@++.oo>,3dzs                   ",
"                  slq31111=--*%$$$@@+oo:13fzs                   ",
"                  dzw311,,====%$$$@++++>14kzu                   ",
"                  plw1111,-==*%$$$@@++@><dzgw                   ",
"                  plrq1111====%$$#@@@@@,<zzi                    ",
"                  prww1111=-==%$$$$@@@@>3zge                    ",
"                 dfeew3>1,====*%$$$$$$%3klr0                    ",
"                 gs ww311<>-===%$$$$$$3dzh08                    ",
"                 fs ww311,,-===%%$$$$&dzzf0                     ",
"                 fs qwq1<<,>===*$$$$&izzjr9                     ",
"                 fd qee3311,====$$$$$*jzd0q                     ",
"                 gs qwewp41,====&$$$%>4i40q                     ",
"                 fs  qeekk11,====%$$%,<3eeq                     ",
"                 fd  7ee5k4<<,===*%$%,39ee7                     ",
"                 fd   qeekk31>=====%>,9eew                      ",
"                 ss   weerz41<;===>,><weeq                      ",
"                  u   we9rfk41>-->1<<3wew    p                  ",
"                  t   qee9rlk31>,,<190eeq   jj                  ",
"                       89rrgzf4w<139eee8    f                   ",
"                        7werlzdrew9eee7   y                     ",
"                         9wefzgrreeeee   pu                     ",
"                          8ergzzjfreffffdd                      ",
"                           9efjzjjfhhjfsp                       ",
"                            6 ujjhjjjhu                         ",
"                               idhhjjf                          ",
"                                 ypuiu                          ",
"                                                                ",
"                                                                ",
"                                                                ",
"                                                                "
};
