/* XPM */
static char *_1708992364[] = {
/* columns rows colors chars-per-pixel */
"64 64 48 1 ",
"  c None",
". c #0D1C27",
"X c #0D1D29",
"o c #0E202D",
"O c #0C2A3E",
"+ c #0C2B41",
"@ c #0C2F48",
"# c #0D3048",
"$ c #0D3752",
"% c #0E3956",
"& c #0F3B59",
"* c #103B5A",
"= c #124467",
"- c #12466B",
"; c #12486E",
": c #154B73",
"> c #17537D",
", c #18537E",
"< c #175681",
"1 c #185581",
"2 c #175887",
"3 c #195986",
"4 c #1A5B8A",
"5 c #1A5F90",
"6 c #1C6192",
"7 c #1E679C",
"8 c #1E689E",
"9 c #1F6CA4",
"0 c #1F6FA9",
"q c #1F71AB",
"w c #206DA6",
"e c #206FA9",
"r c #2071AC",
"t c #2175B2",
"y c #257CBC",
"u c #267FC0",
"i c #2682C5",
"p c #2785CA",
"a c #2886CC",
"s c #2789CF",
"d c #2988CE",
"f c #278BD2",
"g c #298CD5",
"h c #2A8FD8",
"j c #2B92DD",
"k c #2C96E2",
"l c #2D99E7",
"z c #2D9BEA",
/* pixels */
"                                                                ",
"                                                                ",
"                                                                ",
"                              y                                 ",
"                         upiggggga                              ",
"                            pggghha                             ",
"                               ghhg                             ",
"                             9egghjae                           ",
"                          9eerrrtghha                           ",
"                         9qqrrrrrtgjge                          ",
"                        7rqrre0reqkhhq7                         ",
"                        9rqq033e042lhqr9                        ",
"                       9rr931111111klt09                        ",
"                       rrr3111111134klt09                       ",
"                       erw1,1,111>114lgtq9                      ",
"                      9rw3441,11-:<>2ll5q0                      ",
"                     8re44kh411,-;>14hlgre                      ",
"                    wrrrhhlg2>;----<3gzgrr9                     ",
"                    eqtghzf41------&<azhrq9                     ",
"                    wrqjlh211-----&&>4lgrrw  y                  ",
"                    0tgzzg11----%%%%*,lg400  i                  ",
"                   8rtlzs41,----%%%%%&j410e9 i                  ",
"                   9thlg411;----%%&%%%a3130e i                  ",
"                   9glh3111----*%%%$++>,130rda                  ",
"                   0zzg<<1,;---%%&%++O@:<14ega                  ",
"                   ezg4,,1,;--=%%%++OO+@>39egga                 ",
"                   fzd3,1<-----%%$+OO+.X>1ergjg                 ",
"                  phl411,<;---*%$++OOX.o>3erjgg                 ",
"                  agt1,11,;;--%%%+OO...o>1wrghd                 ",
"                 ahgr111<,-;--%%$+OO...o,11rga                  ",
"                 ggtr<111,-;--%%%+OO...o>,40ga                  ",
"                 ggte31,1,----%%$+++...o>39tga                  ",
"                phgte11111----*%%+OO..X><<rgha                  ",
"                sgtte11111----%%$+OO...><<rhha                  ",
"                sheee3111,----*%%+OO..o>1<rghi                  ",
"                sg we21111;--=*%$+OOO..>,1rga                   ",
"                ug we21111---=%%%$+++O+>,3rgd                   ",
"                 s 9e1111,----%%%$OOOO+><4kjp                   ",
"                 d 9e11111-;--%%%$OO+O#>14kg                    ",
"                 d 7e31311;-;-*%%%+++O>,,glg                    ",
"                 d  ww3g4,,;;;=%%%%%%%11<llg                    ",
"                 d  we3gj3,;;=-%%%%*%%,14ljd                    ",
"                 d  we4hk4,;;;=%%*%%%&<3klg0                    ",
"                 i  ww3hk5,,;=-=%%%%&><4lgr                     ",
"                    ww4glh,,----*%%&&,5jlt0                     ",
"                     w94kl1,----=&%&>2kltq9                     ",
"                     wrrhl<1,------&<lzltr9                     ",
"                     wrrgl31,;----->4lktr09                     ",
"                      ertl311,;----13j6wrw                      ",
"                      9rtlk3<,,;-;>1120ew                       ",
"                       wtgl41111>11139rrw                       ",
"                       ertlg41,11<1<3qrrw                       ",
"                       9rrhlg11,13werrrw                        ",
"                        7rtlj33<39errrw7                        ",
"                         0rtkrrqerrrrw                          ",
"                         9rrglgtrrrrw                           ",
"                          99ehhgrrrew     i                     ",
"                             tggttt0 pgi                        ",
"                             ahjhhhhghga                        ",
"                              idhhhghdi                         ",
"                                dggga                           ",
"                                 y                              ",
"                                                                ",
"                                                                "
};
