/* XPM */
static char *_1708992364[] = {
/* columns rows colors chars-per-pixel */
"64 64 48 1 ",
"  c None",
". c #0D1C27",
"X c #0D1D29",
"o c #0D202E",
"O c #0F2435",
"+ c #0C293E",
"@ c #0C2B41",
"# c #0E3047",
"$ c #0F334C",
"% c #0D3753",
"& c #0E3956",
"* c #0E3B59",
"= c #134467",
"- c #13466B",
"; c #13486F",
": c #154E76",
"> c #17537D",
", c #18547F",
"< c #175682",
"1 c #185581",
"2 c #175986",
"3 c #195886",
"4 c #175A88",
"5 c #195B8A",
"6 c #1D669B",
"7 c #1E689E",
"8 c #1F6CA4",
"9 c #1F6FA9",
"0 c #1F71AC",
"q c #206EA6",
"w c #206FA9",
"e c #2071AC",
"r c #2174B1",
"t c #2279B7",
"y c #247DBD",
"u c #257FC0",
"i c #2683C5",
"p c #2786CB",
"a c #2886CB",
"s c #2789CE",
"d c #2888CE",
"f c #278BD1",
"g c #298CD4",
"h c #2A8FD8",
"j c #2A90DA",
"k c #2C97E4",
"l c #2D99E6",
"z c #2D9BEB",
/* pixels */
"                                                                ",
"                                                                ",
"                                  y                             ",
"                                                                ",
"                                   ii                           ",
"                                    i                           ",
"                              68888 ip                          ",
"                            88eeeeq  fp                         ",
"                          9w0eeeeee8 gd                         ",
"                         8weeeeweeeeeehi                        ",
"                        6eeew9ww00eweegs                        ",
"                        8eew9331138eeegjd                       ",
"                       8rggd5531,,2qeergg                       ",
"                      shhhhhgf51,11380egg                       ",
"                      fzzzzzzzj511113eehgd                      ",
"                    ajzzgfhhffs3,,,,<qegjg                      ",
"                    ftgr555533:-;--;,1wfzg                      ",
"                   agerw1,1,1-------*,14lzd                     ",
"                  igeew311,1>----=-**,13gzg                     ",
"                  ddeew1111>;----&&&&*>3gzg                     ",
"                 ds ww3,1,1>----&&&&&&*2gzg                     ",
"                 gp qw1111>:--=*&&&&&&*2gzg                     ",
"                 gpwew3,11>:---&&**&&&*1gzf                     ",
"                 d qee<1>1>----&*&&%@@&1gzgq                    ",
"                 i qwq1111,;---&&&%@@@#>lzgq                    ",
"                y  qe31,1,,;--=&&&@@@@@$kzrw                    ",
"                u  qe1111,----*&&&@+@@+$klew                    ",
"                   8e1111,----*&%@@@@+XOlg5w7                   ",
"                   8e1,,1,-;--&&%@@++XXOkg5e8                   ",
"                  8ew1311,----&&&@++X..Okg5e8                   ",
"                  eew4i11,----&&%@@+X..Oggee8                   ",
"                  w034d11,----&&&@@+X...Oaee8                   ",
"               y  qq35f111---=*&&@@+XX.XX1808                   ",
"               p   q1dl111;---&&&@@+X...X1we8                   ",
"               u   q3gl111----*&&@@++..X:1qe8 p                 ",
"                   q4gl11,---=*&&%@@++XO>13e8 s                 ",
"                   8whl11,----&&&%@@@@+@>,1e6 d                 ",
"                   8whl11,;---&&&%@@@+@@,,1q ig                 ",
"                   8ehl11,;---*&&&%@@@@@,3qw ag                 ",
"                   8rgl11,;---=&&&&&@@@>,qeedhg                 ",
"                   8ehl11,----=&&&&*&&&>,3eehgf                 ",
"                   7rgl1<1,;---**&&&&&*,1qeggd                  ",
"                    9hl1<<,;----*%&%&&*>10rgha                  ",
"                    9hl1,,,-----&&**&&,,1wrhji                  ",
"                    9gl1,1,,----**&&&&,38rgha                   ",
"                    8rk4<,1,;---=*%*&*,3wrghi                   ",
"                    8rzf3<<,,;---=***,1qeghg                    ",
"                     9ll5,<,<,----=*,,eehjha                    ",
"                     qgl41111,;---->,3dtzlg                     ",
"                      el51111,,;--115gjzzja                     ",
"                      ejde1,1,13245hhzzzji                      ",
"                      agge<11,3agglzzzzjd                       ",
"                       ggrw3113fzzzzjgjp                        ",
"                       fgeeq313eerrerea                         ",
"                       agreee9weeeeeeeq                         ",
"                        dgeeeeeeeee0e8                          ",
"                        id qeeeeeeeq7                           ",
"                         fdrq8q8e08                             ",
"                         fhd    w7                              ",
"                         ajgdd                                  ",
"                          dghhi                                 ",
"                            afi                                 ",
"                                                                ",
"                                                                "
};
