/* XPM */
static char *_1708992365[] = {
/* columns rows colors chars-per-pixel */
"64 64 47 1 ",
"  c None",
". c #0C1D2A",
"X c #0D202E",
"o c #0E2435",
"O c #0B2A3E",
"+ c #0B2C41",
"@ c #0D324A",
"# c #0D3753",
"$ c #0E3956",
"% c #0E3A59",
"& c #103752",
"* c #134467",
"= c #13466B",
"- c #13486E",
"; c #144A72",
": c #164E78",
"> c #17537D",
", c #18547E",
"< c #175581",
"1 c #185581",
"2 c #175885",
"3 c #195986",
"4 c #195B8B",
"5 c #1A6092",
"6 c #1E679D",
"7 c #1E689F",
"8 c #1F6CA5",
"9 c #1F6FA9",
"0 c #1F71AC",
"q c #206DA6",
"w c #206FA9",
"e c #2071AC",
"r c #2174B2",
"t c #2278B6",
"y c #257DBD",
"u c #257FC0",
"i c #2682C4",
"p c #2785C9",
"a c #2886CA",
"s c #2788CD",
"d c #2889CE",
"f c #298CD3",
"g c #2A8FD8",
"h c #2A91DB",
"j c #2C96E3",
"k c #2C99E6",
"l c #2D9BEA",
/* pixels */
"                                                                ",
"                                                                ",
"                                                                ",
"                                                                ",
"                                                                ",
"                                       y                        ",
"                             88qq88    y                        ",
"                         y 880eeeee7                            ",
"                        afffeeeeeeeeeq                          ",
"                       pflllhhfeeqeeeq  p                       ",
"                      pgtfhlllgr228eee6 i                       ",
"                     pdeergggllf3,2qeee6 i                      ",
"                    pi qeew33fjlf213qeeq pp                     ",
"                   pp qeee31135kk4112wwq df                     ",
"                   i  eeq31,113dkd2,1weewgd                     ",
"                  y   weq3111,>;:i--,3ee0rs                     ",
"                      we4,111>===;==>1qe0dgp                    ",
"                      wq1111,=====$%%,1qwrff                    ",
"                     8e1,1111===$$$$$$>29rgd                    ",
"                    8ew11,11,==*$$$$$$>1weff                    ",
"                    8921,11>===%$%$%$$%,wrff                    ",
"               y    892,111>===$%$$$$$%,1eff                    ",
"               i    qw11111-===$$$$$$$$>1wff                    ",
"               i    q2,211,====$$$$++O+>13fd                    ",
"                   6e12d22,====$$$#+OO+>12ff                    ",
"                   8w12k4,,==*$$$$+OOOO+>3fg8                   ",
"                   824jj4,====%$$#OOOO.X>3fl8                   ",
"                   q94j41,====%$$#OOO..X>4flq                   ",
"                   8efk1,,=;==$$#OOOO...>fkgq                   ",
"                  8erkk121====$$$OOO...X>fkg8                   ",
"                  eerkf1,,-==*$$#OOO....>glg8                   ",
"                  80gj41,,=-==$$$+OO...X>glg8                   ",
"                   qgj3111====%%#OOO....>klg8                   ",
"                   qlj4111--==%%$+OO...X>kkr8                   ",
"                   wlj4111====%$&+OOO..X>kge8                   ",
"                  wrlf3111===*$$$OOOO..ojkfr8                   ",
"                  yrlf31,,====$$$+OOOOO&jk5wq                   ",
"                   wlf311,====$$$#+OOO@fkgrw8                   ",
"                   dlf3111====$$$$++O+O@149e8                   ",
"                   flf4111====$$$$##+OO+>2qe6                   ",
"                   dhf2111====$$$$$$$$&%<9ew                    ",
"                   dff311>=====$$%$$$$$%1ee8                    ",
"                   dff311>;====$$$%$$$$>,we8                    ",
"                   dhf3111>===*$$$$$$$$,1e8                     ",
"                   dgfe,11>=====$$$%%%,1qe8  y                  ",
"                   igfe3111>====%$$$%>,1w08 dp                  ",
"                    ffew11111====*$$%,12ww dgi                  ",
"                    ffee31111-=====%>12qerpgd                   ",
"                    ffeeq3,1>>=====,,13q0dggd                   ",
"                    fgee92,131;==;,111eeeggfp                   ",
"                    dfreeq14hj5<21112wetggf                     ",
"                    fgfeee12flh5p41wweffggf                     ",
"                    dgf9ee032gklhg4fthhlggp                     ",
"                     i  8eewwrjgklklllllgi                      ",
"                     dp 6weewerrhhllklhgp                       ",
"                     dd   qweeeerfghfggp                        ",
"                      fp   8eeee0rdi i                          ",
"                      dp   8888w888                             ",
"                        y      8                                ",
"                        y                                       ",
"                                                                ",
"                                                                ",
"                                                                ",
"                                                                "
};
