/* XPM */
static char *_1708992365[] = {
/* columns rows colors chars-per-pixel */
"64 64 45 1 ",
"  c None",
". c #0C1C2A",
"X c #0D202F",
"o c #0D2232",
"O c #0C2A3E",
"+ c #0C2C41",
"@ c #0D3048",
"# c #0E3753",
"$ c #0E3955",
"% c #0E3B59",
"& c #124367",
"* c #12466B",
"= c #13486E",
"- c #154D75",
"; c #17537D",
": c #18547E",
"> c #175580",
", c #185581",
"< c #175883",
"1 c #195986",
"2 c #1A5C8B",
"3 c #1B5E90",
"4 c #1C679C",
"5 c #1E699F",
"6 c #1F6CA4",
"7 c #1F6FA9",
"8 c #1F72AD",
"9 c #206DA6",
"0 c #206FA9",
"q c #2071AC",
"w c #2175B2",
"e c #2178B6",
"r c #247DBD",
"t c #2683C6",
"y c #2786CA",
"u c #2886CA",
"i c #2788CD",
"p c #2889CE",
"a c #278AD1",
"s c #298DD4",
"d c #298FD8",
"f c #2A91DB",
"g c #2C96E3",
"h c #2D98E6",
"j c #2D9BEA",
/* pixels */
"                                                                ",
"                                                                ",
"                                                                ",
"                                                                ",
"                                                                ",
"                         uspu                                   ",
"                       tadfdfuqq999                             ",
"                      usspsfhfssqqq5                            ",
"                      asu qsfjjfqqqq6     r                     ",
"                     ty  5qqwsjjdsqq0                           ",
"                    rt   7qq0wsjjdwqq95                         ",
"                         7q02:2pjjdqq009                        ",
"                        5q061::2sjd2<0qq6                       ",
"                       6q0,,,,,,2gjp20qq0  y                    ",
"                       772,,:,:;,1hs1,0qq6 y                    ",
"                      6q6,,,,:;==-gg1,00qq y                    ",
"                      002::,::=***-u<><9q0 p                    ",
"                     60,,:,,:=*****=;>><q0 p                    ",
"                r    70,:,,::****&%%%;>,00 ay                   ",
"                r    90,1:,:=***&%$$$%:,000si                   ",
"                    6711u1::****%$$$$$:,7qqsi                   ",
"                    971ss1,;****%$$$$$%:<qwsp                   ",
"                    072jf2:=***%$$%$$$%;,0qdi                   ",
"                   6q8sj2::***&$$$$+++$:,qqdi                   ",
"                   6qwdj1,:=***%$#++++-::qqdi                   ",
"                   6wsjg<,:=**&%$#+O++@;,qqddt                  ",
"                   6wsj,>>:=*&%#$#+++OX-:,0ddu                  ",
"                   9wgg,>:;=*&%$$+++OX.o:,0ddt                  ",
"                  9qsg3,>:****%$$++OO...;:1sp                   ",
"                  0wfg1,>:=***%$#++O....;:2sp                   ",
"                  6qjg1,>:*=**%$#+OO....;<tda                   ",
"                   7jg1<>:***&%$$+OO...X:,2df                   ",
"                   ph2,,,,=***%$#++O....;<adg                   ",
"                   aj1,,,>==*&$$$++O...o:1aja                   ",
"                   gh1,,,;=**&%$$++O..X->1sji                   ",
"                  ujj1,,,,****%$#++OO.o->2hj0                   ",
"                  pjh1,,;;**&&%$$#++OO+;,2hj0                   ",
"                  pjj1,,,,*==*%%$$+++++;,sjf6                   ",
"                  pjd1,,,,=*=&$$$$#++O+,pjhq                    ",
"                  pjd9,,,,*=*&%$$$##@+@1sjs8                    ",
"                  ujjq1:,:****%$$$#$$$%ujjw0                    ",
"                   phq1,,:***&%$$$$$$$ugjpq0                    ",
"                   pqq9,,>=***&%$$$$$$13p3q0                    ",
"                   uqqq:,,>***&%$$$$$$::,0q0                    ",
"                   iqqq1,,:*****%$$$$%::,qq5                    ",
"                   iqqq9,,,;****&%$$$$:10q0                     ",
"                   psqqq,,>>=****%$$%:,1qq0                     ",
"                   ppqqq1,1>>****&%$%,:10q9                     ",
"                   y 57q61i2:***=&%%;,160q6  y                  ",
"                   t  0q72hg2>=*==>,:,0qq6   i                  ",
"                   t  6q863gg<:=::,,><qq0                       ",
"                   pt  6887eg1<,:>,,16qq6  t                    ",
"                   pp   90qwhda1,9<0qqq6 uas                    ",
"                   t    6qqqwjjs2w0qqqwsasit                    ",
"                   r    6q8qqdjjjdwawqsdsy                      ",
"                         66qqwsjjjjddsfdp                       ",
"                           6qqwsgjjjffdp                        ",
"                            5q8uddffddpt                        ",
"                             4  yaaapi                          ",
"                                                                ",
"                                                                ",
"                                                                ",
"                                                                ",
"                                                                "
};
