/* XPM */
static char *cea23f6920604d7982ca22f0f2973af9BLgwxsGNiHsTKTtz[] = {
/* columns rows colors chars-per-pixel */
"64 64 98 2 ",
"   c None",
".  c #A27400",
"X  c #A77800",
"o  c #AA7C00",
"O  c #AF8000",
"+  c #B28300",
"@  c #B78900",
"#  c #BB8C00",
"$  c #BF9000",
"%  c #C39400",
"&  c #C69800",
"*  c #CA9B00",
"=  c #C3A300",
"-  c #CBAB00",
";  c #D3A400",
":  c #D6AA00",
">  c #DCAC00",
",  c #CFB400",
"<  c #D4B400",
"1  c #DCB400",
"2  c #DCBC00",
"3  c #E0AF00",
"4  c #E3B300",
"5  c #E2BB00",
"6  c #EBBB00",
"7  c #DDC100",
"8  c #DEC20A",
"9  c #E5C400",
"0  c #EBC200",
"q  c #E4CD00",
"w  c #F4C400",
"e  c #F8C700",
"r  c #F1CD00",
"t  c #FDCC00",
"y  c #E4D200",
"u  c #EBDB00",
"i  c #F4D300",
"p  c #FDD500",
"a  c #F6DB00",
"s  c #FEDC00",
"d  c #F9DB17",
"f  c #F1E700",
"g  c #FEE300",
"h  c #FEEA00",
"j  c #FEE803",
"k  c #FEE900",
"l  c #FEEC00",
"z  c #FEED00",
"x  c #FFED00",
"c  c #FEEE00",
"v  c #FFEE00",
"b  c #FCE807",
"n  c #FAEA00",
"m  c #FEE908",
"M  c #FFF000",
"N  c #FEF100",
"B  c #FEF200",
"V  c #FFF300",
"C  c #FEF700",
"Z  c #FFF700",
"A  c #FEF300",
"S  c #FFF800",
"D  c #FEF900",
"F  c #FEFA00",
"G  c #FEFB00",
"H  c #FEFC00",
"J  c #FFFC00",
"K  c #FFFE00",
"L  c #FFFD05",
"P  c #FEF40D",
"I  c #FFFB0E",
"U  c #FDE014",
"Y  c #FDE61E",
"T  c #E0C125",
"R  c #FEED20",
"E  c #FEF424",
"W  c #FFFE2E",
"Q  c #FEF33F",
"!  c #FFFE3E",
"~  c #E4CE41",
"^  c #F0DD42",
"/  c #FEE643",
"(  c #FEE647",
")  c #FEEC43",
"_  c #FFF653",
"`  c #E4CF6F",
"'  c #FFFE67",
"]  c #FFF66D",
"[  c #FEFC6B",
"{  c #F9E792",
"}  c #FEF893",
"|  c #FEFB97",
" . c #FEF2A4",
".. c #FFFEAA",
"X. c #FEFBB4",
"o. c #FFFEC8",
"O. c #FFFECE",
"+. c #FEFED5",
/* pixels */
"                                                                                                                                ",
"                                                                                                                                ",
"                                                                                                                                ",
"                                                                                                                                ",
"                                                                                                                                ",
"                                                                                                                                ",
"                                                                                                                                ",
"                                                                                                                                ",
"                                                                                                                                ",
"                                                                                                                                ",
"                                                                                                                                ",
"                                                                                                                                ",
"                                                                                                                                ",
"                                                                                                                                ",
"                                                      9 i a s s s s e w 6 :                                                     ",
"                                                9 i s g m ) x x h g s t t t e 6                                                 ",
"                                            1 a s h _ ..X.Q x h h h h g g s t t t :                                             ",
"                                          9 s g ] +. ./ i 5 < < < < 2 5 t p p t t 6 4                                           ",
"                                        9 s x P ( d 2 = = < 5 9 9 9 2 @ . # 6 t t w 6 6 *                                       ",
"                                      9 a N h s 2 = < r b E G G H G N g w ; X # 6 w 6 6 6 *                                     ",
"                                    5 r N g i - - i R | o.! H x g i i t t t e ; . & : 4 6 6 @                                   ",
"                                  ; 4 n g i = 2 U } O.' I h s a 2 , = 6 t t t t 6 o # ; 4 6 >                                   ",
"                                & 4 0 g i = 9 Y [ W L x s s s 7 a * # 6 t t t t t 6 o # ; > 4 *                                 ",
"                                > 4 w t = 2 g H H G g s s s 8 g e * # 6 t t t t t 6 > . * ; > ; @                               ",
"                              * 4 1 t % & g H H N s s s s T { t e * # 6 t t t t t 6 6 & . * ; ; *                               ",
"                              ; : 4 4 . 0 V H N s s s s 9 ^ t t e * # 6 t t t t w 6 6 4 o O ; ; ;                               ",
"                              ; * 6 + & x H x p s s s 9 u ; e t e * # 6 t t t t 6 6 6 6 * . $ ; * %                             ",
"                            % ; & ; . 6 H G t t t t 0 y ; @ w t e * # 6 t t t w 6 6 6 6 4 X + ; * &                             ",
"                            * * & # X g H s t t t 0 q > # ; q t e * # 6 t t w 6 6 6 6 6 6 # o # * *                             ",
"                            ; & & O # N V t t t t : > : > w ~ t e * # 6 e 6 6 6 6 6 6 6 6 * . @ * *                             ",
"                            ; & % o & f s t t t t t t t t w ` t w * # 4 6 6 6 6 6 6 6 6 6 ; . + & * $                           ",
"                            ; % # X % u 0 w t t t t t t t w y t w * # > 6 6 6 6 6 6 6 6 6 ; . + # * %                           ",
"                            ; % @ o # q 6 6 6 w w e e e w 6 y t w * # > 6 6 6 6 6 6 6 6 > * . + # * %                           ",
"                            ; % @ o # 1 6 6 6 6 6 6 6 6 6 4 y t w * # > 6 6 6 6 6 6 4 > > * . + # * %                           ",
"                            * & @ o @ ; 4 6 6 6 6 6 6 6 6 4 y t w * # > 6 6 6 6 6 4 > > : % . + # * #                           ",
"                            & & @ + o ; : 6 6 6 6 6 6 6 6 4 y t w * # > 6 6 6 4 > > > > ; # . + # *                             ",
"                            # & + + . * ; 4 6 6 6 6 6 6 6 4 y t w * # > 6 4 > > > > > : * o o + $ *                             ",
"                            @ * @ + . # ; ; 4 6 6 6 6 6 6 4 y t 6 * # ; > > > > > > : * & . + + & %                             ",
"                              * $ + o . * * ; 3 6 6 6 6 6 4 y t 6 * # ; > > > > > : * * + X + @ * #                             ",
"                              # * + + . @ * * * ; > 4 4 4 : q t 6 * # ; > > > > ; * * % . + + % &                               ",
"                                * # + + . $ * * * * * ; : ; q t 6 * # ; > : ; * * * * X o + @ * #                               ",
"                                # * @ + o . % * * * * * * * q t 4 * # & * * * * * * o . + + % &                                 ",
"                                  & % + + o . % * * * * * & 9 e : & # % * * * * & o . + + # * o                                 ",
"                                    * # + + o . # * * * * & 5 4 ; @ # % * * * % . . + + + & $                                   ",
"                                    @ * @ + + o . X # * * & # # # # # & * % O . o + + + % %                                     ",
"                                      @ * # + + + o . . + # % & & % # @ X . X + + + + % %                                       ",
"                                          & # + + + + o X . . . . . . X o + + + + @ & $                                         ",
"                                            % & # + + + + + + + + + + + + + + @ # & X                                           ",
"                                                % & # @ + + + + + + + + @ # % & #                                               ",
"                                                    # & * & % # # $ % & & % @                                                   ",
"                                                              $ $                                                               ",
"                                                                                                                                ",
"                                                                                                                                ",
"                                                                                                                                ",
"                                                                                                                                ",
"                                                                                                                                ",
"                                                                                                                                ",
"                                                                                                                                ",
"                                                                                                                                ",
"                                                                                                                                ",
"                                                                                                                                ",
"                                                                                                                                ",
"                                                                                                                                ",
"                                                                                                                                "
};
