/* XPM */
static char *result[] = {
/* columns rows colors chars-per-pixel */
"64 64 82 1 ",
"  c #9F7200",
". c #A27400",
"X c #A77900",
"o c #AB7D00",
"O c #AF8100",
"+ c #B28300",
"@ c #B78800",
"# c #BC8D00",
"$ c #BF9000",
"% c #BF9F00",
"& c #C29300",
"* c #C69900",
"= c #CA9B00",
"- c #C5A500",
"; c #CFA000",
": c #CBAB00",
"> c #D3A400",
", c #D5A800",
"< c #DCAC00",
"1 c #D4B300",
"2 c #DCB100",
"3 c #D5BA00",
"4 c #DCBB00",
"5 c #E2B200",
"6 c #E1BB00",
"7 c #EBBB00",
"8 c #E0BB27",
"9 c #DDC500",
"0 c #DFC215",
"q c #E4C400",
"w c #EBC500",
"e c #E5CC00",
"r c #EFCB00",
"t c #EFCF0A",
"y c #F4C400",
"u c #F8C700",
"i c #F3CC00",
"p c #FDCD00",
"a c #FCCC0B",
"s c #E7D300",
"d c #E8D400",
"f c #E4D805",
"g c #F4D300",
"h c #FCD500",
"j c #FDDC00",
"k c #E7CD14",
"l c #ECD113",
"z c #F9DA10",
"x c #FDE201",
"c c #FEEB00",
"v c #FFF200",
"b c #FEFC00",
"n c #FEED13",
"m c #FEF416",
"M c #FEFE14",
"N c #FFFE1D",
"B c #FED428",
"V c #FEE625",
"C c #FEE22D",
"Z c #FEF224",
"A c #FFFD24",
"S c #FEE43B",
"D c #FFEC3C",
"F c #E8D347",
"G c #FEE540",
"H c #FEF453",
"J c #FEF65B",
"K c #FFFE5A",
"L c #E8D472",
"P c #FEFD63",
"I c #FEEB70",
"U c #FEE57F",
"Y c #FFFA84",
"T c #ECE3A4",
"R c #FEFDA3",
"E c #FEFEA9",
"W c #F9F5BD",
"Q c #FEFCBA",
"! c #FFFDC5",
"~ c #FCF6D7",
"^ c #FEFAD5",
"/ c None",
/* pixels */
"////////////////////////////////////////////////////////////////",
"////////////////////////////////////////////////////////////////",
"////////////////////////////////////////////////////////////////",
"////////////////////////////////////////////////////////////////",
"////////////////////////////////////////////////////////////////",
"////////////////////////////////////////////////////////////////",
"////////////////////////////////////////////////////////////////",
"////////////////////////////////////////////////////////////////",
"////////////////////////////////////////////////////////////////",
"////////////////////////////////////////////////////////////////",
"////////////////////////////////////////////////////////////////",
"////////////////////////////////////////////////////////////////",
"////////////////////////////////////////////////////////////////",
"////////////////////////////////////////////////////////////////",
"/////////////////////////>,52wrhjxjhu7,/////////////////////////",
"///////////////////////7ppyihxxDcccxpppu5///////////////////////",
"/////////////////////<ppuyhxnY!Hccxcxxjpp7//////////////////////",
"////////////////////dcccwjxY^Iz931136uhhpu7*////////////////////",
"///////////////////TEERkgcmGt:%1qqw4*.#7pp77;///////////////////",
"//////////////////fMMMlrcvj1-qxZbbbbxi,.*y777*//////////////////",
"/////////////////3cccdwjvh:1jJ!Kbchgpppy#+,577//////////////////",
"/////////////////pppi<wch-4VQRAcjg312phpp&o><7=/////////////////",
"////////////////,yyy<5gj13VPAbxjh9r#5ppppu#@>55/////////////////",
"////////////////555<<5h4:xbbvjjS0jw#<phppu7X*><=////////////////",
"///////////////*555,55yogbbcjjC^~B7&<ppppu7>.>,>////////////////",
"///////////////<555;,7&&cbvjxjlWYa7#<pppp775O@>>&///////////////",
"///////////////555>>;7.wbvhjjhe8ap7&<phpu777=.=>*///////////////",
"//////////////&555>>**Ocbhppp46#7p7&2ppp77775.#;=///////////////",
"//////////////,555>;*o*bcpph5w&*dp7&5ppy77777+o*=///////////////",
"//////////////<<55;==o2bhppu1,,yFp7#2u7777777#o&=@//////////////",
"//////////////>>;;=*&.5cpppppppiLpy#<77777777*X@*&//////////////",
"//////////////#&&&=*&.<dypppppppdp7#,77777777&.+=&//////////////",
"//////////////$$&&=&#.,w77yuupu7dp7$,7777777<&X+=&//////////////",
"//////////////$&&&=*@.=777777775dp7#,777777<<&X+*&//////////////",
"//////////////#$&#&*+X*<77777777dp7$>77775<<>#X+*#//////////////",
"//////////////#&&&&*@o&>77777777dp7#>7775<<<>ooo=o//////////////",
"//////////////@&&&#*@oo><7777777dp5#,755<5<<=Xo@=///////////////",
"///////////////$#&&*#oX=;5777777du7#,5<<<<<;&.+#*///////////////",
"///////////////&&&#&&oX@=><77777dp5&=<<<<<>*+X+&&///////////////",
"///////////////+o@o#=+oX===;<<5<dp<&;<<<<;*&.+@=////////////////",
"////////////////o++o*#oXo====><<dp,&><,>===oX+#*////////////////",
"////////////////oo++&&++.&=*====ep>#=====*#.++*.////////////////",
"/////////////////++oo*#oo.&*===*wy<#&===*&.o+#&/////////////////",
"/////////////////o++o#*@oo.#=*==5<;o*=**#.o+@*//////////////////",
"//////////////////oO++&&++o.+&**#$##&*&X.o++&#//////////////////",
"///////////////////O+oo&&+++X.o#&&&$#o.X+++#&///////////////////",
"////////////////////++++&&++++o..  ..o++o+&&////////////////////",
"/////////////////////oo+o&&@++++++++++++#&#/////////////////////",
"////////////////////// . .o&&#+++o++++#&&///////////////////////",
"////////////////////////   .+$*&&&#&&*&/////////////////////////",
"///////////////////////////// .o@&&/////////////////////////////",
"////////////////////////////////////////////////////////////////",
"////////////////////////////////////////////////////////////////",
"////////////////////////////////////////////////////////////////",
"////////////////////////////////////////////////////////////////",
"////////////////////////////////////////////////////////////////",
"////////////////////////////////////////////////////////////////",
"////////////////////////////////////////////////////////////////",
"////////////////////////////////////////////////////////////////",
"////////////////////////////////////////////////////////////////",
"////////////////////////////////////////////////////////////////",
"////////////////////////////////////////////////////////////////",
"////////////////////////////////////////////////////////////////",
"////////////////////////////////////////////////////////////////"
};
