/* XPM */
static char *result[] = {
/* columns rows colors chars-per-pixel */
"64 64 91 1 ",
"  c #9F7100",
". c #A37500",
"X c #A77900",
"o c #AB7C00",
"O c #AF8100",
"+ c #B28300",
"@ c #B68800",
"# c #BC8D00",
"$ c #BF9000",
"% c #C29300",
"& c #C79800",
"* c #CA9B00",
"= c #C3A200",
"- c #CDA200",
"; c #C9AC01",
": c #D3A400",
"> c #D7A800",
", c #DBAC00",
"< c #D4B401",
"1 c #D2B900",
"2 c #DBBA00",
"3 c #E2B200",
"4 c #E8B700",
"5 c #E4BD00",
"6 c #EBBB00",
"7 c #DBB121",
"8 c #E3C400",
"9 c #EBC500",
"0 c #E0C801",
"q c #ECCC00",
"w c #F3C300",
"e c #F8C600",
"r c #F2CB00",
"t c #FDCD00",
"y c #EBD200",
"u c #F5D301",
"i c #FDD300",
"p c #F5DE01",
"a c #FDDB00",
"s c #F5D50C",
"d c #FEDD08",
"f c #E6CC16",
"g c #FACD15",
"h c #EFD215",
"j c #EBDA11",
"k c #FED115",
"l c #FADD1D",
"z c #FDE400",
"x c #FEEB00",
"c c #FFE108",
"v c #FEF000",
"b c #FEFB01",
"n c #FEFE14",
"m c #E1CE2E",
"M c #F8CF21",
"N c #F1D42A",
"B c #F3CC30",
"V c #ECD033",
"C c #FED732",
"Z c #FFE020",
"A c #FFED2E",
"S c #FEF329",
"D c #FEEC31",
"F c #FFEC3E",
"G c #FEF036",
"H c #FFFD34",
"J c #FFFE3B",
"K c #D5B352",
"L c #D8BD72",
"P c #ECCF44",
"I c #FEDB50",
"U c #FFF443",
"Y c #FEF34F",
"T c #FEE651",
"R c #FEF453",
"E c #FEEB6D",
"W c #FFF863",
"Q c #FFFE77",
"! c #FEF379",
"~ c #FEE685",
"^ c #F5E78B",
"/ c #FEEF8F",
"( c #FEF093",
") c #E4D8A0",
"_ c #FEFDA9",
"` c #FEFDBE",
"' c #FDF4C7",
"] c #FEFDC8",
"[ c #F7F3D1",
"{ c #FEFADE",
"} c None",
/* pixels */
"}}}}}}}}}}}}}}}}}}}}}}}}}}}}}}}}}}}}}}}}}}}}}}}}}}}}}}}}}}}}}}}}",
"}}}}}}}}}}}}}}}}}}}}}}}}}}}}}}}}}}}}}}}}}}}}}}}}}}}}}}}}}}}}}}}}",
"}}}}}}}}}}}}}}}}}}}}}}}}}}}}}}}}}}}}}}}}}}}}}}}}}}}}}}}}}}}}}}}}",
"}}}}}}}}}}}}}}}}}}}}}}}}}}}}}}}}}}}}}}}}}}}}}}}}}}}}}}}}}}}}}}}}",
"}}}}}}}}}}}}}}}}}}}}}}}}}}}}}}}}}}}}}}}}}}}}}}}}}}}}}}}}}}}}}}}}",
"}}}}}}}}}}}}}}}}}}}}}}}}}}}}}}}}}}}}}}}}}}}}}}}}}}}}}}}}}}}}}}}}",
"}}}}}}}}}}}}}}}}}}}}}}}}}}}}}}}}}}}}}}}}}}}}}}}}}}}}}}}}}}}}}}}}",
"}}}}}}}}}}}}}}}}}}}}}}}}}}}}}}}}}}}}}}}}}}}}}}}}}}}}}}}}}}}}}}}}",
"}}}}}}}}}}}}}}}}}}}}}}}}}}}}}}}}}}}}}}}}}}}}}}}}}}}}}}}}}}}}}}}}",
"}}}}}}}}}}}}}}}}}}}}}}}}}}}}}}}}}}}}}}}}}}}}}}}}}}}}}}}}}}}}}}}}",
"}}}}}}}}}}}}}}}}}}}}}}}}}}}}}}}}}}}}}}}}}}}}}}}}}}}}}}}}}}}}}}}}",
"}}}}}}}}}}}}}}}}}}}}}}}}}}}}}}}}}}}}}}}}}}}}}}}}}}}}}}}}}}}}}}}}",
"}}}}}}}}}}}}}}}}}}}}}}}}}}}}}}}}}}}}}}}}}}}}}}}}}}}}}}}}}}}}}}}}",
"}}}}}}}}}}}}}}}}}}}}}}}}}}}}}}}}}}}}}}}}}}}}}}}}}}}}}}}}}}}}}}}}",
"}}}}}}}}}}}}}}}}}}}}}}}}}%>,335rpaaat6,}}}}}}}}}}}}}}}}}}}}}}}}}",
"}}}}}}}}}}}}}}}}}}}}}}}}wtttruazFxxxittt>}}}}}}}}}}}}}}}}}}}}}}}",
"}}}}}}}}}}}}}}}}}}}}}}3ittrrazW`Rxxxzzatt3}}}}}}}}}}}}}}}}}}}}}}",
"}}}}}}}}}}}}}}}}}}}}}yxxxz9aA](l8<<<2wiitw3}}}}}}}}}}}}}}}}}}}}}",
"}}}}}}}}}}}}}}}}}}}})____fpxDl<=>880<o@6te63}}}}}}}}}}}}}}}}}}}}",
"}}}}}}}}}}}}}}}}}}};nnnnjrxxy=2pSbbbxi,o:w66>}}}}}}}}}}}}}}}}}}}",
"}}}}}}}}}}}}}}}}}}}zxxvz5zzq=yD]Qbzuuttw+#,66}}}}}}}}}}}}}}}}}}}",
"}}}}}}}}}}}}}}}}}}6tttt,9xu=u!`HUd01=tttt+#>6>}}}}}}}}}}}}}}}}}}",
"}}}}}}}}}}}}}}}}}}6www5,9a;9RJbzEsy>#tttt6o*>3#}}}}}}}}}}}}}}}}}",
"}}}}}}}}}}}}}}}}}:3333>3r5<xbbza/mu>$ttitw:+:3*}}}}}}}}}}}}}}}}}",
"}}}}}}}}}}}}}}}}},333,,,eoabbcZT{'I7$tttt66o&::}}}}}}}}}}}}}}}}}",
"}}}}}}}}}}}}}}}}}3333>,3:%xbzadN[~k,#titt66*o::%}}}}}}}}}}}}}}}}",
"}}}}}}}}}}}}}}}}-3333::,o9bxiaa0^Ct>#tttw663X%:%}}}}}}}}}}}}}}}}",
"}}}}}}}}}}}}}}}}>3333*&:oxbttt50LMt>#ttt6666+@-&}}}}}}}}}}}}}}}}",
"}}}}}}}}}}}}}}}},333,:%%#bzttw0&Kht>#tt66666&o%*}}}}}}}}}}}}}}}}",
"}}}}}}}}}}}}}}}}333,,:%%*btit2,>BVt>%tw66666:X#*}}}}}}}}}}}}}}}}",
"}}}}}}}}}}}}}}}}-:-:::%o-xttttttgPt>#6666666>X#&}}}}}}}}}}}}}}}}",
"}}}}}}}}}}}}}}}}%%%%%*oo-ywttttttqt>#6666666>X@*}}}}}}}}}}}}}}}}",
"}}}}}}}}}}}}}}}}#%%#%:#o*q66weet6yt>#6666663:.+*}}}}}}}}}}}}}}}}",
"}}}}}}}}}}}}}}}}%%%%#:@o%96666666yt:#466663,:X+&}}}}}}}}}}}}}}}}",
"}}}}}}}}}}}}}}}}#%%%#:@o#,6666664yt>#46663,,%.+&}}}}}}}}}}}}}}}}",
"}}}}}}}}}}}}}}}}#%%%%%#++>6666664yt:#6663,,,#X+*}}}}}}}}}}}}}}}}",
"}}}}}}}}}}}}}}}}#%%##%#+X>,666664yt:#44,,,,:@o@&}}}}}}}}}}}}}}}}",
"}}}}}}}}}}}}}}}}#%%%%%%+.->366664qt:#3,33,,&.+#%}}}}}}}}}}}}}}}}",
"}}}}}}}}}}}}}}}}o%%#%#&oo@*>46644qt:#,,,,,*%.+%#}}}}}}}}}}}}}}}}",
"}}}}}}}}}}}}}}}}}+++@+*@+.&&*>33,ye:#,,,,*&+o+&}}}}}}}}}}}}}}}}}",
"}}}}}}}}}}}}}}}}}oO+OO#%+o@*&*:,,qe:#,,:**%.+#%}}}}}}}}}}}}}}}}}",
"}}}}}}}}}}}}}}}}}}O+OO@&+o.%****&9w*#***&*oo+%#}}}}}}}}}}}}}}}}}",
"}}}}}}}}}}}}}}}}}}+O+Oo%#+oo&***&94*#&***+Xo@&}}}}}}}}}}}}}}}}}}",
"}}}}}}}}}}}}}}}}}}}OOO++&++oo&*&&3,##&&*+X++%#}}}}}}}}}}}}}}}}}}",
"}}}}}}}}}}}}}}}}}}}oOOOO#%+oo.#&&##%#&%oXo+#%}}}}}}}}}}}}}}}}}}}",
"}}}}}}}}}}}}}}}}}}}}o++OO%#++o.o#%%%%o.o+++&}}}}}}}}}}}}}}}}}}}}",
"}}}}}}}}}}}}}}}}}}}}}OOO++%#+++o.....Xo+++&}}}}}}}}}}}}}}}}}}}}}",
"}}}}}}}}}}}}}}}}}}}}}}oO+o+%%+O+++o+++++#&}}}}}}}}}}}}}}}}}}}}}}",
"}}}}}}}}}}}}}}}}}}}}}}} .. .@&#@O+++++#%&}}}}}}}}}}}}}}}}}}}}}}}",
"}}}}}}}}}}}}}}}}}}}}}}}}}    X#&&%#%%&%}}}}}}}}}}}}}}}}}}}}}}}}}",
"}}}}}}}}}}}}}}}}}}}}}}}}}}}}}. .o#$#}}}}}}}}}}}}}}}}}}}}}}}}}}}}",
"}}}}}}}}}}}}}}}}}}}}}}}}}}}}}}}}}}}}}}}}}}}}}}}}}}}}}}}}}}}}}}}}",
"}}}}}}}}}}}}}}}}}}}}}}}}}}}}}}}}}}}}}}}}}}}}}}}}}}}}}}}}}}}}}}}}",
"}}}}}}}}}}}}}}}}}}}}}}}}}}}}}}}}}}}}}}}}}}}}}}}}}}}}}}}}}}}}}}}}",
"}}}}}}}}}}}}}}}}}}}}}}}}}}}}}}}}}}}}}}}}}}}}}}}}}}}}}}}}}}}}}}}}",
"}}}}}}}}}}}}}}}}}}}}}}}}}}}}}}}}}}}}}}}}}}}}}}}}}}}}}}}}}}}}}}}}",
"}}}}}}}}}}}}}}}}}}}}}}}}}}}}}}}}}}}}}}}}}}}}}}}}}}}}}}}}}}}}}}}}",
"}}}}}}}}}}}}}}}}}}}}}}}}}}}}}}}}}}}}}}}}}}}}}}}}}}}}}}}}}}}}}}}}",
"}}}}}}}}}}}}}}}}}}}}}}}}}}}}}}}}}}}}}}}}}}}}}}}}}}}}}}}}}}}}}}}}",
"}}}}}}}}}}}}}}}}}}}}}}}}}}}}}}}}}}}}}}}}}}}}}}}}}}}}}}}}}}}}}}}}",
"}}}}}}}}}}}}}}}}}}}}}}}}}}}}}}}}}}}}}}}}}}}}}}}}}}}}}}}}}}}}}}}}",
"}}}}}}}}}}}}}}}}}}}}}}}}}}}}}}}}}}}}}}}}}}}}}}}}}}}}}}}}}}}}}}}}",
"}}}}}}}}}}}}}}}}}}}}}}}}}}}}}}}}}}}}}}}}}}}}}}}}}}}}}}}}}}}}}}}}",
"}}}}}}}}}}}}}}}}}}}}}}}}}}}}}}}}}}}}}}}}}}}}}}}}}}}}}}}}}}}}}}}}"
};
