/* XPM */
static char *_2c7e2461c384674841150444e040245mFkfvOSd1Xnp0G5x[] = {
/* columns rows colors chars-per-pixel */
"64 64 237 2 ",
"   c None",
".  c #945D00",
"X  c #9F7100",
"o  c #9F7200",
"O  c #A07100",
"+  c #A07200",
"@  c #A27300",
"#  c #A27400",
"$  c #A67800",
"%  c #AA7B00",
"&  c #AA7C00",
"*  c #AB7C00",
"=  c #AB7D00",
"-  c #AC7D00",
";  c #AD7E00",
":  c #AD7F00",
">  c #AE7F00",
",  c #AE8000",
"<  c #AF8100",
"1  c #B08100",
"2  c #B08200",
"3  c #B18200",
"4  c #B18300",
"5  c #B28300",
"6  c #B28400",
"7  c #B38400",
"8  c #B38500",
"9  c #B48500",
"0  c #B48600",
"q  c #B58600",
"w  c #B58700",
"e  c #B68700",
"r  c #B68800",
"t  c #B78800",
"y  c #B78900",
"u  c #B88800",
"i  c #B88900",
"p  c #B98A00",
"a  c #BA8B00",
"s  c #BB8C00",
"d  c #BB8D00",
"f  c #BC8D00",
"g  c #BD8E00",
"h  c #BE8F00",
"j  c #BF9000",
"k  c #BF9100",
"l  c #BE9A00",
"z  c #C09100",
"x  c #C19200",
"c  c #C29200",
"v  c #C29300",
"b  c #C39300",
"n  c #C39400",
"m  c #C49400",
"M  c #C49500",
"N  c #C59600",
"B  c #C59700",
"V  c #C69600",
"C  c #C69700",
"Z  c #C79800",
"A  c #C69E00",
"S  c #C89800",
"D  c #C89900",
"F  c #C99900",
"G  c #C89901",
"H  c #C89A00",
"J  c #C99A00",
"K  c #C99B00",
"L  c #CA9A00",
"P  c #CA9B00",
"I  c #CB9B00",
"U  c #C99C00",
"Y  c #CB9C00",
"T  c #CC9C00",
"R  c #CD9D00",
"E  c #CE9E00",
"W  c #CF9F00",
"Q  c #CDA000",
"!  c #CFA000",
"~  c #CFA100",
"^  c #CDA300",
"/  c #CFA200",
"(  c #CFAF00",
")  c #D0A000",
"_  c #D0A100",
"`  c #D1A100",
"'  c #D2A200",
"]  c #D3A300",
"[  c #D3A400",
"{  c #D3A500",
"}  c #D4A400",
"|  c #D4A500",
" . c #D5A500",
".. c #D6A600",
"X. c #D2A800",
"o. c #D5AA00",
"O. c #D7AB00",
"+. c #D2AD00",
"@. c #D7AC00",
"#. c #D8A800",
"$. c #D9A900",
"%. c #DAAA00",
"&. c #DAAB00",
"*. c #DBAB00",
"=. c #DCAC00",
"-. c #DDAD00",
";. c #DDAE00",
":. c #DEAE00",
">. c #DEAF00",
",. c #DFAF00",
"<. c #D7B500",
"1. c #D7B600",
"2. c #D7B700",
"3. c #DAB000",
"4. c #DAB100",
"5. c #DFB000",
"6. c #DCB300",
"7. c #D8B600",
"8. c #D9B600",
"9. c #DEB400",
"0. c #DDB307",
"q. c #DDB900",
"w. c #DEBD00",
"e. c #DEB50B",
"r. c #CBA11E",
"t. c #E0AF00",
"y. c #E0B000",
"u. c #E0B100",
"i. c #E1B100",
"p. c #E2B200",
"a. c #E3B300",
"s. c #E3B400",
"d. c #E4B400",
"f. c #E4B500",
"g. c #E5B500",
"h. c #E4B700",
"j. c #E7B700",
"k. c #E7BE00",
"l. c #E8B800",
"z. c #E9B900",
"x. c #EABA00",
"c. c #EBBB00",
"v. c #ECBB00",
"b. c #ECBC00",
"n. c #EDBD00",
"m. c #F0BF00",
"M. c #E7C000",
"N. c #E1C503",
"B. c #E5C401",
"V. c #E7C703",
"C. c #ECC700",
"Z. c #E7C900",
"A. c #E3CC00",
"S. c #EBCE00",
"D. c #F1C200",
"F. c #F2C200",
"G. c #F3C200",
"H. c #F3C300",
"J. c #F3C700",
"K. c #F4C400",
"L. c #F5C400",
"P. c #F6C600",
"I. c #F6C700",
"U. c #F8C700",
"Y. c #F7C800",
"T. c #F8C900",
"R. c #FAC900",
"E. c #FBCB00",
"W. c #FBCF00",
"Q. c #FCCC00",
"!. c #FECC00",
"~. c #FECD00",
"^. c #FDCE00",
"/. c #FECE00",
"(. c #FFCE00",
"). c #FECF00",
"_. c #FECE01",
"`. c #FECF06",
"'. c #EDD600",
"]. c #EEDA00",
"[. c #F1D300",
"{. c #F6D200",
"}. c #F1D700",
"|. c #F7D500",
" X c #F5D600",
".X c #FBD200",
"XX c #FED700",
"oX c #F2D802",
"OX c #F5DB00",
"+X c #F6DE00",
"@X c #FDDD00",
"#X c #FEDC00",
"$X c #FEDD00",
"%X c #E1C61C",
"&X c #F4E100",
"*X c #F8E000",
"=X c #FEE103",
"-X c #FEE700",
";X c #FEE105",
":X c #FEEB00",
">X c #FFEB00",
",X c #FEEB03",
"<X c #FEEC00",
"1X c #FFEC00",
"2X c #FEED00",
"3X c #FFED00",
"4X c #FEF400",
"5X c #FEF106",
"6X c #FDF800",
"7X c #F5F10E",
"8X c #FDF70B",
"9X c #FEF80F",
"0X c #FEEE16",
"qX c #FFED1C",
"wX c #FEEC1D",
"eX c #FEF615",
"rX c #FBF814",
"tX c #FEFE14",
"yX c #FFFE14",
"uX c #EDD322",
"iX c #F7E730",
"pX c #FDEA3D",
"aX c #D7B759",
"sX c #F3D14A",
"dX c #F0D855",
"fX c #F8E25D",
"gX c #D4C071",
"hX c #FBE86A",
"jX c #FEF466",
"kX c #FEF979",
"lX c #FEED81",
"zX c #FEFD84",
"xX c #FEFDA9",
"cX c #FEFEA9",
"vX c #FFFEA9",
"bX c #FEF8DA",
"nX c #FEFAE6",
/* pixels */
"                                                                                                                                ",
"                                                                                                                                ",
"                                                                                                                                ",
"                                                                                                                                ",
"                                                                                                                                ",
"                                                                                                                                ",
"                                                                                                                                ",
"                                                                                                                                ",
"                                                                                                                                ",
"                                                                                                                                ",
"                                                                                                                                ",
"                                                                                                                                ",
"                                                                                                                                ",
"                                                                                                                                ",
"                                                        a.a.a.a.a.M.#X.X!                                                       ",
"                                                      E.~.~.~.~.J.;XwX#X~.                                                      ",
"                                                    c.~.~.~.~.E. XkX0X-XXXs.                                                    ",
"                                                    :X:X:X1X1X}.pXhX1.7.W.K.                                                    ",
"                                                  gXcXcXcXcXcXuXwX( w.1.z K.Z                                                   ",
"                                                  7XtXtXtXtXrXoXS.N.9X4X! ;.a.                                                  ",
"                                                  1X1X1X1X1X'.*X1.jXeX{.~.z c.                                                  ",
"                                                  ~.~.~.~.~.f.OX%XzX[.l ~.F #.                                                  ",
"                                                ] G.G.G.G.G.5.Z.iX5XB.Y ~.c.F z                                                 ",
"                                                #.a.a.a.a.a.;.q.6X=XdXF ~.U.n R                                                 ",
"                                                ;.a.a.a.a.;.5.+.8XlXnXaX`.K.g ]                                                 ",
"                                                a.a.a.a.a.#.;.7.:XfXbXr.~.G.k ]                                                 ",
"                                                a.a.a.a.a.| | A.#XB.sXF ~.m.F F                                                 ",
"                                                a.a.a.a.a.| Z ].~.X.! F ~.b.| z                                                 ",
"                                                a.a.a.a.a.[ g &XY.A ! F E.c.;.g                                                 ",
"                                                a.a.a.a.a.[ u +XK.O.0.Z G.b.f.t                                                 ",
"                                                ] ] ] ] ] R 0  X~.~.e.V b.c.f.0                                                 ",
"                                                z z z z z V 6 C.~.~.9.V v.c.f.6                                                 ",
"                                                z z z z z V 2 k.G.E.5.V v.c.;.2                                                 ",
"                                                z z z z z V 2 f.c.b.4.V v.c.#.2                                                 ",
"                                                z z z z z z 2 a.c.b.4.V v.f.| 2                                                 ",
"                                                z z z z z g 6 #.c.b.4.V v.;.R 2                                                 ",
"                                                z z z z z g 6 ] c.b.4.V f.;.F 0                                                 ",
"                                                z z z z z g 0 F c.b.4.z ;.;.g t                                                 ",
"                                                z z z z z g u g a.b.4.z ;.#.0 u                                                 ",
"                                                2 6 6 6 6 2 u 6 R a.@.z ;.] 2 g                                                 ",
"                                                ; < 2 2 2 < u ; F | O.k #.Y ; g                                                 ",
"                                                = < 2 2 2 < g = Z F [ g F V ; u                                                 ",
"                                                . < 2 2 2 < u 2 g F ! g F t 2                                                   ",
"                                                  < 2 2 2 < 6 0 ; F F 0 F ; t                                                   ",
"                                                  < < 2 2 < < u % z g s g = g                                                   ",
"                                                  = < 2 2 2 < s 2 $ z k $ 2 t                                                   ",
"                                                    < 2 2 2 < 0 0 ; + # < 0                                                     ",
"                                                    ; < < < < < g 2 2 2 2 g                                                     ",
"                                                      X X + + + 2 u 2 2 u                                                       ",
"                                                      X X + + + + g z z k                                                       ",
"                                                          + + + X + t                                                           ",
"                                                                                                                                ",
"                                                                                                                                ",
"                                                                                                                                ",
"                                                                                                                                ",
"                                                                                                                                ",
"                                                                                                                                ",
"                                                                                                                                ",
"                                                                                                                                ",
"                                                                                                                                ",
"                                                                                                                                ",
"                                                                                                                                ",
"                                                                                                                                ",
"                                                                                                                                "
};
