/* XPM */
static char *_11709064727[] = {
/* columns rows colors chars-per-pixel */
"64 64 121 2 ",
"   c None",
".  c #171514",
"X  c #181616",
"o  c #191817",
"O  c #1B1C1B",
"+  c #1D211E",
"@  c #1B2522",
"#  c #1B2925",
"$  c #1C2E2A",
"%  c #1E322D",
"&  c #19382E",
"*  c #1E3531",
"=  c #1D3932",
"-  c #222324",
";  c #292623",
":  c #242A27",
">  c #26272A",
",  c #252A2B",
"<  c #2C2B2B",
"1  c #2A2F31",
"2  c #2E3436",
"3  c #213D37",
"4  c #203E38",
"5  c #323335",
"6  c #30373A",
"7  c #343A3E",
"8  c #423E3A",
"9  c #164E3E",
"0  c #23453E",
"q  c #44403C",
"w  c #363F42",
"e  c #214740",
"r  c #224B43",
"t  c #2B4E48",
"y  c #3D4146",
"u  c #3A4448",
"i  c #235647",
"p  c #24554C",
"a  c #255D53",
"s  c #1F745C",
"d  c #266359",
"f  c #2C6359",
"g  c #256C58",
"h  c #2A6A5E",
"j  c #32655C",
"k  c #30685E",
"l  c #22735D",
"z  c #286E62",
"x  c #376E67",
"c  c #3B6864",
"v  c #277962",
"b  c #2B7E66",
"n  c #2B7568",
"m  c #2A7A6C",
"M  c #307B6F",
"N  c #43474D",
"B  c #414B4F",
"V  c #424E53",
"C  c #494E54",
"Z  c #46555B",
"A  c #4B555B",
"S  c #515456",
"D  c #51565F",
"F  c #56585B",
"G  c #4C5C63",
"H  c #4E6067",
"J  c #54656C",
"K  c #566971",
"L  c #596C74",
"P  c #5C6F78",
"I  c #5D7079",
"U  c #616668",
"Y  c #61767F",
"T  c #278A6E",
"R  c #2C8777",
"E  c #2F8979",
"W  c #338C7C",
"Q  c #2D9D7F",
"!  c #637780",
"~  c #657B85",
"^  c #687E89",
"/  c #329281",
"(  c #329C8A",
")  c #33A082",
"_  c #31A988",
"`  c #33A592",
"'  c #34AA96",
"]  c #34AE99",
"[  c #35B09B",
"{  c #39B39E",
"}  c #37B7A2",
"|  c #36B8A3",
" . c #3CBAA4",
".. c #499386",
"X. c #6B838D",
"o. c #7D868B",
"O. c #6D8691",
"+. c #6F8893",
"@. c #708994",
"#. c #7E949E",
"$. c #45BBA7",
"%. c #39C59E",
"&. c #3BC5AE",
"*. c #3CC7B0",
"=. c #3DCDB4",
"-. c #3FD3BA",
";. c #4EC1AD",
":. c #41D9BF",
">. c #67CDBC",
",. c #44E8BC",
"<. c #42DDC3",
"1. c #5BD5C0",
"2. c #62DEC9",
"3. c #45E0C6",
"4. c #45E4C9",
"5. c #56E0C8",
"6. c #55E9CF",
"7. c #6FEAD5",
"8. c #8B9DA5",
"9. c #80E4D3",
"0. c #87EDDC",
/* pixels */
"                                                                                                                                ",
"                                                                                                                                ",
"                                                                                                                                ",
"                                                                                                                                ",
"                                                                                                                                ",
"                                                                                                                                ",
"                                                                                                                                ",
"                                                                                                                                ",
"                                                                                                                                ",
"                                                                                                                                ",
"                                                                                                                                ",
"                                                                                                                                ",
"                                                                                                                                ",
"                                                                                                                                ",
"                                                                                                                                ",
"                                                                                                                                ",
"                                            . * i r @ .                                                                         ",
"                                            . e &.3.p $ % % # O X .                                                             ",
"                                            o n -.4.3.<.3.5.2.1.$.W j - .                                                       ",
"                                            . a | -.4.3.=.-.7.0.$.@ >.7./ O                                                     ",
"                                              . % ( | 3.4.&.| 4.f % h 6.6.f                                                     ",
"                                                  = ] :.<.-.[ | 0 ..+  .{ X .                                                   ",
"                                                o p *.[ d % % r # ;.: n W ` ( .                                                 ",
"                                              o z [ ' % 2 A K 5 d <.k < F , W o                                                 ",
"                                            . p ] ` = u K X.+.P , 4 , Y #.o.+ .                                                 ",
"                                            . # ` m , G ! @.+.+.^ I ^ @.+.8.2                                                   ",
"                                            # R ' r 2 Z X.@.+.O.+.@.+.+.@.#.S                                                   ",
"                                            % ( ' * 7 K O.P L Y X.@.+.@.X.@.U                                                   ",
"                                            . @ r # Z L V + + # < X.+.B - - 5                                                   ",
"                                                . X u K @ 9 T Q = J X.O l g X                                                   ",
"                                                . $ 2 H @ s &.,.i G X.O _ ) .                                                   ",
"                                                  . X 6 - & l T # ~ @.7 $ @ X                                                   ",
"                                                        . . > 7 G +.X.X.O .                                                     ",
"                                                          . 7 Z Z Y u A X                                                       ",
"                                                      . 3 h o - - - o o .                                                       ",
"                                                    . +  .n > V A ; ; X . X                                                     ",
"                                                  X 5 5 1 @ y A C - 8 . < 5 X                                                   ",
"                                                  - N y o > - < O - 8 X < X .                                                   ",
"                                                  X O X o - t 0 M > + X X                                                       ",
"                                                      . O - c x @ - X                                                           ",
"                                                      O + X . . . X .                                                           ",
"                                                    X O X         X                                                             ",
"                                                    X                                                                           ",
"                                                                                                                                ",
"                                                                                                                                ",
"                                                                                                                                ",
"                                                                                                                                ",
"                                                                                                                                ",
"                                                                                                                                ",
"                                                                                                                                ",
"                                                                                                                                ",
"                                                                                                                                ",
"                                                                                                                                ",
"                                                                                                                                ",
"                                                                                                                                ",
"                                                                                                                                ",
"                                                                                                                                ",
"                                                                                                                                ",
"                                                                                                                                ",
"                                                                                                                                ",
"                                                                                                                                ",
"                                                                                                                                ",
"                                                                                                                                ",
"                                                                                                                                "
};
