/* XPM */
static char *_21709064727[] = {
/* columns rows colors chars-per-pixel */
"64 64 118 2 ",
"   c None",
".  c #171514",
"X  c #191716",
"o  c #191817",
"O  c #1B1C1B",
"+  c #201F1F",
"@  c #19211E",
"#  c #1F1F20",
"$  c #201F20",
"%  c #1C2422",
"&  c #1C2A26",
"*  c #1C2D29",
"=  c #1F312D",
"-  c #1C3B32",
";  c #232324",
":  c #232926",
">  c #262728",
",  c #252B2B",
"<  c #2B2B2C",
"1  c #302D2A",
"2  c #2C2F31",
"3  c #2E3335",
"4  c #233A36",
"5  c #2C3936",
"6  c #343A3C",
"7  c #423E3B",
"8  c #154637",
"9  c #1F413A",
"0  c #21433D",
"q  c #3A3D42",
"w  c #1E5D4B",
"e  c #224C44",
"r  c #3C474C",
"t  c #225047",
"y  c #23534A",
"u  c #29544C",
"i  c #23584F",
"p  c #255B51",
"a  c #1D6D56",
"s  c #22614F",
"d  c #276355",
"f  c #2A6C60",
"g  c #3D6E69",
"h  c #2B7164",
"j  c #297568",
"k  c #2A7C6E",
"l  c #30796D",
"z  c #3C7B73",
"x  c #414243",
"c  c #41454B",
"v  c #464849",
"b  c #424E53",
"n  c #494D54",
"m  c #445156",
"M  c #465258",
"N  c #4A535A",
"B  c #50565E",
"V  c #4C5C63",
"C  c #4F6066",
"Z  c #516067",
"A  c #5C6062",
"S  c #52646B",
"D  c #556971",
"F  c #5F747C",
"G  c #6C7276",
"H  c #60757E",
"J  c #248167",
"K  c #29856B",
"L  c #2D8A7A",
"P  c #318475",
"I  c #3E8174",
"U  c #328778",
"Y  c #3B8679",
"T  c #318B7B",
"R  c #2D9578",
"E  c #657B85",
"W  c #3F8E80",
"Q  c #2E9180",
"!  c #329D8B",
"~  c #2FA283",
"^  c #37AF8E",
"/  c #35A794",
"(  c #33A996",
")  c #34AD99",
"_  c #39AE9A",
"`  c #36B59F",
"'  c #3AB19D",
"]  c #37BF9A",
"[  c #36B6A0",
"{  c #38B7A2",
"}  c #36B8A2",
"|  c #39BCA6",
" . c #6A818B",
".. c #6E8791",
"X. c #6F8893",
"o. c #718A95",
"O. c #79909B",
"+. c #44A897",
"@. c #58BEAC",
"#. c #3DCBB3",
"$. c #3ED0B7",
"%. c #3ED3BA",
"&. c #55CBB7",
"*. c #40D7BE",
"=. c #42D9BF",
"-. c #44E6B9",
";. c #43DDC3",
":. c #5CD6C1",
">. c #52DAC3",
",. c #45E1C6",
"<. c #44E4CA",
"1. c #5BEAD2",
"2. c #66E9D3",
"3. c #80898E",
"4. c #8297A1",
"5. c #899CA4",
"6. c #81DECE",
"7. c #90EEDE",
/* pixels */
"                                                                                                                                ",
"                                                                                                                                ",
"                                                                                                                                ",
"                                                                                                                                ",
"                                                                                                                                ",
"                                                                                                                                ",
"                                                                                                                                ",
"                                                                                                                                ",
"                                                                                                                                ",
"                                                                                                                                ",
"                                                                                                                                ",
"                                                                                                                                ",
"                                                                                                                                ",
"                                                                                                                                ",
"                                                                                                                                ",
"                                                                                                                                ",
"                                            . & e e % X                                                                         ",
"                                              * | ;.f % % % O o . .                                                             ",
"                                            . p #.<.;.;.;.>.:.&.' P u O .                                                       ",
"                                            . e ) *.<.;.%.%.2.7.>.= @.6.U O                                                     ",
"                                              . & Q { ;.<.#.| ;.W & u 1.1.U .                                                   ",
"                                                  * ( $.;.;.{ { d I : _ *.@ .                                                   ",
"                                                X - | | j - - p & +.5 d ( ! L O                                                 ",
"                                              . p ( { e , m V 5 e ;.Y ; x , ! %                                                 ",
"                                              0 ) ( y 3 S E X.E , e = S 4.O.@ X                                                 ",
"                                              @ ! L % V F X.X.X.E S F X.X.5.6 .                                                 ",
"                                            @ k ( p 2 m  ...X.X.X.X.X.X.o.O.A                                                   ",
"                                            % ! ) 9 3 S ..E F E ..X.X.X.o.o.G .                                                 ",
"                                              % t * r D V @ % % 3  .o.Z 1 < v .                                                 ",
"                                                . . r D , 8 J R - V o.@ i s .                                                   ",
"                                                . * 3 C % a ] -.d N ..O ~ ^ .                                                   ",
"                                                  . o q ; - K R & H X.6 - - .                                                   ",
"                                                      . . . ; 3 M .... .+ .                                                     ",
"                                                          . 6 V B E M S .                                                       ",
"                                                        * p o $ % < o o .                                                       ",
"                                                      @ ' U > c n ; : o . .                                                     ",
"                                                    > < 0 & q B N ; 7 . 1 < X                                                   ",
"                                                  O n n O > > 2 + ; 7 O 1 X .                                                   ",
"                                                  o O X X % 0 4 l ; ; . O                                                       ",
"                                                      X O & C z , $ o                                                           ",
"                                                      O $ o . . . X .                                                           ",
"                                                    . O o X .     .                                                             ",
"                                                    . .                                                                         ",
"                                                                                                                                ",
"                                                                                                                                ",
"                                                                                                                                ",
"                                                                                                                                ",
"                                                                                                                                ",
"                                                                                                                                ",
"                                                                                                                                ",
"                                                                                                                                ",
"                                                                                                                                ",
"                                                                                                                                ",
"                                                                                                                                ",
"                                                                                                                                ",
"                                                                                                                                ",
"                                                                                                                                ",
"                                                                                                                                ",
"                                                                                                                                ",
"                                                                                                                                ",
"                                                                                                                                ",
"                                                                                                                                ",
"                                                                                                                                ",
"                                                                                                                                "
};
