/* XPM */
static char *_1709064725[] = {
/* columns rows colors chars-per-pixel */
"64 64 128 2 ",
"   c None",
".  c #171514",
"X  c #181615",
"o  c #191817",
"O  c #171B19",
"+  c #1B1B1B",
"@  c #1A221F",
"#  c #1F1F20",
"$  c #1B2522",
"%  c #1D2925",
"&  c #1C2C28",
"*  c #13362B",
"=  c #1B342D",
"-  c #1F3732",
";  c #1D3C34",
":  c #222323",
">  c #282727",
",  c #272729",
"<  c #232A29",
"1  c #2A2B2C",
"2  c #312D2B",
"3  c #2C2F31",
"4  c #243633",
"5  c #2E3233",
"6  c #233A35",
"7  c #2F3638",
"8  c #3C3937",
"9  c #313739",
"0  c #33393C",
"q  c #403B38",
"w  c #1E443B",
"e  c #1E483B",
"r  c #20453D",
"t  c #373E42",
"y  c #383F42",
"u  c #1F5546",
"i  c #1A5B48",
"p  c #234A43",
"a  c #374043",
"s  c #3A4145",
"d  c #3D464B",
"f  c #334D48",
"g  c #24544B",
"h  c #255F55",
"j  c #256254",
"k  c #286055",
"l  c #296258",
"z  c #27695D",
"x  c #20745C",
"c  c #2A6E62",
"v  c #3B6965",
"b  c #287063",
"n  c #297669",
"m  c #2A7D6F",
"M  c #317B6F",
"N  c #2E7E70",
"B  c #404348",
"V  c #444D52",
"C  c #425056",
"Z  c #4E5152",
"A  c #47565C",
"S  c #4F545C",
"D  c #4C595F",
"F  c #50565E",
"G  c #4D5D64",
"H  c #505F66",
"J  c #52646B",
"K  c #5F6568",
"L  c #46746B",
"P  c #566A73",
"I  c #5A6D76",
"U  c #5F757F",
"Y  c #60747D",
"T  c #2B866C",
"R  c #28896E",
"E  c #2C8374",
"W  c #298D72",
"Q  c #2D8A7A",
"!  c #318B7B",
"~  c #2F907F",
"^  c #40857B",
"/  c #617680",
"(  c #657B85",
")  c #697F8A",
"_  c #757D81",
"`  c #2F9281",
"'  c #329383",
"]  c #3E9183",
"[  c #339D8B",
"{  c #33A08E",
"}  c #34AC8A",
"|  c #33B28F",
" . c #32A491",
".. c #3AA793",
"X. c #33AA96",
"o. c #34AE99",
"O. c #39B49F",
"+. c #3ABE9A",
"@. c #35B5A0",
"#. c #3FBEA9",
"$. c #6A828C",
"%. c #6E8791",
"&. c #6F8893",
"*. c #718A95",
"=. c #7F8B91",
"-. c #7E939D",
";. c #4CBCA9",
":. c #3AC2AB",
">. c #3DC7B0",
",. c #3DCCB4",
"<. c #3FD3BA",
"1. c #51C2AF",
"2. c #57CFBB",
"3. c #41D6BD",
"4. c #4BD4BD",
"5. c #56D2BD",
"6. c #42E0B5",
"7. c #42DEC4",
"8. c #79DBCA",
"9. c #43E1C6",
"0. c #43E4C9",
"q. c #52E4CC",
"w. c #5EE3CC",
"e. c #66EAD3",
"r. c #68ECD5",
"t. c #879398",
"y. c #8197A0",
"u. c #90EFDF",
/* pixels */
"                                                                                                                                ",
"                                                                                                                                ",
"                                                                                                                                ",
"                                                                                                                                ",
"                                                                                                                                ",
"                                                                                                                                ",
"                                                                                                                                ",
"                                                                                                                                ",
"                                                                                                                                ",
"                                                                                                                                ",
"                                                                                                                                ",
"                                                                                                                                ",
"                                                                                                                                ",
"                                                                                                                                ",
"                                                                                                                                ",
"                                                                                                                                ",
"                                            . o p p - X                                                                         ",
"                                              X Q 3.@.$ $ + O . .                                                               ",
"                                              - X.9.0.3.3.4.5.1...M r X .                                                       ",
"                                              $ ` ,.0.0.<.<.q.u.r.b ! u.! +                                                     ",
"                                                O b o.<.0.3.@.3.5.< : w.e.;.O                                                   ",
"                                                  O Q :.0.9.:.o.{ p f ! 0.h .                                                   ",
"                                                o % { >.' g r h p l L ; >.' c $                                                 ",
"                                              . ; [ :.z % a A s % :.;.O 5 4 [ g                                                 ",
"                                              $  .X.n < G Y $.$.1 g g 0 -.t.= &                                                 ",
"                                              . E { & V P *.*.*.( D G $.&.t.Z .                                                 ",
"                                            o c  .m : d Y *.&.&.&.&.&.&.&.*._ .                                                 ",
"                                            o Q o.j 1 G $.) ( $.&.&.&.&.*.*.=..                                                 ",
"                                              o p ; t G I % @ $ 5 ( &.( d t K .                                                 ",
"                                                . . 0 P 9 * x W r C *.7 ; u . .                                                 ",
"                                                . & < J , i X.6.T a *.> R +.O o                                                 ",
"                                                  . . 0 3 * R } ; J *.0 e j .                                                   ",
"                                                      X . . # , r =.%.) # X X                                                   ",
"                                                          . 9 J H ) H Y #                                                       ",
"                                                        $ g + # # 9 + # X                                                       ",
"                                                      o [ [ : y V # > X X                                                       ",
"                                                    o > p - t F F > q X 2 : .                                                   ",
"                                                  X B S > : , 3 # # q > 2 X X                                                   ",
"                                                  X , + + : 4 6 M : : + #                                                       ",
"                                                    . . o + v ^ 4 + +                                                           ",
"                                                      X : X X . X X X                                                           ",
"                                                    X + + X       X                                                             ",
"                                                    . .                                                                         ",
"                                                                                                                                ",
"                                                                                                                                ",
"                                                                                                                                ",
"                                                                                                                                ",
"                                                                                                                                ",
"                                                                                                                                ",
"                                                                                                                                ",
"                                                                                                                                ",
"                                                                                                                                ",
"                                                                                                                                ",
"                                                                                                                                ",
"                                                                                                                                ",
"                                                                                                                                ",
"                                                                                                                                ",
"                                                                                                                                ",
"                                                                                                                                ",
"                                                                                                                                ",
"                                                                                                                                ",
"                                                                                                                                ",
"                                                                                                                                ",
"                                                                                                                                "
};
