/* XPM */
static char *_1709064725[] = {
/* columns rows colors chars-per-pixel */
"64 64 125 2 ",
"   c None",
".  c #171514",
"X  c #181716",
"o  c #171817",
"O  c #181817",
"+  c #1B1C1B",
"@  c #19221F",
"#  c #1C2421",
"$  c #1C2926",
"%  c #1C2D29",
"&  c #1B312B",
"*  c #14392D",
"=  c #1D3631",
"-  c #1E3B34",
";  c #222223",
":  c #292624",
">  c #262728",
",  c #252929",
"<  c #2A2B2C",
"1  c #20312E",
"2  c #28322F",
"3  c #34302D",
"4  c #2D3234",
"5  c #243B37",
"6  c #203F39",
"7  c #313436",
"8  c #3C3836",
"9  c #303639",
"0  c #373A3E",
"q  c #403C38",
"w  c #1A4236",
"e  c #23433D",
"r  c #373E42",
"t  c #383F42",
"y  c #1F4E40",
"u  c #1B5B48",
"i  c #224A42",
"p  c #3B4347",
"a  c #3D4449",
"s  c #3E484D",
"d  c #24544C",
"f  c #29574F",
"g  c #235A4C",
"h  c #36544E",
"j  c #265D53",
"k  c #256157",
"l  c #27655A",
"z  c #29675C",
"x  c #2A685D",
"c  c #21785F",
"v  c #3A6460",
"b  c #287064",
"n  c #277F67",
"m  c #2A7669",
"M  c #2C7C6E",
"N  c #3D7B74",
"B  c #42464C",
"V  c #404B4F",
"C  c #404D51",
"Z  c #4A4E55",
"A  c #435156",
"S  c #4C545B",
"D  c #525557",
"F  c #4C5C63",
"G  c #585E60",
"H  c #516067",
"J  c #52636A",
"K  c #47766D",
"L  c #566A72",
"P  c #5A6D75",
"I  c #61767F",
"U  c #2D866D",
"Y  c #29886E",
"T  c #2D8072",
"R  c #2E8A7A",
"E  c #338174",
"W  c #3B8779",
"Q  c #308B7A",
"!  c #2A9376",
"~  c #627780",
"^  c #657B85",
"/  c #677E89",
"(  c #777F83",
")  c #339583",
"_  c #349887",
"`  c #339E8C",
"'  c #31A182",
"]  c #31A08D",
"[  c #33A592",
"{  c #33AB97",
"}  c #35AE99",
"|  c #33B491",
" . c #35B59F",
".. c #3FB39F",
"X. c #3AB8A2",
"o. c #3ABEA8",
"O. c #459587",
"+. c #6B828D",
"@. c #6E8691",
"#. c #6F8893",
"$. c #718A96",
"%. c #7D939D",
"&. c #3AC19D",
"*. c #3BC4AD",
"=. c #3DCDB5",
"-. c #3FD5BC",
";. c #41C4AD",
":. c #4AC0AC",
">. c #55CDB9",
",. c #40D6BC",
"<. c #43E3B8",
"1. c #42DCC2",
"2. c #4CDBC3",
"3. c #5AD7C2",
"4. c #43E1C7",
"5. c #43E4C9",
"6. c #51E3CA",
"7. c #58E0C9",
"8. c #64E9D2",
"9. c #69EDD7",
"0. c #7FE2D1",
"q. c #808C91",
"w. c #80959F",
"e. c #8C989D",
"r. c #8FEFDE",
/* pixels */
"                                                                                                                                ",
"                                                                                                                                ",
"                                                                                                                                ",
"                                                                                                                                ",
"                                                                                                                                ",
"                                                                                                                                ",
"                                                                                                                                ",
"                                                                                                                                ",
"                                                                                                                                ",
"                                                                                                                                ",
"                                                                                                                                ",
"                                                                                                                                ",
"                                                                                                                                ",
"                                                                                                                                ",
"                                                                                                                                ",
"                                                                                                                                ",
"                                            . O i d - .                                                                         ",
"                                              . ) -.o.% $ $ + o . .                                                             ",
"                                              - } 5.5.1.1.2.3.>...Q f @ .                                                       ",
"                                              # R =.1.5.-.=.6.r.9.z W 0.O.#                                                     ",
"                                                o z } =.5.-.X.-.>.$ $ 7.8.;.o                                                   ",
"                                                  . R o.4.1.*.} ` i h E 5.d .                                                   ",
"                                                . % [ =.R y - d e x K = o._ M %                                                 ",
"                                              . y ] o.j # s F s $ *.:.o 7 4 ) d                                                 ",
"                                              # [ { b , F ~ #.+.< i i p %.e., $                                                 ",
"                                              X T ] $ A L #.#.#.+.H J +.@.w.D .                                                 ",
"                                            o m [ M # C ~ #.@.@.+.#.#.#.@.@.+..                                                 ",
"                                            o T { l < S @.^ ~ / #.#.#.#.$.@.q..                                                 ",
"                                              O - - r F P # # # < ^ #.I e 8 G .                                                 ",
"                                                . o 9 L 9 * c ! y V $.4 e f X .                                                 ",
"                                                . % ; J , u | <.Y p $.: U &.@                                                   ",
"                                                    o 9 < & n ' = H $.p - g .                                                   ",
"                                                        . . ; < p @.$.+.; . .                                                   ",
"                                                          . 9 J S +.F P +                                                       ",
"                                                        $ j + + # 4 o + X                                                       ",
"                                                      O [ ) ; a Z ; : o .                                                       ",
"                                                    + > r & r S Z : q X 3 ; .                                                   ",
"                                                  X B S : ; , , ; ; q > < X .                                                   ",
"                                                  X ; + O ; 5 i N # : O +                                                       ",
"                                                    X . O + v N = + +                                                           ",
"                                                      X ; X X .   . X                                                           ",
"                                                    . + O .       .                                                             ",
"                                                    . .                                                                         ",
"                                                                                                                                ",
"                                                                                                                                ",
"                                                                                                                                ",
"                                                                                                                                ",
"                                                                                                                                ",
"                                                                                                                                ",
"                                                                                                                                ",
"                                                                                                                                ",
"                                                                                                                                ",
"                                                                                                                                ",
"                                                                                                                                ",
"                                                                                                                                ",
"                                                                                                                                ",
"                                                                                                                                ",
"                                                                                                                                ",
"                                                                                                                                ",
"                                                                                                                                ",
"                                                                                                                                ",
"                                                                                                                                ",
"                                                                                                                                ",
"                                                                                                                                "
};
