/* XPM */
static char *_1709064727[] = {
/* columns rows colors chars-per-pixel */
"64 64 126 2 ",
"   c None",
".  c #171514",
"X  c #181615",
"o  c #171817",
"O  c #191917",
"+  c #161F1B",
"@  c #1B1B1B",
"#  c #201E1E",
"$  c #1A211E",
"%  c #23211F",
"&  c #1D2523",
"*  c #162A23",
"=  c #1B2A26",
"-  c #1C2D29",
";  c #1D342D",
":  c #1F3530",
">  c #1F3A34",
",  c #232324",
"<  c #282625",
"1  c #2B2825",
"2  c #262628",
"3  c #282729",
"4  c #252D2D",
"5  c #292B2C",
"6  c #302D2C",
"7  c #2B2F31",
"8  c #2E3437",
"9  c #243C37",
"0  c #203F39",
"q  c #323639",
"w  c #333A3D",
"e  c #3C3C3D",
"r  c #433E3A",
"t  c #1B4035",
"y  c #1F423B",
"u  c #20443E",
"i  c #28413B",
"p  c #46413D",
"a  c #363F43",
"s  c #3A3C40",
"d  c #234C43",
"f  c #3D4147",
"g  c #3B454A",
"h  c #3E494D",
"j  c #24534A",
"k  c #2E524D",
"l  c #225C4B",
"z  c #3F4C51",
"x  c #265E54",
"c  c #2D5A53",
"v  c #345855",
"b  c #19614D",
"n  c #256156",
"m  c #276A57",
"M  c #2B645A",
"N  c #346961",
"B  c #227E63",
"V  c #297862",
"C  c #2F7469",
"Z  c #2C7B6D",
"A  c #2B7E70",
"S  c #41454B",
"D  c #46494A",
"F  c #454D54",
"G  c #46555B",
"H  c #4B545B",
"J  c #49585F",
"K  c #51575F",
"L  c #4B5B62",
"P  c #4E6066",
"I  c #586267",
"U  c #52636A",
"Y  c #596C74",
"T  c #5C717A",
"R  c #66767D",
"E  c #2D8676",
"W  c #2D8778",
"Q  c #2E8C7C",
"!  c #308B7B",
"~  c #2D9D7E",
"^  c #468B7F",
"/  c #627780",
"(  c #637A83",
")  c #677E88",
"_  c #687F89",
"`  c #757D81",
"'  c #2F9685",
"]  c #329483",
"[  c #3F9E8D",
"{  c #2EA080",
"}  c #32A28F",
"|  c #32AC8B",
" . c #34A592",
".. c #33AA96",
"X. c #33AD99",
"o. c #39B39E",
"O. c #3AB5A0",
"+. c #37BAA4",
"@. c #39B9A3",
"#. c #39BEA8",
"$. c #519589",
"%. c #6B838D",
"&. c #7A8387",
"*. c #6E8791",
"=. c #6F8893",
"-. c #708994",
";. c #79909A",
":. c #42BEA8",
">. c #3ACAA3",
",. c #3BC3AC",
"<. c #3DCBB3",
"1. c #3FD2B9",
"2. c #56C7B4",
"3. c #43D4BC",
"4. c #43E2B7",
"5. c #41DBC1",
"6. c #43E2C7",
"7. c #44E4C9",
"8. c #4AE6CC",
"9. c #5DE5CE",
"0. c #6FE9D5",
"q. c #79E3D1",
"w. c #74EAD6",
"e. c #73EED9",
"r. c #8498A2",
"t. c #8D9DA5",
/* pixels */
"                                                                                                                                ",
"                                                                                                                                ",
"                                                                                                                                ",
"                                                                                                                                ",
"                                                                                                                                ",
"                                                                                                                                ",
"                                                                                                                                ",
"                                                                                                                                ",
"                                                                                                                                ",
"                                                                                                                                ",
"                                                                                                                                ",
"                                                                                                                                ",
"                                                                                                                                ",
"                                                                                                                                ",
"                                                                                                                                ",
"                                                                                                                                ",
"                                          . O j n d O                                                                           ",
"                                            . E 1.,.u d d d y 4 $ . .                                                           ",
"                                            =  .6.7.7.7.8.9.w.9.O.[ ^ i .                                                       ",
"                                            + Z ,.5.7.5.,.3.w.e.M - q.w. .@                                                     ",
"                                              . d  .#.7.6.,.+.3.4 0 ] 8.:.$                                                     ",
"                                                . n +.5.<.+.} | - $.$ 3.W 9 $                                                   ",
"                                                $ W <.W > & - = n 2.= j j  .] .                                                 ",
"                                              = Q +.A & z Y T 4 Z ,.; I &.5 x .                                                 ",
"                                            . A X.' & G T =.=.Y 8 4 h *.;.` .                                                   ",
"                                            . y X.j a L %.=.=.=.%.%.=.=.=.t.,                                                   ",
"                                            > ' ..- w U =.=.=.=.%.=.=.*.*.r.e                                                   ",
"                                            y }  .& g T %.J J U _ -.=.%.Y R D                                                   ",
"                                            . & u & L Y 8 * t ; 4 %.*., = & $                                                   ",
"                                                . O G P $ b ~ | ; T T $ ~ V .                                                   ",
"                                                + & w L & E >.4.> Y %.@ ~ m .                                                   ",
"                                                    O 7 @ - l t 4 *.-.S O . X                                                   ",
"                                                        . . w F Y =.( %.X                                                       ",
"                                                        o . 8 s h U 5 w .                                                       ",
"                                                      O M A @ 5 < @ % O .                                                       ",
"                                                    X = o.j 7 F H 1 1 O X @                                                     ",
"                                                  , H e & # f K S , r . 6 q X                                                   ",
"                                                X 2 5 3 X 7 @ , @ , r . 1 .                                                     ",
"                                                  X # O O @ N c C 5 @ . X                                                       ",
"                                                      . @ 4 v k O , X                                                           ",
"                                                    . , @ . X . . .                                                             ",
"                                                  . X O X         .                                                             ",
"                                                                                                                                ",
"                                                                                                                                ",
"                                                                                                                                ",
"                                                                                                                                ",
"                                                                                                                                ",
"                                                                                                                                ",
"                                                                                                                                ",
"                                                                                                                                ",
"                                                                                                                                ",
"                                                                                                                                ",
"                                                                                                                                ",
"                                                                                                                                ",
"                                                                                                                                ",
"                                                                                                                                ",
"                                                                                                                                ",
"                                                                                                                                ",
"                                                                                                                                ",
"                                                                                                                                ",
"                                                                                                                                ",
"                                                                                                                                ",
"                                                                                                                                ",
"                                                                                                                                "
};
