/* XPM */
static char *e076feddc7d64485e5bd277fd39ee7a3mbAwWb76V6vcF6sh[] = {
/* columns rows colors chars-per-pixel */
"64 64 233 2 ",
"   c None",
".  c #9F7100",
"X  c #9F7200",
"o  c #A17000",
"O  c #A07100",
"+  c #A07200",
"@  c #A27400",
"#  c #A67700",
"$  c #A77800",
"%  c #AA7B00",
"&  c #AA7C00",
"*  c #AB7C00",
"=  c #AC7D00",
"-  c #AD7F00",
";  c #AE7F00",
":  c #AE8000",
">  c #AF8000",
",  c #AF8100",
"<  c #B08100",
"1  c #B08200",
"2  c #B18200",
"3  c #B18300",
"4  c #B28300",
"5  c #B28400",
"6  c #B38400",
"7  c #B48500",
"8  c #B48600",
"9  c #B58600",
"0  c #B68600",
"q  c #B68700",
"w  c #B78700",
"e  c #B68800",
"r  c #B78800",
"t  c #B88900",
"y  c #B98A00",
"u  c #B98B00",
"i  c #BA8B00",
"p  c #BA8C00",
"a  c #BB8C00",
"s  c #BB8D00",
"d  c #BC8C00",
"f  c #BC8D00",
"g  c #BC8E00",
"h  c #BD8E00",
"j  c #BE8F00",
"k  c #BF8F00",
"l  c #BF9000",
"z  c #BF9100",
"x  c #BC9700",
"c  c #C09100",
"v  c #C19100",
"b  c #C09200",
"n  c #C19200",
"m  c #C29200",
"M  c #C29300",
"N  c #C39300",
"B  c #C39400",
"V  c #C29600",
"C  c #C49400",
"Z  c #C49500",
"A  c #C59700",
"S  c #C79700",
"D  c #C79800",
"F  c #C49A00",
"G  c #C89900",
"H  c #C99900",
"J  c #C89A00",
"K  c #C99A00",
"L  c #C89B00",
"P  c #CA9A00",
"I  c #CA9B00",
"U  c #CB9C00",
"Y  c #CD9E00",
"T  c #CD9F00",
"R  c #CF9F00",
"E  c #CFA000",
"W  c #CAA800",
"Q  c #D0A000",
"!  c #D0A100",
"~  c #D1A100",
"^  c #D1A200",
"/  c #D2A200",
"(  c #D2A300",
")  c #D0A500",
"_  c #D3A400",
"`  c #D5A600",
"'  c #D6A600",
"]  c #D7A700",
"[  c #D3A800",
"{  c #D1AB00",
"}  c #D7A800",
"|  c #D6AC00",
" . c #D8A800",
".. c #D9A900",
"X. c #D9AA00",
"o. c #D8AB00",
"O. c #DAAA00",
"+. c #DBAA00",
"@. c #DBAB00",
"#. c #DCAC00",
"$. c #DDAD00",
"%. c #DDAE00",
"&. c #DEAE00",
"*. c #DEAF00",
"=. c #DFAF00",
"-. c #D1B001",
";. c #D5B100",
":. c #D9B000",
">. c #DDB000",
",. c #DFB000",
"<. c #D9B500",
"1. c #D8B600",
"2. c #D9B800",
"3. c #DBB900",
"4. c #DBBA00",
"5. c #D9BE00",
"6. c #DDBC00",
"7. c #DEBC00",
"8. c #E0B100",
"9. c #E1B100",
"0. c #E0B200",
"q. c #E1B200",
"w. c #E2B200",
"e. c #E3B300",
"r. c #E1B500",
"t. c #E3B400",
"y. c #E1B700",
"u. c #E4B400",
"i. c #E4B500",
"p. c #E6B500",
"a. c #E6B600",
"s. c #E4BA00",
"d. c #E4BB00",
"f. c #E6BA00",
"g. c #E6BA03",
"h. c #E4BC00",
"j. c #E6BD00",
"k. c #E5BB06",
"l. c #E9B900",
"z. c #EABA00",
"x. c #EBBB00",
"c. c #E8BF00",
"v. c #ECBC00",
"b. c #EDBD00",
"n. c #EEBE00",
"m. c #E8BF0A",
"M. c #E6BF22",
"N. c #DDC218",
"B. c #E1C100",
"V. c #E0C301",
"C. c #E5C000",
"Z. c #E7C502",
"A. c #EFC200",
"S. c #E9C400",
"D. c #E9C600",
"F. c #E9CD00",
"G. c #EACE00",
"H. c #F0C000",
"J. c #F0C100",
"K. c #F1C100",
"L. c #F2C200",
"P. c #F3C200",
"I. c #F3C300",
"U. c #F6C600",
"Y. c #F7C600",
"T. c #F7C700",
"R. c #F9C700",
"E. c #F8C800",
"W. c #F9CA00",
"Q. c #FACA00",
"!. c #FBCB00",
"~. c #FCCB00",
"^. c #FBCE00",
"/. c #FCCC00",
"(. c #FDCC00",
"). c #FECD00",
"_. c #FECE00",
"`. c #FFCE00",
"'. c #FECF00",
"]. c #EBD300",
"[. c #EDD000",
"{. c #EFD400",
"}. c #EED800",
"|. c #F0D000",
" X c #F2D600",
".X c #F6D400",
"XX c #FCD300",
"oX c #F5DE00",
"OX c #F7DE00",
"+X c #FED900",
"@X c #FCDB00",
"#X c #F8DE00",
"$X c #F8DF00",
"%X c #FDDC00",
"&X c #FEDD00",
"*X c #FFDD00",
"=X c #F1C710",
"-X c #FDE000",
";X c #FEE300",
":X c #FDE700",
">X c #FEE800",
",X c #FDEB00",
"<X c #FEEB00",
"1X c #FFEB00",
"2X c #FDEC00",
"3X c #FEEC00",
"4X c #FFEC00",
"5X c #FEED00",
"6X c #FFED00",
"7X c #F3EE0E",
"8X c #FEF500",
"9X c #FEF600",
"0X c #FEF007",
"qX c #FEF800",
"wX c #FEF80C",
"eX c #FEED17",
"rX c #FEEE1D",
"tX c #FEED1F",
"yX c #FCFB14",
"uX c #FEFE14",
"iX c #FFFE14",
"pX c #E7C52C",
"aX c #FEF722",
"sX c #F5E431",
"dX c #FEEA3E",
"fX c #CAB36A",
"gX c #FCE96C",
"hX c #FDF26F",
"jX c #FEF87B",
"kX c #FEFE7C",
"lX c #FEFDA9",
"zX c #FEFEA9",
"xX c #FFFEA9",
/* pixels */
"                                                                                                                                ",
"                                                                                                                                ",
"                                                                                                                                ",
"                                                                                                                                ",
"                                                                                                                                ",
"                                                                                                                                ",
"                                                                                                                                ",
"                                                                                                                                ",
"                                                                                                                                ",
"                                                                                                                                ",
"                                                                                                                                ",
"                                                                                                                                ",
"                                                                                                                                ",
"                                                                                                                                ",
"                                                      <.@XXXt.e.e.e.e.=.                                                        ",
"                                                      -XeX*X(.H.(.(.(.(.E.                                                      ",
"                                                    |.jXtX>X@XH.(.(.(.(.(.u.                                                    ",
"                                                    dXgX2.<.^.T.[.3X3X>X>X>X                                                    ",
"                                                  ;.tX-.6.2.z E.pXxXxXxXxXxXfX                                                  ",
"                                                  {.G.V.wX8X) =.f.yXiXiXiXiX7X                                                  ",
"                                                  $X2.hXaX.XE.s u.}.3X3X3X3X3X                                                  ",
"                                                  oXN.kX Xx E.^ X.e.(.(.(.(.(.                                                  ",
"                                                L G.sX0X6.V (.b.L =.H.H.H.H.H.R                                                 ",
"                                                X.C.qX-XZ.C (.T.d ` e.e.e.e.e.`                                                 ",
"                                                e.{ 8X*XM.N (.T.d ^ e.e.e.e.e.=.                                                ",
"                                                =.W 3XD.=XV (.H.C ^ #.e.e.e.e.=.                                                ",
"                                                R 5.*XV.A.N (.H.^ L ` e.e.e.e.e.                                                ",
"                                                N ].(.:.X.N ~.b.} N ) e.e.e.e.e.                                                ",
"                                                d oXR.F | N E.x.=.y ^ e.e.e.e.e.                                                ",
"                                                y :XH.{ k.N H.b.e.7 ^ e.e.e.e.e.                                                ",
"                                                r $X(.(.m.N x.b.u.2 L ^ ^ ^ ^ ^                                                 ",
"                                                7 |.(.(.c.N x.b.e.: N N N N N N                                                 ",
"                                                2 D.H.E.h.N x.x.=.: N z N N N N                                                 ",
"                                                2 f.x.b.f.N x.x.` : N z N N N z                                                 ",
"                                                2 e.x.b.f.N x.u.) 2 z N N N N z                                                 ",
"                                                2 X.x.b.f.N x.=.E 6 d N N N N z                                                 ",
"                                                2 ^ b.b.f.z u.=.L 7 d N N N N z                                                 ",
"                                                7 C x.b.h.d =.=.N y d N N N N z                                                 ",
"                                                y r >.b.f.d X.X.y y d N N N N z                                                 ",
"                                                d 2 R e.t.d X.^ 6 y 2 6 6 6 6 2                                                 ",
"                                                d 2 L ` t.d X.L * y : 2 2 2 : =                                                 ",
"                                                y * F U >.s L C * d 2 2 2 2 : *                                                 ",
"                                                + = y L X.y L s 2 y : 2 2 2 :                                                   ",
"                                                  7 : U E 7 L = 7 2 : 2 2 2 :                                                   ",
"                                                  d % z d s d * y : 2 2 2 : :                                                   ",
"                                                  y 2 $ N N # 2 y : 2 2 2 : %                                                   ",
"                                                    7 = @ @ : 7 7 : 2 2 2 :                                                     ",
"                                                    d 2 2 2 2 d : : : : : =                                                     ",
"                                                    r y 2 2 y 2 + + + . .                                                       ",
"                                                      N N N d + + + + + +                                                       ",
"                                                          7 + . + + +                                                           ",
"                                                                                                                                ",
"                                                                                                                                ",
"                                                                                                                                ",
"                                                                                                                                ",
"                                                                                                                                ",
"                                                                                                                                ",
"                                                                                                                                ",
"                                                                                                                                ",
"                                                                                                                                ",
"                                                                                                                                ",
"                                                                                                                                ",
"                                                                                                                                ",
"                                                                                                                                "
};
