/* XPM */
static char *dea77ad11f7c490fdbd8f09c8c5adcbbhteQb0LRnd0SVt78[] = {
/* columns rows colors chars-per-pixel */
"64 64 88 1 ",
"  c None",
". c #9F7100",
"X c #9E7B00",
"o c #A37500",
"O c #A67800",
"+ c #AB7C00",
"@ c #AF8100",
"# c #B28300",
"$ c #B78800",
"% c #BC8D00",
"& c #BF9000",
"* c #C29300",
"= c #C79900",
"- c #CB9B00",
"; c #C1A100",
": c #CCA200",
"> c #CCAC00",
", c #D3A300",
"< c #D2AB00",
"1 c #DCAC00",
"2 c #D4B300",
"3 c #DAB400",
"4 c #DDBC00",
"5 c #D6AA1A",
"6 c #E2B200",
"7 c #E4BB01",
"8 c #ECBC00",
"9 c #F0BF00",
"0 c #DDBB26",
"q c #DDBB33",
"w c #DFC600",
"e c #E4C401",
"r c #EFC000",
"t c #E5CA00",
"y c #EBCB00",
"u c #F3C300",
"i c #F8C700",
"p c #F5CB00",
"a c #FDCD00",
"s c #E6D400",
"d c #EDD800",
"f c #F4D301",
"g c #FDD200",
"h c #F4DC01",
"j c #FDDC00",
"k c #FED10C",
"l c #FEE500",
"z c #FEEC00",
"x c #FEF100",
"c c #FEFB00",
"v c #FEF800",
"b c #FEFC00",
"n c #FEFE00",
"m c #F9F70E",
"M c #FFFE0F",
"N c #FCE515",
"B c #F7F211",
"V c #FEFE11",
"C c #FFFE11",
"Z c #FEF51C",
"A c #E6C925",
"S c #F9DF20",
"D c #FBDE24",
"F c #FEE735",
"G c #FEED37",
"H c #FEF237",
"J c #FEF23D",
"K c #A79B6A",
"L c #E3C046",
"P c #FEDB4B",
"I c #ECD855",
"U c #F2DD5B",
"Y c #FEE54A",
"T c #FFFD41",
"R c #FFFE41",
"E c #FEFA59",
"W c #FEF663",
"Q c #FEE991",
"! c #FEFDAB",
"~ c #FEFEAA",
"^ c #FFFEAB",
"/ c #FFFFAB",
"( c #FEFCB3",
") c #FEF6B8",
"_ c #FFFEBA",
"` c #FEFDC1",
"' c #FBF8D8",
"] c #FEFCEC",
/* pixels */
"                                                                ",
"                                                                ",
"                                                                ",
"                                                                ",
"                                                                ",
"                                                                ",
"                                                                ",
"                                                                ",
"                                                                ",
"                                                                ",
"                                                                ",
"                                                                ",
"                                                                ",
"                                                                ",
"                          yjjja8688988,                         ",
"                        4jlGzzgaariaaaa8                        ",
"                       7jH_Jzzllga8iaaaa8                       ",
"                      2jW)D4223igau7zzzzzs                      ",
"                      fxFe;2ee2O,ai8I~~~~~K                     ",
"                     7ll4>hZcczp%*u87BVVVVm                     ",
"                     fze2N(Rxffaa*%68yzzzzz3                    ",
"                    ,hj>S`Rzy2<aai$-61iaaaai                    ",
"                    6j3yEMljw,-aaa6#,66uuuuuX                   ",
"                   %6p>znzjUf,-aaau%-1,66666,                   ",
"                   ,7-enxjY]Q5-aaa8,#,,166661                   ",
"                   ,6#lcjjA'P,-aaa86O-,166666                   ",
"                   ,1&cljjtLa,-aai88%*,,66666*                  ",
"                   -=<caa33-a,-aa988=#-:66666,                  ",
"                  %=$tzaie*>g,:ai8881O*=666661                  ",
"                  **+hja7110k,:a88886O**666661                  ",
"                  =%+dgaaaaqk,-888886O%*:,,,,-                  ",
"                  =%+tuaaaa4g,=888886O%*&****%                  ",
"                  =%+788iii3g,=888881O%*&****%                  ",
"                  =%+3888882g,=88881,O%*&****%                  ",
"                  *%+,888882g,=88861,O%*&****%                  ",
"                  $%+=688882g,=88611=O%******%                  ",
"                   &+%188882g,=86111%O%******%                  ",
"                   *@#,68882g:*1111,$+*******$                  ",
"                   *#O-,8882g-*1111=+#*&*****                   ",
"                   *$O&=:11<g-*111-*O#*######                   ",
"                   #%+@==-1<a-*1,==#+%%@###@+                   ",
"                    *#o*===>i-%-==*o#*$@#@#@O                   ",
"                    *$++===:r=%===@+#*@###@+                    ",
"                    $%#O#===1%%==%o#%%@###@+                    ",
"                     *##o#=*%%&=$o##*@@##@@                     ",
"                      *##OO%**%Oo##%%@@##@+                     ",
"                      %%##+oooo+##$*@@##@@                      ",
"                       *%########$*@@##@@X                      ",
"                        **$####$&*+@@@@@+                       ",
"                         $******#o..oooo                        ",
"                                o..                             ",
"                                                                ",
"                                                                ",
"                                                                ",
"                                                                ",
"                                                                ",
"                                                                ",
"                                                                ",
"                                                                ",
"                                                                ",
"                                                                ",
"                                                                ",
"                                                                ",
"                                                                "
};
